<svg width="39" height="35" viewBox="0 0 39 35" fill="none" xmlns="http://www.w3.org/2000/svg">
<path fill-rule="evenodd" clip-rule="evenodd" d="M35.824 6.31076L35.3447 22.1832H36.9305L36.4838 6.31076H35.824Z" fill="#232323"/>
<path fill-rule="evenodd" clip-rule="evenodd" d="M34.6942 23.9532L26.0476 28.0702L25.6816 27.475L34.0566 22.862L34.6942 23.9532Z" fill="#232323"/>
<path fill-rule="evenodd" clip-rule="evenodd" d="M36.1482 5.42422L22.8046 1.81873L22.6853 2.33386L35.5819 7.23112L36.1482 5.42422Z" fill="#232323"/>
<path fill-rule="evenodd" clip-rule="evenodd" d="M36.1296 4.50269C37.3285 4.50269 38.3004 5.4746 38.3004 6.67356C38.3004 7.87245 37.3285 8.84436 36.1296 8.84436C34.9307 8.84436 33.9587 7.87245 33.9587 6.67356C33.9587 5.4746 34.9307 4.50269 36.1296 4.50269Z" fill="#232323"/>
<mask id="mask0_7:1965" style="mask-type:alpha" maskUnits="userSpaceOnUse" x="33" y="19" width="6" height="6">
<path d="M33.6252 19.942H38.6435V24.9602H33.6252V19.942Z" fill="white"/>
</mask>
<g mask="url(#mask0_7:1965)">
<path fill-rule="evenodd" clip-rule="evenodd" d="M36.1344 19.942C37.5202 19.942 38.6436 21.0653 38.6436 22.4511C38.6436 23.8368 37.5202 24.9602 36.1344 24.9602C34.7486 24.9602 33.6252 23.8368 33.6252 22.4511C33.6252 21.0653 34.7486 19.942 36.1344 19.942Z" fill="#232323"/>
</g>
<path fill-rule="evenodd" clip-rule="evenodd" d="M22.5691 3.10049C22.0319 3.05638 21.6321 2.58521 21.6762 2.04804C21.7203 1.51096 22.1914 1.11117 22.7286 1.15527C23.2658 1.19929 23.6656 1.67047 23.6215 2.20763C23.5774 2.7448 23.1063 3.14451 22.5691 3.10049Z" fill="#232323"/>
<path fill-rule="evenodd" clip-rule="evenodd" d="M25.3262 29.0195C24.789 28.9754 24.3892 28.5042 24.4332 27.967C24.4773 27.4299 24.9485 27.0301 25.4857 27.0742C26.0229 27.1183 26.4227 27.5894 26.3786 28.1266C26.3345 28.6638 25.8634 29.0635 25.3262 29.0195Z" fill="#232323"/>
<path fill-rule="evenodd" clip-rule="evenodd" d="M17.2111 13.8152L3.59033 7.92063L4.10867 6.78149L17.8698 12.0319L17.2111 13.8152Z" fill="#232323"/>
<path fill-rule="evenodd" clip-rule="evenodd" d="M20.0044 12.1607L30.997 8.1214L31.3017 9.29227L20.4537 13.7825L20.0044 12.1607Z" fill="#232323"/>
<path fill-rule="evenodd" clip-rule="evenodd" d="M18.3538 31.2362H20.1679V13.2028H18.3538V31.2362Z" fill="#232323"/>
<path fill-rule="evenodd" clip-rule="evenodd" d="M2.20484 22.8144L1.72559 6.94189H3.31135L2.86468 22.8144H2.20484Z" fill="#232323"/>
<path fill-rule="evenodd" clip-rule="evenodd" d="M3.43091 5.05331L16.7745 1.44781L16.8938 1.96295L3.99716 6.86021L3.43091 5.05331Z" fill="#232323"/>
<path fill-rule="evenodd" clip-rule="evenodd" d="M16.9863 30.9883L7.6084 25.6L7.82353 24.7823L17.7222 29.4767L16.9863 30.9883Z" fill="#232323"/>
<path fill-rule="evenodd" clip-rule="evenodd" d="M4.64856 6.64254C4.64856 7.8415 3.67665 8.81341 2.47768 8.81341C1.2788 8.81341 0.306885 7.8415 0.306885 6.64254C0.306885 5.44365 1.2788 4.47174 2.47768 4.47174C3.67665 4.47174 4.64856 5.44365 4.64856 6.64254Z" fill="#232323"/>
<path fill-rule="evenodd" clip-rule="evenodd" d="M7.51702 26.1362C6.97985 26.0922 6.58014 25.621 6.62416 25.0838C6.66819 24.5467 7.13944 24.147 7.6766 24.191C8.21369 24.235 8.61348 24.7062 8.56946 25.2434C8.52543 25.7806 8.05418 26.1803 7.51702 26.1362Z" fill="#232323"/>
<path fill-rule="evenodd" clip-rule="evenodd" d="M2.39788 23.4578C1.86071 23.4137 1.461 22.9425 1.50502 22.4053C1.54904 21.8682 2.0203 21.4685 2.55746 21.5126C3.09455 21.5566 3.49434 22.0278 3.45032 22.5649C3.40629 23.1022 2.93504 23.5018 2.39788 23.4578Z" fill="#232323"/>
<path fill-rule="evenodd" clip-rule="evenodd" d="M16.8139 2.78718C16.2767 2.74316 15.8769 2.27198 15.921 1.73482C15.9651 1.19765 16.4363 0.797946 16.9735 0.841967C17.5106 0.885989 17.9104 1.35716 17.8663 1.89433C17.8222 2.43149 17.3511 2.83128 16.8139 2.78718Z" fill="#232323"/>
<path fill-rule="evenodd" clip-rule="evenodd" d="M30.9938 9.68597C30.4567 9.64187 30.0569 9.17069 30.101 8.63353C30.145 8.09636 30.6163 7.69665 31.1534 7.74075C31.6905 7.78477 32.0903 8.25595 32.0463 8.79312C32.0022 9.33028 31.531 9.72999 30.9938 9.68597Z" fill="#232323"/>
<path fill-rule="evenodd" clip-rule="evenodd" d="M22.2486 13.2028C22.2486 14.8265 20.9324 16.1428 19.3086 16.1428C17.6849 16.1428 16.3687 14.8265 16.3687 13.2028C16.3687 11.5791 17.6849 10.2628 19.3086 10.2628C20.9324 10.2628 22.2486 11.5791 22.2486 13.2028Z" fill="#232323"/>
<path fill-rule="evenodd" clip-rule="evenodd" d="M22.2005 31.2363C22.2005 32.86 20.8843 34.1763 19.2605 34.1763C17.6368 34.1763 16.3206 32.86 16.3206 31.2363C16.3206 29.6125 17.6368 28.2963 19.2605 28.2963C20.8843 28.2963 22.2005 29.6125 22.2005 31.2363Z" fill="#232323"/>
</svg>
