<svg width="102" height="103" viewBox="0 0 102 103" fill="none" xmlns="http://www.w3.org/2000/svg">
<path d="M5.46232 91.4268L50.8865 65.3636L96.3107 91.4268L96.3107 101.553L50.8865 127.023L5.46241 101.553L5.46232 91.4268Z" fill="white"/>
<path d="M5.86816 92.1472L51.725 117.527V127.311L5.86816 101.931V92.1472Z" fill="url(#paint0_linear_2905_7131)"/>
<path d="M97.0059 92.1472L51.1491 117.527V127.311L97.0059 101.931V92.1472Z" fill="#B8BFD5"/>
<g opacity="0.7">
<line x1="6.2959" y1="25.8047" x2="6.29589" y2="72.2964" stroke="#4980F7" stroke-opacity="0.2" stroke-width="2" stroke-dasharray="3 3"/>
<line x1="51.25" y1="5.62109" x2="51.25" y2="41.2163" stroke="#4980F7" stroke-opacity="0.2" stroke-width="2" stroke-dasharray="3 3"/>
<line x1="95.751" y1="25.8047" x2="95.751" y2="72.2964" stroke="#4980F7" stroke-opacity="0.2" stroke-width="2" stroke-dasharray="3 3"/>
<path fill-rule="evenodd" clip-rule="evenodd" d="M50.7275 0.542969L46.6182 4.6523L50.7275 8.76162L54.8368 4.6523L50.7275 0.542969ZM50.7274 2.59763L48.6728 4.6523L50.7274 6.70696L52.7821 4.6523L50.7274 2.59763Z" fill="#4980F7"/>
<path fill-rule="evenodd" clip-rule="evenodd" d="M95.955 23.2148L91.8457 27.3242L95.955 31.4335L100.064 27.3242L95.955 23.2148ZM95.955 25.2695L93.9003 27.3242L95.955 29.3788L98.0096 27.3242L95.955 25.2695Z" fill="#4980F7"/>
<path fill-rule="evenodd" clip-rule="evenodd" d="M5.77339 23.2148L1.66406 27.3242L5.77339 31.4335L9.88272 27.3242L5.77339 23.2148ZM5.77332 25.2695L3.71866 27.3242L5.77332 29.3788L7.82799 27.3242L5.77332 25.2695Z" fill="#4980F7"/>
</g>
<path d="M96.2885 92.8877V42.9454L50.8864 17.666L5.48438 42.9454V92.8877L50.8864 117.551L96.2885 92.8877Z" fill="white"/>
<path d="M50.8864 18.2383L95.7885 43.2393V92.5903L50.8864 116.982L5.98438 92.5903V43.2393L50.8864 18.2383Z" stroke="#5995F5" stroke-opacity="0.3"/>
<path d="M95.8802 43.0448L50.8867 17.8013V67.3349L95.8802 91.4434V43.0448Z" fill="url(#paint1_linear_2905_7131)" fill-opacity="0.1"/>
<path opacity="0.6" d="M6.18848 92.147L50.8861 67.4263L97.0369 92.147L97.0369 92.1027L51.6127 117.574L6.18848 92.147Z" fill="url(#paint2_linear_2905_7131)"/>
<rect x="49.751" y="18.1223" width="2.2701" height="2.2701" rx="1.13505" fill="#5995F5"/>
<rect x="5.48438" y="42.6394" width="2.2701" height="2.2701" rx="1.13505" fill="#5995F5"/>
<rect x="5.48438" y="90.3096" width="2.2701" height="2.2701" rx="1.13505" fill="#5995F5"/>
<rect x="94.0176" y="42.6394" width="2.2701" height="2.2701" rx="1.13505" fill="#5995F5"/>
<rect x="94.0176" y="90.3096" width="2.2701" height="2.2701" rx="1.13505" fill="#5995F5"/>
<path d="M62.9359 47.8164L32.336 64.6937C31.888 64.9422 31.5195 65.5427 31.5195 66.0397V85.0223C31.5195 85.3122 31.6424 85.4986 31.8302 85.5538C31.9675 85.5953 46.1294 93.4299 46.1294 93.4299L62.9359 68.5868C63.3839 68.3383 77.8276 55.6649 77.8276 55.6649C77.8276 55.6649 63.6295 47.7888 63.4417 47.7267C63.2972 47.6853 63.1238 47.7129 62.9359 47.8164Z" fill="url(#paint3_linear_2905_7131)"/>
<path d="M32.0831 64.7837V64.694C31.6351 64.9425 31.5195 65.543 31.5195 66.04V85.0226C31.5195 85.3125 31.6424 85.4989 31.8302 85.5541C31.9675 85.5955 46.1294 93.4302 46.1294 93.4302L62.9359 68.5871C63.3839 68.3386 46.7219 72.6321 46.7219 72.6321C46.7219 72.6321 32.271 64.7561 32.0831 64.694C31.9386 64.6525 32.271 64.6801 32.0831 64.7837Z" fill="url(#paint4_linear_2905_7131)"/>
<path d="M77.2064 55.6843L46.6065 72.5616C46.1585 72.8101 45.79 73.4106 45.79 73.9076V92.8902C45.79 93.3872 46.1513 93.5874 46.6065 93.3389L77.2064 76.4616C77.6544 76.2131 78.0229 75.6126 78.0229 75.1156V56.133C78.0229 55.6429 77.6544 55.4358 77.2064 55.6843Z" fill="#799AF8"/>
<path d="M45.4095 44.7015C40.635 47.3203 36.7705 53.6976 36.7705 58.9353C36.7705 61.2364 37.5135 62.9348 38.7517 63.8935C39.8287 64.7318 42.5126 66.0905 42.5126 66.0905C42.5126 66.0905 44.5514 64.151 45.4153 63.6744C50.1898 61.0556 54.0543 54.6783 54.0543 49.4406C54.0543 48.1257 54.4459 45.8082 54.4459 45.8082C54.4459 45.8082 51.7851 44.055 50.5526 43.7317C49.1128 43.3592 47.3389 43.6441 45.4095 44.7015Z" fill="url(#paint5_linear_2905_7131)"/>
<path d="M62.5374 35.702C58.0652 38.3412 54.4453 44.768 54.4453 50.0464C54.4453 55.3303 58.0706 57.467 62.5374 54.8278C67.0096 52.1887 70.6295 45.7619 70.6295 40.4835C70.6295 39.0921 70.9423 36.7953 70.9423 36.7953C70.9423 36.7953 68.4392 35.0229 67.3009 34.7192C65.963 34.3548 64.3176 34.6475 62.5374 35.702Z" fill="url(#paint6_linear_2905_7131)"/>
<path d="M56.5554 49.8233L45.3848 60.9644L46.0206 67.5841L67.697 55.6285L56.5409 49.6646L56.5554 49.8233Z" fill="url(#paint7_linear_2905_7131)" fill-opacity="0.5"/>
<path d="M48.5522 46.9573C43.9935 49.5964 40.3037 56.0232 40.3037 61.3016C40.3037 66.5854 43.999 68.7277 48.5522 66.083C53.1054 63.4383 56.8007 57.017 56.8007 51.7387C56.8007 46.4603 53.1054 44.3181 48.5522 46.9573Z" fill="url(#paint8_linear_2905_7131)"/>
<path d="M71.851 49.9904C75.2537 44.3601 75.2541 38.2746 71.8518 36.3979C68.4496 34.5213 62.9331 37.5643 59.5303 43.1946C56.1276 48.8249 56.1272 54.9105 59.5295 56.7871C62.9317 58.6637 68.4482 55.6207 71.851 49.9904Z" fill="url(#paint9_linear_2905_7131)"/>
<path d="M36.9763 76.3457C35.5962 75.5864 34.3534 75.5105 33.4358 75.9798L33.4285 75.9729L33.378 76.0005L33.3418 76.0144L23.2334 81.6194C23.4429 81.7989 23.6597 81.9783 23.8692 82.1578C27.0846 84.8844 30.3433 87.5765 33.7031 90.1374C34.115 90.4549 34.534 90.7587 34.9531 91.0693L40.5456 87.9768C40.5673 87.963 40.5962 87.9492 40.6179 87.9354L40.6612 87.9147V87.9078C41.5355 87.3832 42.0847 86.3133 42.0847 84.8016C42.0847 81.6884 39.7942 77.8988 36.9763 76.3457Z" fill="#88A4F4"/>
<path d="M42.4403 77.1892L26.7753 68.5495C26.5252 68.4112 26.2619 68.342 26.0053 68.342C25.6301 68.342 16.8301 70.524 16.8301 70.524L23.096 79.3836C23.096 80.1445 23.5963 80.9745 24.2874 81.3518L38.3595 94.7954C38.3595 94.7954 43.342 88.8721 43.4473 88.6961C43.5658 88.4886 43.6382 88.2371 43.6382 87.9604V79.1573C43.6316 78.3964 43.1314 77.5664 42.4403 77.1892Z" fill="#799AF8"/>
<path d="M37.3854 80.6593L18.39 70.1836C18.0873 70.0139 17.7714 69.9321 17.4554 69.9321C16.5537 69.9321 15.8955 70.6175 15.8955 71.567V82.2376C15.8955 83.1619 16.501 84.1617 17.3369 84.6207L36.3257 95.0964C36.6285 95.2662 36.9444 95.348 37.2604 95.348C38.1621 95.348 38.8203 94.6626 38.8203 93.7131V83.0488C38.8269 82.1244 38.2213 81.1184 37.3854 80.6593Z" fill="url(#paint10_linear_2905_7131)"/>
<path d="M37.886 80.5568L17.9428 69.5593C17.6203 69.3832 17.2912 69.2952 16.9621 69.2952C16.0143 69.2952 15.3232 70.0183 15.3232 71.0118V82.2232C15.3232 83.1915 15.9617 84.2479 16.8371 84.732L36.7802 95.7296C37.1028 95.9057 37.4319 96 37.7609 96C38.7087 96 39.3998 95.2769 39.3998 94.2834V83.0657C39.3998 82.0974 38.7614 81.041 37.886 80.5568ZM37.1817 93.4974L17.9428 82.8834C17.7585 82.7828 17.5348 82.4181 17.5348 82.2106V71.7789L36.7737 82.3929C36.958 82.4935 37.1817 82.8582 37.1817 83.0657V93.4974Z" fill="#8AADFD"/>
<path d="M49.4824 81.1083L63.6227 73.3082V67.3994L49.4824 75.1995V81.1083Z" fill="url(#paint11_linear_2905_7131)"/>
<path d="M55.0374 80.1206C54.6111 80.3553 54.2715 80.9213 54.2715 81.3907V87.2995C54.2715 87.7688 54.6183 87.9552 55.0374 87.7205C55.4637 87.4858 55.8033 86.9198 55.8033 86.4504V80.5417C55.8033 80.0792 55.4637 79.8859 55.0374 80.1206Z" fill="url(#paint12_linear_2905_7131)"/>
<path d="M58.3548 78.2925C57.9285 78.5272 57.5889 79.0932 57.5889 79.5626V85.4713C57.5889 85.9407 57.9357 86.1271 58.3548 85.8924C58.7811 85.6577 59.1207 85.0917 59.1207 84.6223V78.7135C59.1207 78.251 58.7811 78.0578 58.3548 78.2925Z" fill="url(#paint13_linear_2905_7131)"/>
<path d="M61.6712 76.4658C61.2449 76.7005 60.9053 77.2665 60.9053 77.7359V83.6447C60.9053 84.1141 61.2521 84.3005 61.6712 84.0658C62.0975 83.8311 62.4371 83.265 62.4371 82.7957V76.8869C62.4443 76.4175 62.0975 76.2311 61.6712 76.4658Z" fill="url(#paint14_linear_2905_7131)"/>
<path d="M64.9876 74.6333C64.5613 74.868 64.2217 75.434 64.2217 75.9034V81.8122C64.2217 82.2816 64.5685 82.4679 64.9876 82.2332C65.4139 81.9986 65.7535 81.4325 65.7535 80.9631V75.0544C65.7607 74.585 65.4139 74.3986 64.9876 74.6333Z" fill="url(#paint15_linear_2905_7131)"/>
<path d="M68.305 72.8052C67.8787 73.0399 67.5391 73.6059 67.5391 74.0753V79.984C67.5391 80.4534 67.8859 80.6398 68.305 80.4051C68.7313 80.1704 69.0709 79.6044 69.0709 79.135V73.2262C69.0781 72.7569 68.7313 72.5705 68.305 72.8052Z" fill="url(#paint16_linear_2905_7131)"/>
<path d="M51.722 81.9531C51.2957 82.1878 50.9561 82.7538 50.9561 83.2232V89.132C50.9561 89.6014 51.3029 89.7877 51.722 89.553C52.1483 89.3183 52.4879 88.7523 52.4879 88.2829V82.3742C52.4879 81.9117 52.141 81.7184 51.722 81.9531Z" fill="url(#paint17_linear_2905_7131)"/>
<defs>
<linearGradient id="paint0_linear_2905_7131" x1="9.84297" y1="101.937" x2="47.6175" y2="122.278" gradientUnits="userSpaceOnUse">
<stop stop-color="#C9D8FF"/>
<stop offset="1" stop-color="white"/>
</linearGradient>
<linearGradient id="paint1_linear_2905_7131" x1="73.3834" y1="17.8013" x2="73.3834" y2="91.4434" gradientUnits="userSpaceOnUse">
<stop offset="0.0667851" stop-color="#7A9EF4"/>
<stop offset="1" stop-color="#EFF1F9"/>
</linearGradient>
<linearGradient id="paint2_linear_2905_7131" x1="28.8889" y1="69.4018" x2="74.3352" y2="114.848" gradientUnits="userSpaceOnUse">
<stop offset="0.0001" stop-color="#A0B4FF"/>
<stop offset="1" stop-color="#B5C4FD" stop-opacity="0.01"/>
</linearGradient>
<linearGradient id="paint3_linear_2905_7131" x1="54.6736" y1="47.7083" x2="54.6736" y2="93.4299" gradientUnits="userSpaceOnUse">
<stop stop-color="#C5D7FF"/>
<stop offset="1" stop-color="#C9D8FA"/>
</linearGradient>
<linearGradient id="paint4_linear_2905_7131" x1="36.8761" y1="73.2466" x2="58.2984" y2="73.7078" gradientUnits="userSpaceOnUse">
<stop stop-color="#92B2FF"/>
<stop offset="1" stop-color="#ADC2FE"/>
</linearGradient>
<linearGradient id="paint5_linear_2905_7131" x1="45.6082" y1="43.5759" x2="45.6082" y2="66.0905" gradientUnits="userSpaceOnUse">
<stop stop-color="#C5D7FF"/>
<stop offset="1" stop-color="#C9D8FA"/>
</linearGradient>
<linearGradient id="paint6_linear_2905_7131" x1="62.6938" y1="34.5698" x2="62.6938" y2="55.9587" gradientUnits="userSpaceOnUse">
<stop stop-color="#C5D7FF"/>
<stop offset="1" stop-color="#C9D8FA"/>
</linearGradient>
<linearGradient id="paint7_linear_2905_7131" x1="49.188" y1="55.006" x2="64.396" y2="55.3789" gradientUnits="userSpaceOnUse">
<stop stop-color="#92B2FF"/>
<stop offset="1" stop-color="#ADC2FE"/>
</linearGradient>
<linearGradient id="paint8_linear_2905_7131" x1="43.1157" y1="52.2029" x2="54.3642" y2="52.3738" gradientUnits="userSpaceOnUse">
<stop stop-color="#A8BFFE"/>
<stop offset="0.963422" stop-color="#7998FC"/>
</linearGradient>
<linearGradient id="paint9_linear_2905_7131" x1="59.142" y1="51.9394" x2="67.4593" y2="37.9822" gradientUnits="userSpaceOnUse">
<stop stop-color="#98B3FF"/>
<stop offset="0.963422" stop-color="#6A8DFF"/>
</linearGradient>
<linearGradient id="paint10_linear_2905_7131" x1="27.1841" y1="77.9836" x2="25.7111" y2="87.2346" gradientUnits="userSpaceOnUse">
<stop stop-color="#CBDBFF"/>
<stop offset="0.743887" stop-color="#9DBAFF"/>
</linearGradient>
<linearGradient id="paint11_linear_2905_7131" x1="56.5525" y1="66.7751" x2="56.5525" y2="80.7895" gradientUnits="userSpaceOnUse">
<stop stop-color="#B0C8FF"/>
<stop offset="1" stop-color="#739DFF"/>
</linearGradient>
<linearGradient id="paint12_linear_2905_7131" x1="55.0374" y1="79.6652" x2="55.0374" y2="87.6404" gradientUnits="userSpaceOnUse">
<stop stop-color="#8CAFFF"/>
<stop offset="1" stop-color="#6C97FF"/>
</linearGradient>
<linearGradient id="paint13_linear_2905_7131" x1="58.3548" y1="77.8371" x2="58.3548" y2="85.8123" gradientUnits="userSpaceOnUse">
<stop stop-color="#8CAFFF"/>
<stop offset="1" stop-color="#6C97FF"/>
</linearGradient>
<linearGradient id="paint14_linear_2905_7131" x1="61.6712" y1="76.0092" x2="61.6712" y2="83.9856" gradientUnits="userSpaceOnUse">
<stop stop-color="#8CAFFF"/>
<stop offset="1" stop-color="#6C97FF"/>
</linearGradient>
<linearGradient id="paint15_linear_2905_7131" x1="64.9876" y1="74.1767" x2="64.9876" y2="82.1531" gradientUnits="userSpaceOnUse">
<stop stop-color="#8CAFFF"/>
<stop offset="1" stop-color="#6C97FF"/>
</linearGradient>
<linearGradient id="paint16_linear_2905_7131" x1="68.305" y1="72.3485" x2="68.305" y2="80.325" gradientUnits="userSpaceOnUse">
<stop stop-color="#8CAFFF"/>
<stop offset="1" stop-color="#6C97FF"/>
</linearGradient>
<linearGradient id="paint17_linear_2905_7131" x1="51.722" y1="81.4978" x2="51.722" y2="89.4729" gradientUnits="userSpaceOnUse">
<stop stop-color="#8CAFFF"/>
<stop offset="1" stop-color="#6C97FF"/>
</linearGradient>
</defs>
</svg>
