<?xml version="1.0" standalone="no"?><!DOCTYPE svg PUBLIC "-//W3C//DTD SVG 1.1//EN" "http://www.w3.org/Graphics/SVG/1.1/DTD/svg11.dtd"><svg t="1584070362750" class="icon" viewBox="0 0 1024 1024" version="1.1" xmlns="http://www.w3.org/2000/svg" p-id="18458" xmlns:xlink="http://www.w3.org/1999/xlink" width="200" height="200"><defs><style type="text/css"></style></defs><path d="M607.540088 583.822307h-45.00297c-0.851408 0-1.581185-0.729778-1.581185-1.581186v-149.604466c0-13.257632 10.825039-24.08267 24.08267-24.08267s24.08267 10.825039 24.08267 24.08267v149.604466c0 0.851408-0.729778 1.581185-1.581185 1.581186z" fill="#FFFFFF" p-id="18459"></path><path d="M607.540088 597.931346h-59.112009l-1.581185-15.690225v-149.604466c0-21.041929 17.14978-38.191709 38.191709-38.191709 21.041929 0 38.191709 17.14978 38.191709 38.191709v163.713505l-15.690224 1.581186z m-32.596746-28.096449H595.133864V432.636655c0-5.594964-4.500297-10.095261-10.095261-10.095261-5.473334 0-10.095261 4.621927-10.095261 10.095261v137.198242z" fill="#4E8CEE" p-id="18460"></path><path d="M734.27818 832.433306H221.244328c-21.771707 0-39.408006-17.636299-39.408005-39.408006V611.553866c0-23.717781 19.217484-42.935265 42.935265-42.935265h513.76363c24.2043 0 44.029932 19.825632 44.029932 44.029932v171.497803c0 26.515263-21.771707 48.28697-48.28697 48.28697z" fill="#BAD4FF" p-id="18461"></path><path d="M804.215227 832.433306h-43.056895V568.618601h41.35408c18.852595 0 34.299561 15.446965 34.299561 34.29956v197.040029c0 17.757928-14.595558 32.475116-32.596746 32.475116z" fill="#FFFFFF" p-id="18462"></path><path d="M806.526191 582.362751c8.149186 0 15.082076 6.93289 15.082076 15.082076v193.634399c0 8.149186-6.93289 15.082076-15.082076 15.082076h-589.903789c-8.149186 0-15.082076-6.93289-15.082077-15.082076V597.323198c0-8.149186 6.93289-15.082076 15.082077-15.082077h589.903789m0-28.096448h-589.903789c-23.717781 0-43.178525 19.460744-43.178525 43.178525v193.634398c0 23.717781 19.460744 43.178525 43.178525 43.178525h589.903789c23.717781 0 43.178525-19.460744 43.178525-43.178525V597.323198c0-23.717781-19.339114-43.178525-43.178525-43.178525z" fill="#4E8CEE" p-id="18463"></path><path d="M288.505523 694.140397m-28.096448 0a28.096449 28.096449 0 1 0 56.192897 0 28.096449 28.096449 0 1 0-56.192897 0Z" fill="#FFFFFF" p-id="18464"></path><path d="M288.505523 730.750921c-20.190521 0-36.610524-16.420002-36.610524-36.610524s16.420002-36.610524 36.610524-36.610524 36.610524 16.420002 36.610524 36.610524-16.420002 36.610524-36.610524 36.610524z m0-56.192897c-10.825039 0-19.704003 8.878964-19.704003 19.704002 0 10.825039 8.878964 19.704003 19.704003 19.704003s19.704003-8.878964 19.704003-19.704003c0-10.946668-8.757335-19.704003-19.704003-19.704002z" fill="#4E8CEE" p-id="18465"></path><path d="M378.024944 694.140397m-28.096449 0a28.096449 28.096449 0 1 0 56.192897 0 28.096449 28.096449 0 1 0-56.192897 0Z" fill="#FFFFFF" p-id="18466"></path><path d="M378.024944 730.750921c-20.190521 0-36.610524-16.420002-36.610524-36.610524s16.420002-36.610524 36.610524-36.610524 36.610524 16.420002 36.610523 36.610524-16.420002 36.610524-36.610523 36.610524z m0-56.192897c-10.825039 0-19.704003 8.878964-19.704003 19.704002 0 10.825039 8.878964 19.704003 19.704003 19.704003s19.704003-8.878964 19.704002-19.704003c0-10.946668-8.878964-19.704003-19.704002-19.704002z" fill="#4E8CEE" p-id="18467"></path><path d="M775.267371 425.703765c-17.636299 0-31.866968-13.86578-32.353486-31.623708l-0.121629-3.892149c0-81.613493-72.24801-150.577503-157.875282-150.577503-84.897494 0-156.658986 68.96401-156.658986 150.577503 0.12163 0.973037 0 2.310963-0.608148 5.716594-1.946074 16.298373-15.446965 28.461337-31.745338 28.461337-16.541632 0-30.529041-12.406224-32.596746-28.947856l-0.121629-4.743556c0-116.886091 101.560755-215.649365 221.730847-215.649365 120.77824 0 222.947143 98.763274 222.947143 215.649365 0 20.433781-14.595558 35.029338-32.596746 35.029338z" fill="#BAD4FF" p-id="18468"></path><path d="M585.038603 189.012472c111.291127 0 208.838104 90.249198 208.838104 201.661955v2.432593c0 10.21689-8.270816 18.487706-18.487706 18.487706-10.095261 0-18.001188-8.027557-18.366077-18.001188 0 0-0.12163-2.310963-0.121629-3.40563 0-90.978976-80.883715-164.686542-171.862692-164.686542-90.978976 0-170.768025 73.707566-170.768025 164.686542v0.364889c0 0.364889-0.364889 3.040741-0.364888 3.040741-1.216296 9.243853-8.392446 16.663262-17.879559 16.663262-9.608742 0-17.514669-7.297779-18.609336-16.541632v-3.040741c-0.12163-111.412757 96.209051-201.661955 207.621808-201.661955m0-28.096449c-127.832759 0-235.839886 105.209645-235.839886 229.758404v4.743556l0.243259 1.702815c2.919112 23.474522 22.988003 41.23245 46.584155 41.232451 23.109633 0 42.813636-17.757928 45.854377-41.35408 0.486519-2.675852 0.729778-5.108445 0.608149-7.905928 0.608148-73.585937 65.68001-135.495427 142.671576-135.495427 77.964604 0 143.766243 62.517639 143.766243 136.590094 0 1.459556 0.12163 4.378667 0.121629 4.378668 0.729778 25.298967 21.163559 45.246229 46.462526 45.246228 25.785485 0 46.705785-20.920299 46.705784-46.705784v-2.432593c-0.243259-124.548759-108.736905-229.758404-237.177812-229.758404z" fill="#4E8CEE" p-id="18469"></path><path d="M671.395653 430.325692c-12.406224 0-22.379855-9.730372-22.744744-22.136596 0-37.218672-28.582967-65.801639-63.733935-65.801639-34.54282 0-62.639268 27.60993-63.612306 61.787861v3.284l-0.486519 2.675852c-1.216296 10.825039-10.825039 19.582373-22.258225 19.582374-11.554816 0-21.285188-8.635705-22.744744-20.190522l-0.12163-3.162371c0-60.206675 49.016748-109.223423 109.223424-109.223423s109.223423 49.016748 109.223423 109.223423c0.12163 13.74415-10.095261 23.961041-22.744744 23.961041z" fill="#BAD4FF" p-id="18470"></path><path d="M585.038603 311.250267c52.544008 0 95.236014 42.570377 95.236014 95.236014v1.094667c0 4.865186-3.892149 8.757335-8.757335 8.757334-4.743556 0-8.514075-3.770519-8.635705-8.514075V406.243022c0-42.935265-34.786079-77.721345-77.721344-77.721345s-77.721345 34.786079-77.721345 77.721345v0.121629c0 0.243259-0.243259 1.459556-0.243259 1.459556-0.608148 4.378667-3.892149 7.905927-8.514075 7.905927-4.500297 0-8.270816-3.52726-8.757335-7.784297v-1.459556c-0.12163-52.665637 42.448747-95.236014 95.114384-95.236014m0-28.218078c-67.990973 0-123.332462 55.341489-123.332462 123.332462V409.527022l0.243259 1.702815c2.310963 18.487706 18.122817 32.475116 36.732154 32.475116 18.366077 0 34.056301-13.987409 36.367264-32.475116 0.243259-1.094667 0.486519-3.162371 0.364889-5.838223 0.364889-27.001782 22.501485-49.016748 49.624896-49.016748 27.366671 0 49.624896 22.258225 49.624896 49.624896v2.554223c0.608148 19.947262 16.784891 35.759116 36.732154 35.759116 20.312151 0 36.853783-16.541632 36.853783-36.853783 0.12163-69.08564-55.21986-124.427129-123.210833-124.427129z" fill="#4E8CEE" p-id="18471"></path></svg>