<?xml version="1.0" standalone="no"?><!DOCTYPE svg PUBLIC "-//W3C//DTD SVG 1.1//EN" "http://www.w3.org/Graphics/SVG/1.1/DTD/svg11.dtd"><svg t="1583999374469" class="icon" viewBox="0 0 1024 1024" version="1.1" xmlns="http://www.w3.org/2000/svg" p-id="4670" xmlns:xlink="http://www.w3.org/1999/xlink" width="200" height="200"><defs><style type="text/css"></style></defs><path d="M256 656h544a64 64 0 0 1 64 64v80a64 64 0 0 1-64 64H256a64 64 0 0 1-64-64v-80a64 64 0 0 1 64-64z" fill="#95EAFF" p-id="4671"></path><path d="M831.84 608h-55.472v-48.784a79.168 79.168 0 0 0-64.368-77.712V272a16 16 0 0 0-32 0v209.92c-35.632 7.776-62.4 39.392-62.4 77.296V608H192.16A80.112 80.112 0 0 0 112 688.112v143.76A80.064 80.064 0 0 0 192.16 912h639.68A80.112 80.112 0 0 0 912 831.888v-143.76A80.064 80.064 0 0 0 831.84 608zM649.6 559.216A47.36 47.36 0 0 1 696.976 512a47.248 47.248 0 0 1 47.376 47.216V608H649.6v-48.784zM880 831.888A48.128 48.128 0 0 1 831.84 880H192.16A48.064 48.064 0 0 1 144 831.888v-143.76A48.128 48.128 0 0 1 192.16 640h639.68A48.064 48.064 0 0 1 880 688.112v143.776z" fill="#0F13AE" p-id="4672"></path><path d="M384 485.76a16 16 0 0 0 16-16v-117.968a16 16 0 0 0-32 0v117.968a16 16 0 0 0 16 16zM288 549.968a16 16 0 0 0 16-16V416a16 16 0 0 0-32 0v117.968a16 16 0 0 0 16 16zM288 293.968a16 16 0 0 0 16-16V160a16 16 0 0 0-32 0v117.968a16 16 0 0 0 16 16zM384 197.376a16 16 0 0 0 16-16V63.408a16 16 0 0 0-32 0v117.968a16 16 0 0 0 16 16z" fill="#0F13AE" p-id="4673"></path><path d="M272 752m-48 0a48 48 0 1 0 96 0 48 48 0 1 0-96 0Z" fill="#49A3FE" p-id="4674"></path><path d="M775.52 742.16H416a16 16 0 0 0 0 32h359.52a16 16 0 0 0 0-32zM646.608 244.912a56.048 56.048 0 0 1 49.392-29.504c22.352 0 42.24 13.104 51.168 33.056a16 16 0 1 0 29.2-13.072 88 88 0 0 0-80.384-51.984 88.064 88.064 0 0 0-77.568 46.336 16 16 0 1 0 28.192 15.168z" fill="#49A3FE" p-id="4675"></path><path d="M830.608 192.864a149.616 149.616 0 0 0-136.736-88.416 149.776 149.776 0 0 0-131.952 78.832 16 16 0 0 0 28.176 15.184 117.792 117.792 0 0 1 103.776-62 117.648 117.648 0 0 1 107.536 69.488 16 16 0 1 0 29.2-13.088z" fill="#49A3FE" p-id="4676"></path><path d="M384 544m-16 0a16 16 0 1 0 32 0 16 16 0 1 0-32 0Z" fill="#49A3FE" p-id="4677"></path><path d="M288 352m-16 0a16 16 0 1 0 32 0 16 16 0 1 0-32 0Z" fill="#49A3FE" p-id="4678"></path><path d="M384 255.408m-16 0a16 16 0 1 0 32 0 16 16 0 1 0-32 0Z" fill="#49A3FE" p-id="4679"></path></svg>