<svg width="92" height="91" viewBox="0 0 92 91" fill="none" xmlns="http://www.w3.org/2000/svg">
<path d="M4.56306 81.9135L45.5027 58.4234L86.4422 81.9135L86.4422 91.0396L45.5026 113.996L4.56314 91.0397L4.56306 81.9135Z" fill="white"/>
<path d="M4.92871 82.5615L46.2582 105.436V114.254L4.92871 91.3798V82.5615Z" fill="url(#paint0_linear_2942_6631)"/>
<path d="M87.0684 82.5615L45.7389 105.436V114.254L87.0684 91.3798V82.5615Z" fill="#B8BFD5"/>
<g opacity="0.7">
<line x1="5.41309" y1="22.7676" x2="5.41308" y2="64.6693" stroke="#4980F7" stroke-opacity="0.2" stroke-width="2" stroke-dasharray="3 3"/>
<line x1="45.9287" y1="4.57666" x2="45.9287" y2="36.6577" stroke="#4980F7" stroke-opacity="0.2" stroke-width="2" stroke-dasharray="3 3"/>
<line x1="86.0371" y1="22.7676" x2="86.0371" y2="64.6693" stroke="#4980F7" stroke-opacity="0.2" stroke-width="2" stroke-dasharray="3 3"/>
<path fill-rule="evenodd" clip-rule="evenodd" d="M45.3589 0L41.6553 3.70362L45.3589 7.40725L49.0625 3.70362L45.3589 0ZM45.3588 1.85181L43.507 3.70362L45.3588 5.55543L47.2106 3.70362L45.3588 1.85181Z" fill="#4980F7"/>
<path fill-rule="evenodd" clip-rule="evenodd" d="M86.1216 20.4336L82.418 24.1372L86.1216 27.8408L89.8252 24.1372L86.1216 20.4336ZM86.1215 22.2854L84.2697 24.1372L86.1215 25.989L87.9733 24.1372L86.1215 22.2854Z" fill="#4980F7"/>
<path fill-rule="evenodd" clip-rule="evenodd" d="M4.84327 20.4336L1.13965 24.1372L4.84327 27.8408L8.5469 24.1372L4.84327 20.4336ZM4.84321 22.2854L2.9914 24.1372L4.84321 25.989L6.69502 24.1372L4.84321 22.2854Z" fill="#4980F7"/>
</g>
<path d="M86.4223 83.2303V38.2187L45.5026 15.4351L4.58301 38.2187V83.2303L45.5026 105.458L86.4223 83.2303Z" fill="white"/>
<path d="M45.5026 16.0073L85.9223 38.5126V82.9329L45.5026 104.889L5.08301 82.9329V38.5126L45.5026 16.0073Z" stroke="#5995F5" stroke-opacity="0.3"/>
<path d="M86.0543 38.3097L45.5029 15.5583V60.2017L86.0543 81.93V38.3097Z" fill="url(#paint1_linear_2942_6631)" fill-opacity="0.1"/>
<path opacity="0.6" d="M5.21777 82.5623L45.5025 60.2822L87.097 82.5623L87.0969 82.5224L46.1574 105.479L5.21777 82.5623Z" fill="url(#paint2_linear_2942_6631)"/>
<rect x="44.4795" y="15.8469" width="2.04598" height="2.04598" rx="1.02299" fill="#5995F5"/>
<rect x="4.58301" y="37.9421" width="2.04598" height="2.04598" rx="1.02299" fill="#5995F5"/>
<rect x="4.58301" y="80.9075" width="2.04598" height="2.04598" rx="1.02299" fill="#5995F5"/>
<rect x="84.375" y="37.9421" width="2.04598" height="2.04598" rx="1.02299" fill="#5995F5"/>
<rect x="84.375" y="80.9075" width="2.04598" height="2.04598" rx="1.02299" fill="#5995F5"/>
<path d="M15.7725 44.9007L45.4099 31L74.2605 44.9007L45.4099 60.8997L15.7725 44.9007Z" fill="url(#paint3_linear_2942_6631)"/>
<path d="M30.46 45.431L45.0793 38.6025L59.3105 45.431L45.0793 53.2901L30.46 45.431Z" fill="url(#paint4_linear_2942_6631)"/>
<path d="M15.7725 76.3798V44.906L45.4099 60.9054V95.0015L15.7725 76.3798Z" fill="#D7DBFB"/>
<path fill-rule="evenodd" clip-rule="evenodd" d="M28.9119 58.7642L21.3242 54.7348L21.3243 54.022L29.5442 58.4481L30.4927 61.0579L35.39 63.9437L35.3901 64.7039L29.9063 61.5846L28.9119 58.7642Z" fill="url(#paint5_linear_2942_6631)"/>
<path d="M21.3242 72.4324V58.2209V55.6917L28.5957 59.4855L29.228 62.0147L38.3964 67.0729V82.5476L21.3242 72.4324Z" fill="url(#paint6_linear_2942_6631)"/>
<path d="M74.2607 75.8548L45.4102 95.0011V60.905L74.2607 44.906V75.8548Z" fill="url(#paint7_linear_2942_6631)"/>
<path d="M66.6541 72.9249L53.0156 82.1472V65.7239L66.6541 58.0176V72.9249Z" fill="url(#paint8_linear_2942_6631)"/>
<defs>
<linearGradient id="paint0_linear_2942_6631" x1="8.5111" y1="91.3851" x2="42.5562" y2="109.717" gradientUnits="userSpaceOnUse">
<stop stop-color="#C9D8FF"/>
<stop offset="1" stop-color="white"/>
</linearGradient>
<linearGradient id="paint1_linear_2942_6631" x1="65.7786" y1="15.5583" x2="65.7786" y2="81.93" gradientUnits="userSpaceOnUse">
<stop offset="0.0667851" stop-color="#7A9EF4"/>
<stop offset="1" stop-color="#EFF1F9"/>
</linearGradient>
<linearGradient id="paint2_linear_2942_6631" x1="25.6771" y1="62.0627" x2="66.6365" y2="103.022" gradientUnits="userSpaceOnUse">
<stop offset="0.0001" stop-color="#A0B4FF"/>
<stop offset="1" stop-color="#B5C4FD" stop-opacity="0.01"/>
</linearGradient>
<linearGradient id="paint3_linear_2942_6631" x1="45.0165" y1="31" x2="45.0165" y2="60.8997" gradientUnits="userSpaceOnUse">
<stop stop-color="#ADC6FF"/>
<stop offset="1" stop-color="#ADC6FF" stop-opacity="0"/>
</linearGradient>
<linearGradient id="paint4_linear_2942_6631" x1="44.8852" y1="37.9337" x2="44.8852" y2="52.9485" gradientUnits="userSpaceOnUse">
<stop stop-color="#7699FD" stop-opacity="0.38"/>
<stop offset="1" stop-color="#7699FD"/>
</linearGradient>
<linearGradient id="paint5_linear_2942_6631" x1="23.3602" y1="56.3189" x2="28.4977" y2="68.2627" gradientUnits="userSpaceOnUse">
<stop stop-color="#007C52"/>
<stop offset="1" stop-color="#007C52" stop-opacity="0.25"/>
</linearGradient>
<linearGradient id="paint6_linear_2942_6631" x1="24.2342" y1="63.6968" x2="35.8758" y2="63.8426" gradientUnits="userSpaceOnUse">
<stop stop-color="#6F9AFE"/>
<stop offset="1" stop-color="#A6BDFF"/>
</linearGradient>
<linearGradient id="paint7_linear_2942_6631" x1="74.3178" y1="60.1441" x2="45.7442" y2="82.4264" gradientUnits="userSpaceOnUse">
<stop stop-color="#97B6FF"/>
<stop offset="1" stop-color="white"/>
</linearGradient>
<linearGradient id="paint8_linear_2942_6631" x1="55.3404" y1="65.21" x2="64.6407" y2="65.3136" gradientUnits="userSpaceOnUse">
<stop stop-color="#B9CBFF"/>
<stop offset="0.963422" stop-color="#6A8DFF"/>
</linearGradient>
</defs>
</svg>
