<?xml version="1.0" standalone="no"?>
<!DOCTYPE svg PUBLIC "-//W3C//DTD SVG 1.1//EN" "http://www.w3.org/Graphics/SVG/1.1/DTD/svg11.dtd" >
<svg xmlns="http://www.w3.org/2000/svg">
  <metadata>Created by iconfont</metadata>
  <defs>
  <font id="iconfont" horiz-adv-x="1024">
    <font-face
      font-family="iconfont"
      font-weight="400"
      font-stretch="normal"
      units-per-em="1024"
      ascent="896"
      descent="-128"
    />
      <missing-glyph />
      
      <glyph glyph-name="details" unicode="&#58911;" d="M346.2 381.4m-64.2 0a64.2 64.2 0 1 1 128.4 0 64.2 64.2 0 1 1-128.4 0ZM450.1 381.4a64.2 64.2 0 1 1 128.4 0 64.2 64.2 0 1 1-128.4 0ZM682.5 381.4m-64.2 0a64.2 64.2 0 1 1 128.4 0 64.2 64.2 0 1 1-128.4 0ZM512 759.7c50.7 0 99.9-9.9 146.2-29.5 44.7-18.9 84.9-46 119.5-80.6 34.5-34.5 61.6-74.7 80.6-119.5 19.6-46.3 29.5-95.5 29.5-146.2s-9.9-99.9-29.5-146.2c-18.9-44.7-46-84.9-80.6-119.5-34.5-34.5-74.7-61.6-119.5-80.6-46.3-19.6-95.5-29.5-146.2-29.5s-99.9 9.9-146.2 29.5c-44.7 18.9-84.9 46-119.4 80.6-34.5 34.5-61.6 74.7-80.6 119.5-19.6 46.3-29.5 95.5-29.5 146.2s9.9 99.9 29.5 146.2c18.9 44.7 46 84.9 80.6 119.5 34.5 34.5 74.7 61.6 119.4 80.6 46.3 19.6 95.5 29.5 146.2 29.5m0 70C265.9 829.7 66.3 630.1 66.3 384S265.9-61.700000000000045 512-61.700000000000045 957.7 137.89999999999998 957.7 384 758.1 829.7 512 829.7z"  horiz-adv-x="1024" />
      
      <glyph glyph-name="wenjian" unicode="&#59068;" d="M506.407385 248.989538a67.505231 67.505231 0 1 1 0 135.010462 67.505231 67.505231 0 0 1 0-135.010462z m270.020923 67.505231a67.505231 67.505231 0 1 0-135.010462 0 67.505231 67.505231 0 0 0 135.010462 0z m135.010461-67.505231a67.505231 67.505231 0 1 1 0 135.010462 67.505231 67.505231 0 0 1 0-135.010462zM236.307692 687.812923C236.307692 781.075692 311.926154 856.615385 405.110154 856.615385h607.625846C1105.998769 856.615385 1181.538462 780.996923 1181.538462 687.812923v-607.625846c0-93.262769-75.618462-168.802462-168.802462-168.802462H405.110154A168.802462 168.802462 0 0 0 236.307692 80.187077V687.812923z m168.802462 101.297231c-55.926154 0-101.297231-45.371077-101.297231-101.297231v-607.625846c0-55.926154 45.371077-101.297231 101.297231-101.297231h607.625846c55.926154 0 101.297231 45.371077 101.297231 101.297231V586.436923H675.052308c-55.926154 0-101.218462 45.371077-101.218462 101.297231V789.110154H405.110154z m708.923077-101.297231c0 55.926154-45.371077 101.297231-101.297231 101.297231H641.417846v-101.297231c0-18.668308 15.123692-33.713231 33.713231-33.713231h438.902154v33.713231z"  horiz-adv-x="1181" />
      
      <glyph glyph-name="shangchuanwenjian" unicode="&#59069;" d="M180.705882 865.882353h160.64753c19.516235 0 38.550588-6.324706 54.211764-18.070588l96.376471-72.282353H843.294118a150.588235 150.588235 0 0 0 150.588235-150.588236v-196.186352a331.715765 331.715765 0 0 1-60.235294 39.574588V624.941176A90.352941 90.352941 0 0 1 843.294118 715.294118H489.110588L400.986353 622.893176A90.352941 90.352941 0 0 0 335.510588 594.823529H90.352941v-421.647058A90.352941 90.352941 0 0 1 180.705882 82.823529h283.52753c5.963294-21.022118 13.854118-41.140706 23.67247-60.235294H180.705882A150.588235 150.588235 0 0 0 30.117647 173.176471V715.294118A150.588235 150.588235 0 0 0 180.705882 865.882353zM90.352941 715.294118v-60.235294h245.217883a30.117647 30.117647 0 0 1 21.865411 9.33647l75.896471 79.75153L359.424 799.623529a30.117647 30.117647 0 0 1-18.070588 6.02353H180.705882A90.352941 90.352941 0 0 1 90.352941 715.294118z m963.764706-542.117647a271.058824 271.058824 0 1 0-542.117647 0 271.058824 271.058824 0 0 0 542.117647 0z m-249.735529 141.733647l-0.180706 0.180706a29.997176 29.997176 0 0 1-20.961883 8.673882h-0.361411a30.057412 30.057412 0 0 1-21.082353-8.794353l-120.470589-120.470588a30.117647 30.117647 0 0 1 42.586353-42.646589l69.029647 69.089883V52.705882a30.117647 30.117647 0 1 1 60.235295 0v168.237177l69.029647-69.089883a30.117647 30.117647 0 1 1 42.586353 42.586353l-120.470589 120.470589z"  horiz-adv-x="1084" />
      
      <glyph glyph-name="daoru" unicode="&#59062;" d="M207.992471 480.798118H405.985882a31.563294 31.563294 0 0 0 4.276706-62.885647l-4.276706-0.301177H207.992471c-28.310588 0-50.597647-18.913882-53.308236-42.164706l-0.301176-4.698353-0.843294-201.185882c0-23.612235 20.600471-44.032 48.007529-46.501647l5.601882-0.240941h608.798118c28.310588 0 50.718118 18.913882 53.368471 42.164706l0.301176 4.698353 0.843294 201.185882c0 23.672471-20.600471 44.032-48.067764 46.501647l-5.541647 0.240941H619.098353a31.563294 31.563294 0 0 0-4.276706 62.945882l4.216471 0.240942h197.812706c61.44 0 112.700235-44.935529 116.555294-103.002353L933.647059 370.748235l-0.843294-201.185882c0-58.970353-48.911059-106.134588-109.507765-109.688471l-7.288471-0.240941H207.088941c-61.44 0-112.700235 44.935529-116.555294 103.002353L90.352941 169.743059l0.843294 201.185882c0 59.030588 48.911059 106.194824 109.507765 109.748706l7.288471 0.180706H405.985882 207.992471z m322.379294 288.527058l3.553882-3.011764 165.285647-165.345883a31.563294 31.563294 0 0 0-41.140706-47.766588l-3.493647 3.072-111.917176 112.037647 0.060235-408.937412a31.623529 31.623529 0 0 0-63.186824 0l0.060236 407.973648L368.579765 556.272941a31.623529 31.623529 0 0 0-41.140706-3.011765l-3.553883 3.011765a31.623529 31.623529 0 0 0-3.011764 41.140706l3.011764 3.553882 165.345883 165.285647a31.623529 31.623529 0 0 0 41.140706 3.072z"  horiz-adv-x="1024" />
      
      <glyph glyph-name="daochu" unicode="&#59063;" d="M533.564235 815.465412A29.515294 29.515294 0 0 1 503.567059 844.498824a29.515294 29.515294 0 0 1-29.876706-29.033412v-393.999059L315.452235 574.945882a30.599529 30.599529 0 0 1-42.285176 0 28.370824 28.370824 0 0 1 0-40.96L482.484706 330.872471a30.599529 30.599529 0 0 1 42.285176 0l209.377883 202.992941a28.370824 28.370824 0 0 1 0 41.020235 30.599529 30.599529 0 0 1-42.285177 0L533.564235 421.466353V815.465412z m382.85553-255.819294c-2.710588 13.552941-15.661176 23.792941-31.322353 23.792941-17.528471 0-31.744-13.010824-31.744-29.033412v-347.979294l-0.481883-8.432941c-4.577882-44.092235-45.357176-78.607059-94.930823-78.607059H249.374118l-9.216 0.421647c-48.368941 4.216471-86.136471 41.381647-86.136471 86.618353V554.405647l-0.542118 5.240471c-2.710588 13.552941-15.661176 23.792941-31.322353 23.792941-17.468235 0-31.744-13.010824-31.744-29.033412v-347.979294l0.361412-9.577412c5.360941-75.595294 74.330353-135.469176 158.59953-135.469176h508.626823l10.480941 0.301176c82.883765 4.939294 148.48 67.824941 148.48 144.745412V554.405647l-0.481882 5.240471z"  horiz-adv-x="1024" />
      
      <glyph glyph-name="jihuo" unicode="&#59064;" d="M712.282353 715.294118A137.035294 137.035294 0 0 0 849.317647 578.258824v-243.350589a272.926118 272.926118 0 0 1-63.247059 29.876706V483.388235H153.6v-390.023529c0-40.779294 33.008941-73.788235 73.788235-73.788235h213.473883c7.288471-22.467765 17.408-43.730824 29.876706-63.247059h-243.350589A137.035294 137.035294 0 0 0 90.352941 93.364706v484.894118A137.035294 137.035294 0 0 0 227.388235 715.294118h484.894118z m0-63.247059h-484.894118c-40.779294 0-73.788235-33.008941-73.788235-73.788235V546.635294h632.470588v31.62353c0 40.779294-33.069176 73.788235-73.788235 73.788235zM933.647059 103.905882a231.905882 231.905882 0 1 0-463.811765 0 231.905882 231.905882 0 0 0 463.811765 0z m-90.473412 99.267765a21.082353 21.082353 0 0 1-29.816471 0l-153.780705-153.780706-69.451295 69.391059a21.082353 21.082353 0 1 1-29.756235-29.816471l84.329412-84.329411a21.082353 21.082353 0 0 1 29.816471 0l168.658823 168.658823a21.082353 21.082353 0 0 1 0 29.816471z"  horiz-adv-x="1024" />
      
      <glyph glyph-name="tingyong1" unicode="&#59065;" d="M459.956706-1.927529a436.224 436.224 0 0 0-234.255059 67.824941 407.070118 407.070118 0 0 0-155.286588 180.585412 385.264941 385.264941 0 0 0-23.973647 232.448 396.950588 396.950588 0 0 0 115.410823 206.004705A428.272941 428.272941 0 0 0 377.675294 795.045647a440.500706 440.500706 0 0 0 243.59153-22.889412 418.032941 418.032941 0 0 0 189.259294-148.178823 389.360941 389.360941 0 0 0 71.077647-223.533177c0-106.736941-44.453647-209.016471-123.482353-284.491294-79.149176-75.474824-186.368-117.880471-298.164706-117.88047z m0 753.543529a380.687059 380.687059 0 0 1-204.438588-59.211294 355.267765 355.267765 0 0 1-135.529412-157.57553 336.233412 336.233412 0 0 1-20.961882-202.932705 346.473412 346.473412 0 0 1 100.713411-179.802353 373.76 373.76 0 0 1 188.416-96.075294 384.421647 384.421647 0 0 1 212.630589 19.998117 364.784941 364.784941 0 0 1 165.165176 129.325177 339.787294 339.787294 0 0 1 62.042353 195.102117c0 93.123765-38.791529 182.452706-107.821177 248.289883a377.193412 377.193412 0 0 1-260.21647 102.821647zM693.308235 374.844235H226.605176a27.467294 27.467294 0 0 0-18.974117 7.469177 24.997647 24.997647 0 0 0-7.830588 18.070588c0 6.806588 2.831059 13.312 7.830588 18.130824a27.467294 27.467294 0 0 0 18.974117 7.529411h466.703059c7.168 0 13.974588-2.710588 18.974118-7.529411 5.059765-4.818824 7.830588-11.324235 7.830588-18.070589 0-6.806588-2.770824-13.312-7.830588-18.070588a27.467294 27.467294 0 0 0-18.974118-7.529412z"  horiz-adv-x="1024" />
      
      <glyph glyph-name="tongbu" unicode="&#59066;" d="M627.049412 766.915765L861.364706 590.968471c13.854118-10.420706 15.179294-26.744471 3.794823-38.249412l-3.734588-3.252706L627.049412 373.037176a48.790588 48.790588 0 0 0-55.296 0c-13.914353 10.420706-15.239529 26.684235-3.855059 38.189177l3.794823 3.312941 167.755295 126.192941H129.445647c-19.757176 0-36.141176 11.023059-38.731294 25.298824L90.352941 570.127059c0 14.878118 14.697412 27.105882 33.792 29.093647l5.300706 0.301176h610.123294L571.632941 725.353412c-13.854118 10.480941-15.119059 26.804706-3.794823 38.309647l3.794823 3.252706a49.212235 49.212235 0 0 0 50.959059 2.831059l4.336941-2.831059 234.435765-175.947294L627.049412 766.915765z m246.000941-564.946824l0.361412-3.975529c0-14.878118-14.697412-27.105882-33.792-29.093647l-5.300706-0.301177-610.002824 0.060236 167.996236-126.072471c13.854118-10.420706 15.179294-26.744471 3.794823-38.189177l-3.794823-3.312941a49.212235 49.212235 0 0 0-50.898824-2.891294l-4.397176 2.891294L102.4 177.091765c-13.854118 10.420706-15.179294 26.744471-3.794824 38.249411l3.794824 3.312942 234.676706 176.308706a48.790588 48.790588 0 0 0 55.296 0c13.854118-10.420706 15.179294-26.684235 3.794823-38.189177l-3.794823-3.312941L224.557176 227.388235H834.258824c19.757176 0 36.141176-11.083294 38.731294-25.419294l0.361411-3.975529-0.361411 3.975529z"  horiz-adv-x="1024" />
      
      <glyph glyph-name="chongzhi" unicode="&#59067;" d="M521.6 67.776h-19.52c-37.12 0-67.2-29.504-67.2-65.92h-33.536a33.28 33.28 0 0 0-33.6 32.96v39.68a33.152 33.152 0 0 1-30.144 32.896 194.048 194.048 0 0 0-31.168 9.408 212.48 212.48 0 0 0-71.488 46.592c-29.696 29.568-47.936 68.608-57.6 95.68a94.976 94.976 0 0 1-63.232 60.032 20.288 20.288 0 0 0-14.976 19.456v52.288a19.2 19.2 0 0 0 14.08 18.368c32.576 9.152 54.4 35.008 63.552 62.272 7.488 22.4 20.864 51.136 42.496 72.64 20.992 20.928 44.288 36.928 62.592 47.744a328.64 328.64 0 0 0 28.096 14.784l1.408 0.64 0.32 0.128a32.896 32.896 0 0 1 20.288 30.208V747.968c14.08-11.712 29.952-23.808 46.976-34.688 21.312-13.696 46.08-26.752 72.192-33.6 7.616 21.568 18.048 42.112 31.104 61.12H481.92c-18.752 1.92-41.664 11.84-66.176 27.584a469.824 469.824 0 0 0-63.168 49.92 52.8 52.8 0 0 1-55.424 9.856 50.048 50.048 0 0 1-32.32-46.4v-123.648c-5.12-2.752-11.072-6.016-17.536-9.856a389.76 389.76 0 0 1-75.776-57.856c-32-31.808-49.408-71.424-58.496-98.24-3.648-11.008-11.2-17.664-18.176-19.584A85.248 85.248 0 0 1 32 390.848v-52.288c0-38.528 26.112-72.32 63.872-82.88 7.104-1.92 14.464-8.32 18.112-18.56 11.136-30.976 33.408-80.512 73.216-120a279.872 279.872 0 0 1 113.408-68.224v-14.08c0-54.592 45.12-98.816 100.736-98.816h33.6c37.056 0 67.136 29.44 67.136 65.92h58.88a262.144 262.144 0 0 0-39.36 65.856zM770.688 430.08c13.44 0 26.688-0.96 39.616-2.816 6.848 2.56 13.44 6.208 19.52 10.88a195.392 195.392 0 0 1 61.12 230.784c-42.56 100.864-160.384 148.736-263.232 106.88a197.248 197.248 0 0 1-123.008-205.504c4.16-34.752 32.512-60.16 65.408-73.6l160.448-65.152c2.88-1.152 5.824-2.24 8.768-3.2 10.24 1.152 20.736 1.728 31.36 1.728zM653.44 715.008c68.48 27.84 147.072-4.096 175.488-71.296 23.488-55.68 5.248-118.208-40.704-153.792-1.024-0.832-3.2-2.176-8.64-2.368a58.816 58.816 0 0 0-23.296 4.864L595.84 557.632a57.92 57.92 0 0 0-20.032 12.736c-3.648 3.84-4.224 6.4-4.416 7.616a131.52 131.52 0 0 0 82.048 136.96zM903.168 415.424c0.64-6.592 1.152-13.44 1.472-20.416 24.704-13.952 46.912-31.68 65.856-52.288 1.088 11.776 1.664 24.064 1.664 36.864 0 42.816-6.272 81.152-18.112 115.392a263.616 263.616 0 0 0-50.88-79.552zM350.976 430.08a49.92 49.92 0 0 1 50.368 49.408 49.92 49.92 0 0 1-50.368 49.408 49.92 49.92 0 0 1-50.368-49.408 49.92 49.92 0 0 1 50.368-49.408zM740.096 320h55.808c4.928 0 7.424-2.56 7.424-7.808v-115.008h117.248c4.928 0 7.424-2.624 7.424-7.872v-58.624c0-5.248-2.496-7.872-7.424-7.872h-117.248v-115.008c0-5.184-2.496-7.808-7.424-7.808h-55.808c-4.992 0-7.488 2.56-7.488 7.808V122.88H608c-4.992 0-7.424 2.624-7.424 7.872v58.624c0 5.248 2.432 7.872 7.424 7.872h124.608V312.192c0 5.184 2.56 7.808 7.488 7.808z"  horiz-adv-x="1088" />
      
      <glyph glyph-name="tingyong" unicode="&#59061;" d="M459.956706-1.927529a436.224 436.224 0 0 0-234.255059 67.824941 407.070118 407.070118 0 0 0-155.286588 180.585412 385.264941 385.264941 0 0 0-23.973647 232.448 396.950588 396.950588 0 0 0 115.410823 206.004705A428.272941 428.272941 0 0 0 377.675294 795.045647a440.500706 440.500706 0 0 0 243.59153-22.889412 418.032941 418.032941 0 0 0 189.259294-148.178823 389.360941 389.360941 0 0 0 71.077647-223.533177c0-106.736941-44.453647-209.016471-123.482353-284.491294-79.149176-75.474824-186.368-117.880471-298.164706-117.88047z m0 753.543529a380.687059 380.687059 0 0 1-204.438588-59.211294 355.267765 355.267765 0 0 1-135.529412-157.57553 336.233412 336.233412 0 0 1-20.961882-202.932705 346.473412 346.473412 0 0 1 100.713411-179.802353 373.76 373.76 0 0 1 188.416-96.075294 384.421647 384.421647 0 0 1 212.630589 19.998117 364.784941 364.784941 0 0 1 165.165176 129.325177 339.787294 339.787294 0 0 1 62.042353 195.102117c0 93.123765-38.791529 182.452706-107.821177 248.289883a377.193412 377.193412 0 0 1-260.21647 102.821647zM693.308235 374.844235H226.605176a27.467294 27.467294 0 0 0-18.974117 7.469177 24.997647 24.997647 0 0 0-7.830588 18.070588c0 6.806588 2.831059 13.312 7.830588 18.130824a27.467294 27.467294 0 0 0 18.974117 7.529411h466.703059c7.168 0 13.974588-2.710588 18.974118-7.529411 5.059765-4.818824 7.830588-11.324235 7.830588-18.070589 0-6.806588-2.770824-13.312-7.830588-18.070588a27.467294 27.467294 0 0 0-18.974118-7.529412z"  horiz-adv-x="1024" />
      
      <glyph glyph-name="guanji_huaban" unicode="&#58947;" d="M512-48.61c-238.22 0-432 193.8-432 432 0 174 103.56 330.25 263.84 398.03 16.28 6.89 35.06-0.73 41.94-17 6.88-16.28-0.72-35.06-17-41.94C232.22 664.73 144 531.62 144 383.39c0-202.92 165.09-368 368-368s368 165.08 368 368c0 148.95-88.81 282.3-226.25 339.7-16.31 6.81-24 25.56-17.19 41.86 6.81 16.33 25.59 24 41.88 17.2C839.75 714.75 944 558.23 944 383.39c0-238.2-193.78-432-432-432zM512 256c-17.69 0-32 14.33-32 32V800c0 17.67 14.31 32 32 32s32-14.33 32-32v-512c0-17.67-14.31-32-32-32z"  horiz-adv-x="1024" />
      
      <glyph glyph-name="wulianka" unicode="&#59057;" d="M793.79845 729.302326v-762.046512h-571.534884V499.291287l230.011039 230.011039H793.79845z m0 95.255814h-381.023256L127.007752 538.790698v-666.790698h762.046512v952.55814h-95.255814z m-428.651163-238.139535h95.255814v-190.511628h-95.255814v190.511628z m142.883721 0h95.255814v-190.511628H508.031008v190.511628z m142.883721 0h95.255814v-190.511628h-95.255814v190.511628z"  horiz-adv-x="1024" />
      
      <glyph glyph-name="pingtaiduijie" unicode="&#59058;" d="M435.456 694.848H64V-36.48h292.16V-128h333.952v91.456h292.16v289.536a347.904 347.904 0 0 0-83.52-65.6v-132.48H147.456v548.48H405.76c6.336 32.256 16.448 62.912 29.76 91.52zM1024 523.456c0-170.432-126.08-308.608-281.728-308.608-155.584 0-281.728 138.176-281.728 308.608C460.544 693.76 586.624 832 742.272 832 897.856 832 1024 693.824 1024 523.456z m-134.4-24.32l0.128 0.192a37.12 37.12 0 0 1 9.024 23.872v0.448a37.12 37.12 0 0 1-2.368 12.928 34.56 34.56 0 0 1-6.784 11.072L764.416 684.8a29.44 29.44 0 0 1-44.288 0 36.608 36.608 0 0 1 0-48.448l71.744-78.656H617.088c-17.28 0-31.296-15.36-31.296-34.24 0-18.944 14.08-34.304 31.36-34.304h174.848l-71.808-78.592a36.608 36.608 0 0 1 0-48.512c12.224-13.44 32-13.44 44.288 0L889.6 499.136z"  horiz-adv-x="1024" />
      
      <glyph glyph-name="wuliankaguanli" unicode="&#59059;" d="M704.192 447.808V736H343.552L100.608 504.192V-32h437.952A312.32 312.32 0 0 1 704.64-128H0V544L301.824 832h503.04v-378.112a328.064 328.064 0 0 1-100.672-6.08zM653.888 432.32V592H553.28v-192h40.128c18.752 12.8 39.04 23.68 60.48 32.32zM352.128 592H251.52v-192h100.608v192zM503.04 592H402.432v-192H503.04v192zM563.328 242.112l-21.632 20.096c7.808 17.856 17.6 34.688 29.12 50.176l23.872-6.784c66.56-19.008 136.128 19.2 152.128 83.456l6.976 27.776a269.44 269.44 0 0 0 58.112 0l6.976-27.776c16-64.256 85.632-102.464 152.128-83.456l23.872 6.784c11.52-15.488 21.312-32.32 29.12-50.176l-21.632-20.096a111.04 111.04 0 0 1 0-164.352l21.632-20.032a256.96 256.96 0 0 0-29.12-50.176l-23.872 6.784c-66.56 19.008-136.128-19.2-152.128-83.456l-6.976-27.84a270.72 270.72 0 0 0-58.112 0l-6.976 27.84c-16 64.256-85.632 102.4-152.128 83.456l-23.872-6.784a257.024 257.024 0 0 0-29.12 50.176l21.632 20.032a111.04 111.04 0 0 1 0 164.352z m159.168-82.176c0-31.68 27.008-57.408 60.352-57.408 33.28 0 60.352 25.728 60.352 57.408 0 31.744-27.008 57.472-60.352 57.472-33.28 0-60.352-25.728-60.352-57.472z"  horiz-adv-x="1024" />
      
      <glyph glyph-name="chongzhiguanli" unicode="&#59060;" d="M934.881419 364.039485a348.797201 348.797201 0 0 1-1.663376 21.815819c23.351243 25.142572 41.776334 54.059728 54.50756 85.216044 12.731226-36.658253 19.384731-77.730851 19.384731-123.601649 0-13.690866-0.63976-26.869924-1.791329-39.473198a287.956016 287.956016 0 0 1-70.501562 56.042984zM833.799325 398.522554a295.505186 295.505186 0 0 1-76.003498 1.151568 155.589654 155.589654 0 0 0-9.404474 3.454705L576.551793 472.926653c-35.250781 14.330626-65.639385 41.584406-70.05373 78.754467a211.248782 211.248782 0 0 0 131.790579 220.205423c110.038735 44.783206 236.263401-6.525553 281.878295-114.517057a209.201549 209.201549 0 0 0-65.511433-247.139322c-6.461577-5.054105-13.498938-8.892665-20.920155-11.70761z m19.896539 231.849057c-30.388604 71.97301-114.517056 106.200175-187.897538 76.323378A140.875172 140.875172 0 0 1 577.895289 559.934025c0.191928-1.27952 0.831688-3.966513 4.734225-8.124953 4.286393-4.542297 11.515682-9.596401 21.431963-13.690866l171.83956-69.73385a63.016369 63.016369 0 0 1 24.950644-5.246033c5.821817 0.191928 8.188929 1.663376 9.276521 2.495064a139.4677 139.4677 0 0 1 43.567662 164.738224zM524.539298 13.514932H503.683119c-39.665126 0-71.909034-31.604148-71.909034-70.565538h-35.954517a35.634637 35.634637 0 0 0-35.954517 35.250781v42.544046a35.506685 35.506685 0 0 1-32.307885 35.186805 206.962389 206.962389 0 0 0-33.395477 10.108209 227.690616 227.690616 0 0 0-76.515306 49.901287c-31.860052 31.668124-51.372735 73.508434-61.736849 102.489567a101.721854 101.721854 0 0 1-67.686618 64.295889 21.751843 21.751843 0 0 0-15.994002 20.792203v56.042984a20.472323 20.472323 0 0 0 15.098338 19.640634c34.802949 9.788329 58.154192 37.489941 67.942522 66.663002 8.060977 23.991003 22.391603 54.82744 45.550918 77.858803 22.519555 22.391603 47.470199 39.537174 67.046858 51.116831a351.932025 351.932025 0 0 0 30.068724 15.802074l1.535424 0.703736 0.31988 0.127952a35.250781 35.250781 0 0 1 21.751843 32.435837V742.009746c15.034362-12.475322 32.115957-25.462452 50.285143-37.106085 22.839435-14.714482 49.453455-28.661252 77.283019-36.018493 8.188929 23.095339 19.384731 45.103086 33.395477 65.447457H481.931276c-20.024491 2.047232-44.655254 12.731226-70.885418 29.556916a503.235287 503.235287 0 0 0-67.622642 53.419968 56.554792 56.554792 0 0 1-59.369736 10.620017 53.611896 53.611896 0 0 1-34.547045-49.709359v-132.430338a417.379483 417.379483 0 0 1-99.994502-72.484818c-34.291141-34.099213-52.972135-76.515307-62.696489-105.240535-3.902537-11.771586-11.963514-18.936899-19.384731-20.984131A91.293765 91.293765 0 0 1 0.191928 359.561165v-56.042984c0-41.264526 27.957516-77.474947 68.45433-88.734725 7.613145-2.111208 15.418218-8.956641 19.320754-19.832563 11.963514-33.267525 35.826565-86.23966 78.434587-128.591778a299.727602 299.727602 0 0 1 121.490441-73.060602v-15.098338c0-58.410096 48.301887-105.816319 107.863552-105.816319h35.954517c39.729102 0 71.909034 31.604148 71.909034 70.565538h63.144321a280.790703 280.790703 0 0 0-42.224166 70.565538zM395.755592 454.501562a53.419968 53.419968 0 0 0-53.931776-52.90816 53.419968 53.419968 0 0 0-53.931776 52.90816c0 29.237036 24.118955 52.908159 53.931776 52.908159 29.81282 0 53.931776-23.671123 53.931776-52.908159zM595.616644 197.829814l-20.024491 19.192803c7.229289 17.081594 16.377858 33.139573 27.061852 47.982006l22.199675-6.525553c61.800825-18.169187 126.48057 18.361115 141.38698 79.778084l6.397601 26.550043a243.81257 243.81257 0 0 0 54.059727 0l6.397601-26.550043c14.970386-61.416969 79.650131-97.883294 141.38698-79.778084l22.263651 6.525553c10.683994-14.842434 19.832563-30.900412 27.061852-47.982006l-20.088467-19.192803a108.119455 108.119455 0 0 1 0-156.997126l20.088467-19.192803a247.203299 247.203299 0 0 0-27.061852-47.982007l-22.199675 6.525553c-61.800825 18.169187-126.48057-18.297139-141.38698-79.714107l-6.397601-26.61402a243.17281 243.17281 0 0 0-54.059727 0l-6.461577 26.61402c-14.90641 61.416969-79.586155 97.883294-141.38698 79.714107l-22.199675-6.461577a247.523179 247.523179 0 0 0-27.061852 47.918031l20.024491 19.192803a108.119455 108.119455 0 0 1 0 156.997126z m147.976509-78.498563c0-30.324628 25.142572-54.891416 56.106959-54.891416a55.531176 55.531176 0 0 1 56.10696 54.891416 55.4672 55.4672 0 0 1-56.10696 54.891416 55.4672 55.4672 0 0 1-56.106959-54.891416z"  horiz-adv-x="1024" />
      
      <glyph glyph-name="bangding" unicode="&#58901;" d="M722.7 241.2l-45.2 45.2 140.1 140.1C890 499 890 617 817.6 689.4c-72.5 72.5-190.4 72.5-262.9 0l-140.1-140-45.2 45.2 140.1 140.1c97.4 97.5 256 97.4 353.4 0 97.4-97.4 97.4-256 0-353.4L722.7 241.2zM338.1-39.9c-66.8 0-129.5 26-176.7 73.2-97.4 97.4-97.4 256 0 353.4l140.1 140.1 45.2-45.2-140.1-140.2c-72.5-72.5-72.5-190.4 0-262.9 35.1-35.1 81.8-54.5 131.5-54.5s96.3 19.3 131.4 54.5l140.1 140.1 45.2-45.2-140-140.1c-47.2-47.2-110-73.2-176.7-73.2zM330.99 248.121l316.78 316.781 45.255-45.254-316.781-316.78z"  horiz-adv-x="1024" />
      
      <glyph glyph-name="xieyimoban" unicode="&#59186;" d="M864 800v-864H160V800c0 17.673 14.327 32 32 32h640c17.673 0 32-14.327 32-32z m-64-40a8 8 0 0 1-8 8H232a8 8 0 0 1-8-8v-478a8 8 0 0 1 8-8h151.004c0.537-70.784 58.085-129 128.996-129s128.459 58.216 128.996 129H800V760z m0-752V202a8 8 0 0 1-8 8h-97.865c-26.4-75.135-97.977-129-182.135-129-84.158 0-155.735 53.865-182.135 129H232a8 8 0 0 1-8-8v-194a8 8 0 0 1 8-8h560a8 8 0 0 1 8 8zM330 650h364c17.673 0 32-14.327 32-32 0-17.673-14.327-32-32-32H330c-17.673 0-32 14.327-32 32 0 17.673 14.327 32 32 32z m0-184h364c17.673 0 32-14.327 32-32 0-17.673-14.327-32-32-32H330c-17.673 0-32 14.327-32 32 0 17.673 14.327 32 32 32z"  horiz-adv-x="1024" />
      
      <glyph glyph-name="yingyongguanli" unicode="&#59056;" d="M625.102773 760.89l17.854594-17.342634a99.128194 99.128194 0 0 0 0-142.068812l-17.854594-17.342635c6.399496-15.48678 14.526856-30.013636 24.062105-43.388583l19.646453 5.887537a99.640153 99.640153 0 0 0 125.494117-72.186316l5.759547-23.99811a212.271284 212.271284 0 0 1 47.99622 0l5.695552 23.99811a99.640153 99.640153 0 0 0 125.430122 72.186316l19.710448-5.887537c9.535249 13.438942 17.598614 27.901803 24.062105 43.388583l-17.790599 17.27864a99.128194 99.128194 0 0 0 0 142.068812l17.790599 17.406629a224.942286 224.942286 0 0 1-24.062105 43.388583l-19.646453-5.887536A99.640153 99.640153 0 0 0 853.692772 870.513367L847.933225 894.639467a212.335279 212.335279 0 0 1-47.99622 0l-5.631557-24.062105a99.640153 99.640153 0 0 0-125.558112-72.12232l-19.646453 5.887536c-9.535249-13.438942-17.598614-27.965798-24.062105-43.388583z m198.960332-138.03713a49.724084 49.724084 0 1 0-0.191985 99.448169 49.724084 49.724084 0 0 0 0.191985-99.448169zM35.837178 888.431956h419.80694c12.159042 0 22.142256-9.919219 22.142256-22.078261v-419.806941c0-12.159042-9.919219-22.142256-22.078261-22.142256H35.837178a22.142256 22.142256 0 0 0-22.142256 22.078261V866.353695C13.758916 878.512737 23.678135 888.431956 35.837178 888.431956zM107.639523 518.3491H383.969762V794.551349H107.639523V518.3491zM35.837178 335.963463h419.80694c12.159042 0 22.142256-9.855224 22.142256-22.014266v-419.870936c0-12.159042-9.919219-22.078261-22.078261-22.078261H35.837178a22.142256 22.142256 0 0 0-22.142256 22.078261v419.806941c0 12.159042 9.919219 22.142256 22.078261 22.142256z m71.802345-370.082856H383.969762v276.202249H107.639523v-276.202249zM588.305671 335.963463h419.80694c12.159042 0 22.078261-9.855224 22.078261-22.014266v-419.870936c0-12.159042-9.919219-22.078261-22.078261-22.078261h-419.80694a22.142256 22.142256 0 0 0-22.142256 22.078261v419.806941c0 12.159042 9.983214 22.142256 22.142256 22.142256z m71.802345-370.082856h276.20225v276.202249h-276.20225v-276.202249z"  horiz-adv-x="1087" />
      
      <glyph glyph-name="jinggao" unicode="&#58912;" d="M918.795922 539.145313c-21.798121 51.476314-52.909055 97.631021-92.514092 137.236058-39.605037 39.605037-85.862083 70.818309-137.236058 92.514092C635.727364 791.409954 579.236458 802.871877 520.903458 802.871877s-114.823906-11.461923-168.142315-33.976414c-51.476314-21.798121-97.631021-52.909055-137.236058-92.514092s-70.818309-85.862083-92.514092-137.236058C100.496502 485.826904 89.034579 429.335998 89.034579 371.002998s11.461923-114.823906 33.976414-168.142315c21.798121-51.476314 52.909055-97.631021 92.514092-137.236058 39.605037-39.605037 85.862083-70.818309 137.236058-92.514092 53.21607-22.514491 109.809314-33.976414 168.142315-33.976414s114.823906 11.461923 168.142315 33.976414c51.476314 21.798121 97.631021 52.909055 137.236058 92.514092 39.605037 39.605037 70.818309 85.862083 92.514092 137.236058 22.514491 53.21607 33.976414 109.809314 33.976414 168.142315S941.310414 485.826904 918.795922 539.145313zM520.903458-15.836898c-213.273636 0-386.839896 173.56626-386.839896 386.839896s173.56626 386.839896 386.839896 386.839896 386.839896-173.56626 386.839896-386.839896S734.177094-15.836898 520.903458-15.836898zM520.903458 258.635219c12.38297 0 22.514491 10.131521 22.514491 22.514491L543.417949 551.425944c0 12.38297-10.131521 22.514491-22.514491 22.514491s-22.514491-10.131521-22.514491-22.514491l0-270.378573C498.388967 268.76674 508.520488 258.635219 520.903458 258.635219zM520.903458 190.068359m-30.701579 0a30 30 0 1 0 61.403158 0 30 30 0 1 0-61.403158 0Z"  horiz-adv-x="1024" />
      
      <glyph glyph-name="tishi" unicode="&#59578;" d="M544 106.666667h105.173333a10.666667 10.666667 0 0 1 10.666667 10.666666v0.362667l-3.232 94.304a32 32 0 0 0 14.293333 27.765333C750.933333 292.810667 800 382.208 800 480c0 159.061333-128.938667 288-288 288S224 639.061333 224 480c0-97.813333 49.098667-187.232 129.141333-240.266667a32 32 0 0 0 14.314667-25.578666l3.338667-97.184a10.666667 10.666667 0 0 1 10.666666-10.304H480V323.306667l-76.64 81.429333a32 32 0 0 0 46.613333 43.861333l63.36-67.328 72.693334 68.661334a32 32 0 0 0 43.946666-46.528L544 322.208V106.666667z m320 373.333333a351.530667 351.530667 0 0 0-142.826667-283.146667l2.634667-76.96A74.666667 74.666667 0 0 0 649.173333 42.666667h-267.733333a74.666667 74.666667 0 0 0-74.624 72.106666l-2.784 81.194667A351.541333 351.541333 0 0 0 160 480C160 674.4 317.6 832 512 832s352-157.6 352-352zM416-64a32 32 0 0 0 0 64h192a32 32 0 0 0 0-64H416z"  horiz-adv-x="1024" />
      
      <glyph glyph-name="chakanAPI" unicode="&#59055;" d="M559.282087 205.913043l-27.781565 90.824348h-138.907826l-27.781566-90.824348H277.726609l134.633739 383.065044h98.838261l135.168-383.065044h-87.084522z m-74.796522 247.362783c-1.78087 6.054957-4.096 13.712696-6.945391 22.973217-2.849391 9.260522-5.698783 18.69913-8.548174 28.315827a615.913739 615.913739 0 0 0-6.945391 25.11026c-1.78087-7.123478-4.274087-16.027826-7.479652-26.713043-2.849391-10.329043-5.698783-20.301913-8.548174-29.918609-2.493217-9.260522-4.452174-15.849739-5.87687-19.767652l-27.247304-88.687304h99.372521l-27.781565 88.687304zM795.158261 587.375304c49.107478 0 84.902957-10.685217 107.341913-32.055652 22.79513-21.014261 34.192696-50.042435 34.192696-87.084522 0-16.740174-2.493217-32.768-7.479653-48.083478-4.986435-14.959304-13.356522-28.493913-25.11026-40.603826-11.397565-11.753739-26.534957-21.014261-45.412174-27.781565-18.877217-6.767304-42.206609-10.150957-69.988174-10.150957h-34.726957V205.913043h-80.673391V587.375304h121.811478z m-4.318609-66.248347h-36.864v-113.263305h26.713044c15.315478 0 28.493913 1.958957 39.535304 5.87687 11.041391 3.917913 19.589565 10.150957 25.644522 18.69913 6.054957 8.548174 9.082435 19.589565 9.082435 33.124174 0 18.877217-5.164522 32.768-15.493566 41.672348-10.329043 9.260522-26.534957 13.890783-48.617739 13.890783zM1130.095304 205.913043h-173.634782v45.946435l46.480695 21.370435V520.058435l-46.480695 21.370435V587.375304h173.634782v-45.946434l-46.480695-21.370435v-246.828522l46.480695-21.370435V205.913043zM711.94713 896c339.522783 0 572.594087-263.479652 704.333913-481.413565 10.150957-15.137391 10.150957-30.363826 5.075479-45.590261-116.513391-283.737043-415.521391-486.444522-709.409392-486.444522-339.522783 0-567.518609 263.479652-704.333913 481.369044a46.035478 46.035478 0 0 0 0 50.710261C144.428522 632.520348 372.424348 896 711.902609 896zM114.020174 389.253565c121.58887-192.556522 319.22087-405.370435 597.926956-405.370435 243.222261 0 496.595478 172.29913 603.002435 400.339479-121.633391 192.556522-319.22087 410.445913-603.002435 410.445913-278.706087 0-476.338087-212.813913-597.926956-405.414957z"  horiz-adv-x="1424" />
      
      <glyph glyph-name="fuquan" unicode="&#59017;" d="M711.960285 199.911396a220.445658 220.445658 0 0 0 104.638889 26.239721h0.127998c3.839959 0 5.66394 4.639951 2.84797 7.199924-39.455581 35.391624-84.511102 63.99932-133.342583 84.607101l-0.767992 0.319996a7.55192 7.55192 0 0 0-0.767992 0.319997 318.940611 318.940611 0 0 1 131.7746 258.557253C816.471175 753.281516 674.040688 896 498.266556 896c-175.742133 0-318.07662-142.718484-318.076621-318.844612a318.716614 318.716614 0 0 1 131.902599-258.557253l-0.767992-0.319997-0.767992-0.319996a479.09891 479.09891 0 0 1-153.37437-103.646899 480.090899 480.090899 0 0 1-103.358902-153.630368A480.346896 480.346896 0 0 1 15.99968-116.885238a10.303891 10.303891 0 0 1 10.303891-10.559888h76.991181c5.535941 0 10.175892 4.543952 10.303891 10.047893a383.611924 383.611924 0 0 0 112.638803 262.685209 381.659945 381.659945 0 0 0 272.157109 112.9908c72.895225 0 142.846482-20.159786 203.133841-57.983384a10.431889 10.431889 0 0 1 10.431889-0.383996z m-213.56573 156.094341c-58.879374 0-114.302786 23.039755-156.094342 64.799312a220.125661 220.125661 0 0 0-64.639313 156.350339c0 59.007373 23.007756 114.558783 64.639313 156.318339a218.877674 218.877674 0 0 0 156.094342 64.799311c59.007373 0 114.302786-23.007756 156.094341-64.799311a220.061662 220.061662 0 0 0 64.639313-156.318339c0-59.039373-22.975756-114.558783-64.639313-156.350339a219.32567 219.32567 0 0 0-156.094341-64.799312zM926.710004 192.00748h72.927225c6.975926 0 10.847885-8.319912 6.55993-13.855853l-197.949897-292.988887a32.735652 32.735652 0 0 0-52.479442 0l-129.982619 160.222298c-4.287954 5.63194-0.415996 13.951852 6.55993 13.951852h72.959225c5.023947 0 10.015894-1.183987 14.527846-3.487963 4.543952-2.271976 8.51191-5.599941 11.647876-9.727897l50.463464-55.679408 118.55874 188.349998c6.271933 8.319912 15.96783 13.21586 26.207722 13.21586z"  horiz-adv-x="1024" />
      
      <glyph glyph-name="zhongzhimima" unicode="&#59035;" d="M924.06416 699.232l68.224 53.76a9.728 9.728 0 0 0 15.712-7.552l-0.96-220.512a9.728 9.728 0 0 0-11.968-9.376l-212.416 52.416a9.792 9.792 0 0 0-3.648 17.184l72.832 57.28a418.88 418.88 0 0 1-33.6 38.272 412.896 412.896 0 0 1-132.224 89.984 410.208 410.208 0 0 1-161.856 32.896c-56.128 0-110.688-11.072-161.856-32.896a416.896 416.896 0 0 1-132.192-89.984 420.032 420.032 0 0 1-121.792-296.608 420 420 0 0 1 121.792-296.576 412.96 412.96 0 0 1 132.192-89.952c51.2-21.824 105.6-32.928 161.856-32.928 56.128 0 110.688 11.104 161.856 32.928a416.864 416.864 0 0 1 132.192 89.952 417.28 417.28 0 0 1 96.288 151.552 9.632 9.632 0 0 0 12.224 5.824l68.576-23.744a9.792 9.792 0 0 0 5.92-12.576C930.11216 12.192 743.20016-128 523.90416-128 243.20016-128 15.68016 101.536 16.00016 384.608 16.35216 667.424 243.39216 896 523.90416 896c162.464 0 307.136-76.928 400.16-196.768zM527.93616 278.4a48 48 0 1 1 0 96 48 48 0 0 1 0-96zM304.00016 422.4a96 96 0 0 0 96 96h-0.32v32a128 128 0 1 0 255.904 0v-32h0.32a96 96 0 0 0 95.968-96v-192a96 96 0 0 0-96-96H400.00016A96 96 0 0 0 304.00016 230.4v192z m223.616 192a64 64 0 0 1-64-64v-32h128v32a64 64 0 0 1-64 64zM400.00016 454.4a32 32 0 0 1-32-32v-192a32 32 0 0 1 32-32h255.936a32 32 0 0 1 32 32v192a32 32 0 0 1-32 32h-255.936z"  horiz-adv-x="1024" />
      
      <glyph glyph-name="denggao" unicode="&#59018;" d="M896 896H88.615385A9.846154 9.846154 0 0 1 78.769231 886.153846v-73.885538c0-5.356308 4.411077-9.846154 9.846154-9.846154h807.384615a9.846154 9.846154 0 0 1 9.846154 9.846154V886.153846A9.846154 9.846154 0 0 1 896 896z m0-891.116308H88.615385a9.846154 9.846154 0 0 1-9.846154-9.767384v-73.885539c0-5.435077 4.411077-9.846154 9.846154-9.846154h807.384615a9.846154 9.846154 0 0 1 9.846154 9.846154v73.885539a9.846154 9.846154 0 0 1-9.846154 9.767384z m-275.062154 578.166154a8.900923 8.900923 0 0 0-7.010461-14.414769h-77.272616v-329.885539h82.077539c7.483077 0 11.579077-8.664615 7.010461-14.414769l-124.061538-156.908307a8.822154 8.822154 0 0 0-13.942154 0L363.677538 224.334769a8.900923 8.900923 0 0 0 7.089231 14.414769h77.193846V568.635077H366.040615a8.900923 8.900923 0 0 0-7.08923 14.414769L483.091692 740.036923a8.822154 8.822154 0 0 0 13.863385 0l124.061538-156.987077z"  horiz-adv-x="1024" />
      
      <glyph glyph-name="gengduo" unicode="&#59022;" d="M0 448a448 448 0 1 1 896 0 448 448 0 0 1-896 0z m2240 0a448 448 0 1 1 896 0 448 448 0 0 1-896 0z m2688-448a448 448 0 1 0 0 896 448 448 0 0 0 0-896z"  horiz-adv-x="5632" />
      
      <glyph glyph-name="jinyong" unicode="&#59023;" d="M512 896a512 512 0 1 1 0.073143-1024.073143A512 512 0 0 1 512 896z m0-937.179429A425.179429 425.179429 0 0 0 182.272 652.434286l598.089143-598.089143A423.204571 423.204571 0 0 0 512-41.179429z m329.728 156.818286L243.565714 713.728a425.179429 425.179429 0 0 0 598.089143-598.089143z"  horiz-adv-x="1024" />
      
      <glyph glyph-name="fenpingzhanshi1" unicode="&#59024;" d="M397.312 507.431385a46.237538 46.237538 0 0 1-3.938462 65.851077 47.734154 47.734154 0 0 1-66.717538-3.859693l-126.030769-139.894154a46.158769 46.158769 0 0 1 0-61.991384l126.030769-139.972923c17.329231-19.219692 47.261538-20.952615 66.717538-3.859693a46.237538 46.237538 0 0 1 3.938462 65.851077l-56.162462 62.306462h577.378462l-56.083692-62.227692a46.237538 46.237538 0 0 1 3.938461-65.929847 47.734154 47.734154 0 0 1 66.717539 3.938462l126.030769 139.894154 0.630154 0.787692a46.08 46.08 0 0 1-0.787693 61.361231l-125.87323 139.736615a47.734154 47.734154 0 0 1-66.796308 3.938462 46.237538 46.237538 0 0 1-3.938462-65.929846l56.162462-62.227693h-577.378462l56.162462 62.227693zM677.415385 896v-0.157538h472.615384c60.888615 0 110.276923-48.758154 110.276923-108.859077v-777.137231c0-60.100923-49.388308-108.859077-110.276923-108.859077H582.892308v0.157538h-472.615385c-60.888615 0-110.276923 48.758154-110.276923 108.859077V787.140923C0 847.241846 49.388308 896 110.276923 896h567.138462z m472.615384-93.420308h-472.615384v-310.744615H582.892308V802.737231h-472.615385c-8.664615 0-15.753846-7.010462-15.753846-15.596308v-777.137231c0-8.585846 7.089231-15.517538 15.753846-15.517538h472.615385V305.230769h94.523077v-310.902154h472.615384c8.664615 0 15.753846 6.931692 15.753846 15.517539V786.983385a15.675077 15.675077 0 0 1-15.753846 15.596307z"  horiz-adv-x="1260" />
      
      <glyph glyph-name="jiebang" unicode="&#59025;" d="M930.816 802.816a282.331429 282.331429 0 0 1-399.725714 0l-126.537143-126.537143 66.56-66.56 126.610286 126.537143c70.217143 70.217143 188.854857 77.677714 266.459428 0 77.677714-77.750857 70.217143-196.242286 0-266.459429l-126.537143-126.537142 66.706286-66.779429 126.537143 126.537143a282.916571 282.916571 0 0 1-0.073143 399.798857zM426.422857 31.963429c-70.217143-70.217143-188.854857-77.677714-266.459428 0-77.677714 77.750857-70.217143 196.169143 0 266.459428l126.537142 126.537143-66.706285 66.779429-126.537143-126.537143a282.331429 282.331429 0 0 1 0-399.725715 282.477714 282.477714 0 0 1 399.652571 0l126.537143 126.537143-66.56 66.633143-126.464-126.683428zM183.296 779.337143a10.459429 10.459429 0 0 1-14.774857 0l-51.712-51.712a10.459429 10.459429 0 0 1 0-14.774857l724.114286-724.114286a10.459429 10.459429 0 0 1 14.774857 0l51.712 51.712a10.459429 10.459429 0 0 1 0 14.774857l-724.114286 724.114286z"  horiz-adv-x="1024" />
      
      <glyph glyph-name="tiaoshi" unicode="&#59026;" d="M274.24 649.152h64a9.152 9.152 0 0 1 9.152 9.152c0 32.32 6.784 60.8 19.584 83.968 12.096 22.208 29.696 39.808 51.84 51.84 23.36 12.8 51.712 19.584 84.032 19.584h18.304c32.32 0 60.8-6.72 83.968-19.52 22.208-12.16 39.744-29.696 51.84-51.84 12.736-23.36 19.584-51.712 19.584-84.032 0-5.056 4.096-9.152 9.152-9.152h64a9.152 9.152 0 0 1 9.152 9.152c0 45.696-10.048 87.68-29.632 123.52A210.688 210.688 0 0 1 644.672 866.368C608.832 885.952 566.848 896 521.152 896h-18.304c-45.696 0-87.68-10.048-123.52-29.632a210.624 210.624 0 0 1-84.608-84.48C275.2 745.856 265.152 704 265.152 658.24c0-5.056 4.096-9.152 9.088-9.152zM1001.088 384.192H832V498.56a158.784 158.784 0 0 1 158.848 158.848 9.152 9.152 0 0 1-9.152 9.152h-68.608a9.152 9.152 0 0 1-9.088-9.152A72 72 0 0 0 832 585.344H192a72 72 0 0 0-72 72 9.152 9.152 0 0 1-9.152 9.152H42.24a9.152 9.152 0 0 1-9.152-9.152A158.784 158.784 0 0 1 192 498.56v-114.304H22.848a9.152 9.152 0 0 1-9.152-9.152v-64c0-4.992 4.096-9.088 9.152-9.088H192v-109.76c0-7.424 0.192-14.848 0.768-22.016a219.584 219.584 0 0 1-133.376-201.984c0-4.992 4.096-9.152 9.152-9.152h64a9.152 9.152 0 0 1 9.152 9.152c0 50.56 27.328 94.72 68.096 118.528a321.6 321.6 0 0 1 140.8-170.88A318.208 318.208 0 0 1 512-127.808c58.88 0 114.048 15.872 161.472 43.648a321.536 321.536 0 0 1 140.8 170.88 137.088 137.088 0 0 0 67.968-118.528c0-4.992 4.16-9.152 9.152-9.152h64a9.152 9.152 0 0 1 9.152 9.152 219.584 219.584 0 0 1-133.376 201.984 354.56 354.56 0 0 1 0.832 22.016V301.952h169.088a9.152 9.152 0 0 1 9.152 9.088v64a9.152 9.152 0 0 1-9.152 9.152z m-256-192A233.6 233.6 0 0 0 512-40.96a233.6 233.6 0 0 0-233.152 233.152V498.56h466.304v-306.304z"  horiz-adv-x="1024" />
      
      <glyph glyph-name="shangyi" unicode="&#59027;" d="M1004.43136 342.488615L537.408591 880.482462a44.898462 44.898462 0 0 1-67.899077 0L2.880591 342.488615a11.185231 11.185231 0 0 1 8.428307-18.589538H125.366745c6.459077 0 12.603077 2.835692 17.014153 7.719385l307.908924 354.934153v-792.103384c0-6.144 5.041231-11.264 11.18523-11.264h84.440616a11.264 11.264 0 0 1 11.264 11.264V686.552615l307.908923-354.934153a22.291692 22.291692 0 0 1 17.014154-7.719385h113.900307a11.185231 11.185231 0 0 1 8.428308 18.589538z"  horiz-adv-x="1024" />
      
      <glyph glyph-name="lujing" unicode="&#59028;" d="M958.903954 761.929143l-64.365714-50.395429A478.866286 478.866286 0 0 1 516.389669 896 479.670857 479.670857 0 0 1 36.572526 416.548571 479.890286 479.890286 0 0 1 967.461669 251.611429a9.142857 9.142857 0 0 1-5.632 11.776l-64.804572 22.308571a9.142857 9.142857 0 0 1-11.556571-5.485714 390.948571 390.948571 0 0 0-90.989715-142.043429 390.582857 390.582857 0 0 0-277.796571-115.2 390.144 390.144 0 0 0-277.796571 115.126857A391.021714 391.021714 0 0 0 123.758811 416.182857a391.094857 391.094857 0 0 0 115.126858 278.089143 390.582857 390.582857 0 0 0 277.796571 115.2 390.144 390.144 0 0 0 277.869714-115.2c11.264-11.337143 21.942857-23.405714 31.744-35.913143l-68.754285-53.686857a9.142857 9.142857 0 0 1 3.364571-16.091429l200.704-49.225142a9.142857 9.142857 0 0 1 11.337143 8.777142l0.877714 206.774858a9.216 9.216 0 0 1-14.848 7.094857z"  horiz-adv-x="1024" />
      
      <glyph glyph-name="rili" unicode="&#59031;" d="M932.608 758.72h-192V831.872a9.152 9.152 0 0 1-9.152 9.152h-64a9.152 9.152 0 0 1-9.152-9.152v-73.152H365.76V831.872A9.152 9.152 0 0 1 356.608 840.96h-64a9.152 9.152 0 0 1-9.152-9.152v-73.152h-192a36.48 36.48 0 0 1-36.608-36.608v-758.848a36.48 36.48 0 0 1 36.608-36.544h841.152a36.48 36.48 0 0 1 36.544 36.544V722.112a36.48 36.48 0 0 1-36.544 36.608z m-45.76-749.696H137.152V443.264h749.696v-434.24z m-749.696 512V676.416H283.52v-54.848c0-5.056 4.096-9.152 9.152-9.152h64a9.152 9.152 0 0 1 9.152 9.152v54.848h292.544v-54.848c0-5.056 4.096-9.152 9.152-9.152h64a9.152 9.152 0 0 1 9.152 9.152v54.848h146.24v-155.392H137.152z"  horiz-adv-x="1024" />
      
      <glyph glyph-name="shanchu" unicode="&#59032;" d="M338.261333 758.920533h-9.147733c5.051733 0 9.147733 4.096 9.147733 9.147734v-9.147734h347.477334v9.147734c0-4.983467 4.096-9.147733 9.079466-9.147734h-9.079466v-82.261333h82.261333v91.477333c0 40.277333-32.768 73.045333-73.181867 73.045334H329.1136c-40.277333 0-73.1136-32.768-73.1136-73.045334v-91.477333h82.261333V758.920533z m576.034134-82.261333H109.704533a36.522667 36.522667 0 0 1-36.590933-36.590933v-36.522667c0-5.051733 4.096-9.147733 9.147733-9.147733h69.0176l28.2624-597.742934c1.8432-38.912 34.065067-69.700267 73.045334-69.700266h518.826666a73.045333 73.045333 0 0 1 73.045334 69.700266l28.194133 597.742934h69.0176c5.051733 0 9.147733 4.096 9.147733 9.147733V640a36.522667 36.522667 0 0 1-36.522666 36.590933zM762.538667 9.216H261.461333l-27.716266 585.181867h556.578133l-27.648-585.181867z"  horiz-adv-x="1024" />
      
      <glyph glyph-name="renyuan" unicode="&#59033;" d="M872.074707 176.119745a369.14198 369.14198 0 0 1-105.761701 73.872281 244.290512 244.290512 0 0 1 90.840963 190.45883c0 135.676317-113.148929 246.996724-248.825246 244.875639A245.021921 245.021921 0 0 1 457.95109 250.138308a368.483713 368.483713 0 0 1-105.761701-73.945422 364.972951 364.972951 0 0 1-107.297659-249.702936 9.800877 9.800877 0 0 1 9.800877-10.0203h68.606138a9.727736 9.727736 0 0 1 9.800877 9.435173c2.267367 70.946646 31.084871 137.504839 81.625213 187.97204a277.496468 277.496468 0 0 0 197.480354 81.771495c74.603689 0 144.818926-29.036926 197.480354-81.844636a277.862172 277.862172 0 0 0 81.698354-187.97204 9.727736 9.727736 0 0 1 9.874017-9.362032h68.532997a9.581454 9.581454 0 0 1 7.021524 2.925635 9.654595 9.654595 0 0 1 2.779353 7.094665 364.168401 364.168401 0 0 1-107.517081 249.702936zM612.27833 283.709968a155.351212 155.351212 0 0 0-110.808421 45.932467 155.351212 155.351212 0 0 0-45.932468 112.417521 156.960311 156.960311 0 0 0 155.058649 155.058648 157.618579 157.618579 0 0 0 111.466688-44.762214c30.353462-29.768335 47.029581-69.483828 47.029581-111.905534 0-41.90972-16.310414-81.186368-45.932468-110.808421a155.863198 155.863198 0 0 0-110.881561-45.932467zM305.525513 408.122591a313.847481 313.847481 0 0 0 3.510762 89.231864 9.874018 9.874018 0 0 1-5.485566 10.824849 156.155761 156.155761 0 0 0-92.596343 147.525138 155.936339 155.936339 0 0 0 44.46965 104.81087c30.280321 31.01173 70.946646 47.907271 114.09976 47.395285a156.521466 156.521466 0 0 0 130.337034-71.970618 9.800877 9.800877 0 0 1 11.336835-3.949607c21.576557 7.460369 44.323368 12.726512 67.728447 15.213301a9.800877 9.800877 0 0 1 7.752932 14.189329A245.314484 245.314484 0 0 1 371.498579 895.972206C235.749121 898.020151 122.600192 786.699744 122.600192 651.169708A244.290512 244.290512 0 0 1 213.441155 460.784019 368.118008 368.118008 0 0 1 107.533173 386.838597 364.241542 364.241542 0 0 1 0.016091 137.06252a9.800877 9.800877 0 0 1 9.800877-10.093441h68.752419a9.727736 9.727736 0 0 1 9.727736 9.508314 276.765059 276.765059 0 0 0 81.698354 187.8989 276.472496 276.472496 0 0 0 128.142808 73.140872 9.800877 9.800877 0 0 1 7.314087 10.605426z"  horiz-adv-x="1024" />
      
      <glyph glyph-name="xiazai" unicode="&#59034;" d="M503.3984 210.1248a10.922667 10.922667 0 0 1 13.380267-3.072 10.922667 10.922667 0 0 1 3.822933 3.072l153.326933 194.013867a10.922667 10.922667 0 0 1-8.6016 17.6128H563.882667V885.077333A10.922667 10.922667 0 0 1 552.96 896H470.766933a10.922667 10.922667 0 0 1-10.922666-10.922667v-463.189333H358.673067a10.922667 10.922667 0 0 1-8.6016-17.6128l153.326933-194.1504z m509.678933 47.9232h-82.193066a10.922667 10.922667 0 0 1-10.922667-10.922667v-210.875733H104.0384V247.125333a10.922667 10.922667 0 0 1-10.922667 10.922667H10.922667a10.922667 10.922667 0 0 1-10.922667-10.922667v-271.018666c0-24.302933 19.592533-43.895467 43.8272-43.895467h936.3456a43.758933 43.758933 0 0 1 43.8272 43.8272v271.018667a10.922667 10.922667 0 0 1-10.922667 10.990933z"  horiz-adv-x="1024" />
      
      <glyph glyph-name="shezhi" unicode="&#59036;" d="M882.4832 288.3584l69.8368-59.733333a33.9968 33.9968 0 0 0 9.898667-37.341867l-0.955734-2.798933a475.818667 475.818667 0 0 0-84.992-147.114667l-1.911466-2.2528a34.133333 34.133333 0 0 0-37.4784-10.103467l-86.698667 30.856534a373.213867 373.213867 0 0 0-106.359467-61.44l-16.725333-90.7264a34.133333 34.133333 0 0 0-27.511467-27.374934l-2.8672-0.546133a478.071467 478.071467 0 0 0-169.642666 0l-2.8672 0.546133a34.133333 34.133333 0 0 0-27.511467 27.4432l-16.861867 91.067734a372.736 372.736 0 0 0-105.608533 61.2352l-87.381333-31.061334a34.269867 34.269867 0 0 0-37.410134 10.103467l-1.911466 2.2528a474.589867 474.589867 0 0 0-84.992 147.114667l-0.955734 2.730666a34.133333 34.133333 0 0 0 9.898667 37.546667l70.724267 60.416a375.261867 375.261867 0 0 0 0 121.787733L71.4752 471.381333a34.269867 34.269867 0 0 0-9.898667 37.546667l0.955734 2.730667A475.818667 475.818667 0 0 0 147.456 658.773333l1.911467 2.2528a34.133333 34.133333 0 0 0 37.4784 10.103467l87.381333-30.993067a375.330133 375.330133 0 0 0 105.540267 61.2352l16.861866 91.067734a34.133333 34.133333 0 0 0 27.511467 27.374933l2.8672 0.546133a481.962667 481.962667 0 0 0 169.642667 0l2.8672-0.546133a34.133333 34.133333 0 0 0 27.511466-27.374933l16.725334-90.658134c38.638933-14.5408 74.410667-35.2256 106.359466-61.44l86.698667 30.788267a34.269867 34.269867 0 0 0 37.4784-10.103467l1.911467-2.2528c37.137067-43.690667 65.7408-93.252267 84.992-147.114666l0.955733-2.730667a34.133333 34.133333 0 0 0-9.898667-37.546667l-69.8368-59.733333a383.112533 383.112533 0 0 0 0-123.2896zM810.8032 349.866667c0 16.520533-1.365333 33.041067-4.096 49.152l-6.894933 42.5984 79.6672 68.130133a403.114667 403.114667 0 0 1-45.4656 78.506667l-98.986667-35.089067-33.450667 27.511467a299.554133 299.554133 0 0 1-84.650666 48.878933l-40.618667 15.223467-19.114667 103.492266c-30.037333 3.413333-60.689067 3.413333-90.658133 0l-19.114667-103.697066-40.3456-15.223467c-30.446933-11.537067-58.709333-27.989333-83.968-48.7424l-33.450666-27.648-99.669334 35.4304c-18.158933-24.439467-33.450667-50.653867-45.4656-78.506667l80.554667-68.8128-6.9632-42.666666a294.0928 294.0928 0 0 1 0-97.0752l6.9632-42.666667-80.554667-68.8128c12.151467-27.716267 27.306667-54.0672 45.4656-78.506667l99.669334 35.498667 33.450666-27.716267c25.258667-20.753067 53.521067-37.205333 83.968-48.7424l40.277334-15.428266 19.114666-103.697067c30.037333-3.413333 60.689067-3.413333 90.658134 0l19.114666 103.492267 40.618667 15.223466c30.72 11.537067 59.118933 27.989333 84.650667 48.878934l33.450666 27.511466 98.986667-35.089066c18.090667 24.439467 33.3824 50.653867 45.397333 78.506666l-79.6672 68.130134 7.031467 42.8032c2.730667 16.110933 4.096 32.631467 4.096 49.152zM512 548.2496a187.733333 187.733333 0 1 1 0-375.466667 187.733333 187.733333 0 0 1 0 375.466667z m0-307.2c-31.880533 0-61.8496 12.4928-84.445867 35.0208a119.057067 119.057067 0 0 0-35.0208 84.445867c0 31.9488 12.4928 61.917867 35.0208 84.514133 22.528 22.596267 52.565333 34.952533 84.445867 34.952533 31.880533 0 61.8496-12.288 84.514133-34.952533 22.528-22.596267 34.952533-52.565333 34.952534-84.514133 0-31.880533-12.4928-61.8496-34.952534-84.445867-22.664533-22.528-52.565333-35.0208-84.514133-35.0208z"  horiz-adv-x="1024" />
      
      <glyph glyph-name="bianji" unicode="&#59037;" d="M221.403429 109.714286a46.08 46.08 0 0 1 6.875428 0.585143l192.219429 33.645714a11.190857 11.190857 0 0 1 5.997714 3.218286l484.498286 484.498285a11.337143 11.337143 0 0 1 0 16.091429L721.042286 837.851429a11.337143 11.337143 0 0 1-8.045715 3.291428 11.337143 11.337143 0 0 1-8.192-3.291428L220.379429 353.28a11.629714 11.629714 0 0 1-3.218286-6.070857l-33.645714-192.219429a38.765714 38.765714 0 0 1 37.961142-45.348571zM298.422857 309.028571l414.500572 414.427429 83.748571-83.821714L382.171429 225.28l-101.668572-17.993143 17.92 101.741714z m-206.994286-295.277714h841.142858a36.571429 36.571429 0 0 0 36.571428-36.571428v-41.179429a9.142857 9.142857 0 0 0-9.142857-9.142857H64a9.142857 9.142857 0 0 0-9.142857 9.142857v41.179429a36.571429 36.571429 0 0 0 36.571428 36.571428z"  horiz-adv-x="1024" />
      
      <glyph glyph-name="zhankai-2" unicode="&#59039;" d="M512 72.704l391.68 324.864 120.32-99.968L512-128 0 297.6l120.32 99.968L512 72.704zM512 498.304L903.68 823.168 1024 723.2 512 297.6 0 723.2 120.32 823.04 512 498.304z"  horiz-adv-x="1024" />
      
      <glyph glyph-name="xiayi" unicode="&#59040;" d="M977.042286 427.739429l-433.517715-499.565715a41.691429 41.691429 0 0 0-63.122285 0L47.030857 427.666286a10.386286 10.386286 0 0 0 7.826286 17.188571h105.837714c5.997714 0 11.702857-2.56 15.798857-7.168l285.915429-329.508571V843.702857c0 5.778286 4.681143 10.459429 10.459428 10.459429h78.336c5.778286 0 10.459429-4.681143 10.459429-10.459429V108.251429l285.915429 329.508571a20.699429 20.699429 0 0 0 15.798857 7.168h105.837714c8.777143 0 13.677714-10.459429 7.826286-17.188571z"  horiz-adv-x="1024" />
      
      <glyph glyph-name="chuli" unicode="&#59044;" d="M928.64 695.616a14.592 14.592 0 0 1-22.976 2.88l-196.928-196.928-77.568 77.568 196.992 197.056a14.592 14.592 0 0 1-2.88 22.848A292.992 292.992 0 0 1 393.6 470.912L58.688 136.064a8.896 8.896 0 0 1 0.384-12.544l193.92-193.92c3.52-3.584 9.28-3.84 12.544-0.384l334.72 334.72a292.992 292.992 0 0 1 328.32 431.68z m-103.552-297.472a210.56 210.56 0 0 0-245.248-38.4l-10.048-10.048-0.128 0.064-313.152-313.216-90.496 90.496 262.976 262.976s0-0.128 0.128-0.128l60.288 60.352a210.56 210.56 0 0 0 203.008 306.432L540.544 604.8a36.608 36.608 0 0 1 0-51.776l142.272-142.272a36.608 36.608 0 0 1 51.776 0l151.744 151.744a210.752 210.752 0 0 0-61.248-164.48z"  horiz-adv-x="1024" />
      
      <glyph glyph-name="zichan" unicode="&#59045;" d="M512 896a512 512 0 1 1 0.064-1024.064A512 512 0 0 1 512 896z m0-937.152A425.216 425.216 0 0 0 512 809.152a425.216 425.216 0 0 0 0-850.304z m54.528 451.648l-29.056 6.784V570.752c43.456-5.952 70.272-33.152 74.88-66.56 0.576-4.48 4.48-7.872 8.96-7.872h51.392c5.376 0 9.6 4.736 9.152 10.048-7.04 71.232-65.6 116.928-143.936 124.8v37.376a9.152 9.152 0 0 1-9.152 9.152h-32.064a9.152 9.152 0 0 1-9.152-9.152v-37.696c-80.896-7.872-144.256-52.544-144.256-136 0-77.248 56.96-114.56 116.736-128.768l28.16-7.232v-163.072c-50.496 6.72-78.848 33.728-84.672 70.08a9.088 9.088 0 0 1-8.96 7.488h-52.864a9.152 9.152 0 0 1-9.152-9.92c5.12-62.848 52.8-120.704 154.56-128.128v-35.84c0-5.056 4.096-9.152 9.152-9.152h32.448a9.216 9.216 0 0 1 9.152 9.216l-0.256 36.224c89.472 7.936 153.472 55.808 153.472 141.76-0.128 79.296-50.56 114.752-124.544 132.992z m-78.4 18.56a167.168 167.168 0 0 0-17.152 5.696c-38.656 13.952-56.576 36.48-56.576 65.472 0 41.472 31.424 65.152 73.728 70.528v-141.696z m49.344-233.6V348.16c3.584-1.024 6.784-1.856 10.048-2.56 54.08-16.384 72.256-39.296 72.256-74.368 0-44.672-33.6-71.552-82.304-75.84z"  horiz-adv-x="1024" />
      
      <glyph glyph-name="zhongxinxiafa" unicode="&#59046;" d="M78.976 574.976H1024V807.168C1024 856.256 979.84 896 925.312 896H98.688C44.224 896 0 856.256 0 807.168v-816.512c0-49.088 44.16-88.832 98.688-88.832H505.6c21.504 0 39.68 15.168 40.32 34.56 0.576 20.032-17.28 36.48-39.488 36.48H103.616c-13.632 0-24.64 9.92-24.64 22.208v579.84z m0 71.04V807.168c0 9.792 8.832 17.792 19.712 17.792h826.56m0.64 0c10.624-0.32 19.2-8.192 19.2-17.792v-161.152H78.912M787.776 383.936c0 19.584 17.664 35.52 39.488 35.52 21.76 0 39.488-15.936 39.488-35.52v-369.408l46.656 40.64a41.728 41.728 0 0 0 27.456 9.984 41.6 41.6 0 0 0 28.352-10.816c15.168-14.08 14.72-36.608-0.896-50.24l-99.008-86.208a66.688 66.688 0 0 0-40.896-16 68.096 68.096 0 0 0-49.472 17.088l-93.568 85.76a33.088 33.088 0 0 0 0.512 50.24 42.624 42.624 0 0 0 55.808-0.448l46.08-42.24V384z"  horiz-adv-x="1024" />
      
      <glyph glyph-name="tianjia" unicode="&#59047;" d="M551.542154 858.663385H472.457846c-7.089231 0-10.555077-3.544615-10.555077-10.555077v-414.089846H68.923077c-7.089231 0-10.555077-3.465846-10.555077-10.555077v-79.084308c0-7.089231 3.544615-10.555077 10.555077-10.555077h392.979692v-414.089846c0-7.089231 3.465846-10.555077 10.555077-10.555077h79.084308c7.089231 0 10.555077 3.544615 10.555077 10.555077V333.824h393.058461c6.931692 0 10.476308 3.544615 10.476308 10.555077V423.384615c0 7.089231-3.544615 10.555077-10.555077 10.555077h-393.058461V848.108308c0 7.089231-3.465846 10.555077-10.476308 10.555077z"  horiz-adv-x="1024" />
      
      <glyph glyph-name="chakan" unicode="&#59048;" d="M1338.197333 423.253333C1193.813333 727.552 975.36 880.64 682.666667 880.64 389.802667 880.64 171.52 727.552 27.136 423.082667a91.904 91.904 0 0 1 0-78.506667c144.469333-304.298667 362.837333-457.386667 655.530667-457.386667 292.864 0 511.146667 153.088 655.530666 457.557334 11.776 24.746667 11.776 53.333333 0 78.506666zM682.666667-3.157333c-245.76 0-425.813333 124.586667-552.704 387.072C256.938667 646.314667 436.906667 770.986667 682.666667 770.986667c245.76 0 425.813333-124.672 552.704-387.072C1108.48 121.514667 928.597333-3.157333 682.666667-3.157333zM676.693333 652.117333a268.202667 268.202667 0 1 1 0-536.405333 268.202667 268.202667 0 0 1 0 536.405333z m0-438.869333a170.581333 170.581333 0 1 0 0 341.333333 170.581333 170.581333 0 1 0 0-341.333333z"  horiz-adv-x="1365" />
      
      <glyph glyph-name="zuidahua" unicode="&#59049;" d="M274.517333 809.984l-58.453333-58.538667L394.24 573.184a10.666667 10.666667 0 0 0 0-15.018667l-56.576-56.405333a10.666667 10.666667 0 0 0-15.018667 0l-178.346666 178.090667-58.197334-58.282667a10.666667 10.666667 0 0 0-18.176 6.314667L42.837333 841.386667A10.666667 10.666667 0 0 0 54.613333 853.418667l213.589334-25.258667c8.789333-1.109333 12.544-11.946667 6.229333-18.176zM701.44 501.76a10.666667 10.666667 0 0 0-15.018667 0l-56.576 56.490667a10.666667 10.666667 0 0 0 0 15.104l178.346667 178.005333-58.624 58.538667a10.666667 10.666667 0 0 0 6.314667 18.090666L969.386667 853.333333c6.912 0.768 12.629333-5.12 11.861333-11.946666l-25.258667-213.418667a10.666667 10.666667 0 0 0-18.090666-6.229333l-58.282667 58.197333L701.44 501.76z m254.72-361.642667a10.666667 10.666667 0 0 1-18.176 6.314667l-58.282667-58.282667L701.44 266.24a10.666667 10.666667 0 0 1-15.018667 0l-56.576-56.32a10.666667 10.666667 0 0 1 0-15.104l178.346667-178.346667-58.624-58.453333c-6.229333-6.229333-2.56-17.066667 6.314667-18.176l213.589333-25.173333c6.826667-0.853333 12.629333 4.949333 11.861333 11.946666l-25.258666 213.504zM322.730667 266.24a10.666667 10.666667 0 0 0 15.018666 0l56.576-56.490667a10.666667 10.666667 0 0 0 0-15.104l-178.346666-178.090666 58.538666-58.453334c6.314667-6.229333 2.56-17.066667-6.229333-18.090666l-213.589333-25.173334a10.666667 10.666667 0 0 0-11.946667 11.861334l25.258667 213.418666a10.666667 10.666667 0 0 0 18.176 6.314667l58.197333-58.282667 178.346667 178.090667z"  horiz-adv-x="1024" />
      
      <glyph glyph-name="anniuguanli" unicode="&#59050;" d="M1105.627429 408.576l5.632-3.584V791.478857a45.348571 45.348571 0 0 1-45.421715 45.494857H104.521143a45.348571 45.348571 0 0 1-45.494857-45.494857v-668.745143a45.348571 45.348571 0 0 1 45.494857-45.421714h570.806857l-1.462857 4.681143a289.060571 289.060571 0 0 0-11.702857 92.891428l0.073143 3.803429H160.402286V735.597714h849.481143v-288.182857l2.925714-0.585143c33.499429-7.314286 64.804571-20.48 92.891428-38.253714zM727.990857 227.693714l-0.731428-2.194285 1.682285-1.609143 19.602286-18.724572c34.377143-32.694857 34.377143-87.04 0-119.808l-19.602286-18.651428-1.755428-1.682286 0.731428-2.194286c8.996571-25.307429 21.942857-48.64 38.034286-69.193143l1.536-1.901714 2.413714 0.731429 26.331429 7.68a84.187429 84.187429 0 0 0 105.691428-60.269715l7.606858-31.085714 0.512-2.340571 2.413714-0.365715a233.325714 233.325714 0 0 1 76.8 0l2.413714 0.365715 0.585143 2.340571 7.533714 31.085714a84.187429 84.187429 0 0 0 105.618286 60.269715l26.404571-7.753143 2.413715-0.731429 1.462857 1.974857c16.164571 20.553143 29.110857 43.885714 38.034286 69.193143l0.731428 2.194286-1.609143 1.682286-19.675428 18.651428a82.505143 82.505143 0 0 0 0 119.808l19.675428 18.724572 1.682286 1.609143-0.731429 2.194285a243.346286 243.346286 0 0 1-38.034285 69.193143l-1.536 1.974857-2.413715-0.731428-26.331428-7.68a84.187429 84.187429 0 0 0-105.691429 60.196571l-7.606857 31.085714-0.512 2.340572-2.413714 0.438857a233.325714 233.325714 0 0 1-53.540572 2.633143V575.634286H885.248v-182.345143L761.417143 574.025143l-1.024 1.609143h-48.420572V307.2h50.102858V492.105143l121.124571-177.078857a84.699429 84.699429 0 0 0-86.820571-24.576l-26.404572 7.68-2.413714 0.731428-1.462857-1.974857c-16.164571-20.553143-29.110857-43.885714-38.034286-69.193143zM238.08 575.634286h-3.657143V307.2h123.611429c28.16 0 50.907429 5.12 67.145143 15.945143V323.291429c19.163429 13.238857 28.672 33.865143 28.672 61.147428 0 18.139429-4.534857 33.28-13.604572 44.397714a62.390857 62.390857 0 0 1-30.573714 19.529143 62.610286 62.610286 0 0 1 21.942857 18.432v0.073143a68.608 68.608 0 0 1 11.264 39.350857c0 20.699429-7.314286 37.522286-21.723429 49.956572-15.579429 13.165714-37.010286 19.529143-63.488 19.529143H238.08z m232.374857 0h-3.657143V531.748571H552.374857v-224.548571h50.102857V531.748571H688.054857V575.634286H470.454857zM950.857143 83.821714a60.708571 60.708571 0 0 0-59.977143 61.44 60.708571 60.708571 0 0 0 59.977143 61.44 60.708571 60.708571 0 0 0 59.977143-61.44 60.708571 60.708571 0 0 0-59.977143-61.44zM284.525714 533.211429h62.537143c17.261714 0 28.745143-2.925714 35.84-8.045715 6.144-4.608 9.874286-12.434286 9.874286-24.137143 0-12.726857-3.803429-21.430857-9.947429-26.770285-6.802286-5.12-18.578286-8.338286-36.571428-8.338286H284.525714v67.291429z m0-109.714286h68.388572c18.724571 0 31.597714-3.291429 39.497143-9.142857 7.168-5.632 11.337143-14.994286 11.337142-29.257143 0-6.802286-1.389714-12.434286-3.949714-16.969143a29.622857 29.622857 0 0 0-11.702857-11.264c-8.411429-4.681143-20.48-7.241143-36.278857-7.241143h-67.291429V423.497143z"  horiz-adv-x="1243" />
      
      <glyph glyph-name="zhankai-1" unicode="&#59051;" d="M613.262222 855.722667a56.888889 56.888889 0 0 0 80.440889 0l80.440889-80.440889a56.888889 56.888889 0 0 0 0-80.440889L492.544 413.240889l281.6-281.6a56.888889 56.888889 0 0 0 0-80.440889l-80.440889-80.440889a56.888889 56.888889 0 0 0-80.554667 0L210.944 373.077333a56.888889 56.888889 0 0 0 0 80.440889L613.148444 855.722667z"  horiz-adv-x="1024" />
      
      <glyph glyph-name="tongzhijilu" unicode="&#59052;" d="M903.488 639.36L657.6 885.184A36.48 36.48 0 0 1 631.68 896H146.24a36.48 36.48 0 0 1-36.544-36.544V-91.52a36.48 36.48 0 0 1 36.544-36.544h731.456a36.48 36.48 0 0 1 36.544 36.544V613.376a36.736 36.736 0 0 1-10.752 25.92z m-73.6-42.816h-215.04V811.648l215.04-215.04zM832-45.696H192V813.696h345.088v-246.848a48 48 0 0 1 48-48H832v-564.544zM502.848 262.848H292.48a9.152 9.152 0 0 1-9.152-9.152v-54.848c0-4.992 4.096-9.152 9.152-9.152h210.304A9.152 9.152 0 0 1 512 198.848v54.848a9.152 9.152 0 0 1-9.152 9.152zM283.392 409.152v-54.848c0-5.056 4.096-9.152 9.152-9.152h438.848a9.152 9.152 0 0 1 9.152 9.152v54.848a9.152 9.152 0 0 1-9.152 9.152H292.544a9.152 9.152 0 0 1-9.152-9.152z"  horiz-adv-x="1024" />
      
      <glyph glyph-name="shuxingpeizhi" unicode="&#59053;" d="M932.608 840.96H91.456a36.48 36.48 0 0 1-36.608-36.48v-841.216a36.48 36.48 0 0 1 36.608-36.544h841.152a36.48 36.48 0 0 1 36.544 36.544V804.48a36.48 36.48 0 0 1-36.544 36.608z m-45.76-832H137.152V758.784h749.696V8.96zM315.52 188.48v-88c0-4.992 4.096-9.152 9.152-9.152h54.848a9.152 9.152 0 0 1 9.152 9.152v88a120.704 120.704 0 0 0-73.152 0zM388.608 414.72V667.264a9.152 9.152 0 0 1-9.152 9.152h-54.848a9.152 9.152 0 0 1-9.152-9.152V414.72a120.64 120.64 0 0 0 73.152 0z m-73.152-226.304a120.704 120.704 0 0 1 73.152 0 118.912 118.912 0 1 1-73.152 0zM315.52 320.64l1.088 2.048v0.128l1.408 2.048 0.32 0.64c0.384 0.512 0.832 0.96 1.152 1.536l0.32 0.448 1.6 1.856 0.384 0.32 1.344 1.408 0.448 0.448 1.856 1.6a22.144 22.144 0 0 0 1.92 1.472l0.64 0.32c0.512 0.384 0.96 0.832 1.536 1.152l0.448 0.384 2.176 1.28c0.128 0.064 0.384 0.064 0.448 0.192l1.92 0.896 0.64 0.384 2.24 0.896c0.832 0.32 1.6 0.576 2.432 0.768l0.64 0.256a11.904 11.904 0 0 0 1.984 0.448l0.576 0.128 2.56 0.448c0.192 0 0.32 0 0.512 0.128 0.64 0.128 1.408 0.128 2.048 0.192h0.704l2.624 0.128c0.896 0 1.728 0 2.624-0.128h0.64c0.768 0 1.408-0.064 2.112-0.192 0.256 0 0.32 0 0.576-0.128l2.56-0.448 0.512-0.128 1.92-0.448 0.704-0.256c0.832-0.192 1.6-0.448 2.432-0.768l2.24-0.896 0.704-0.384c0.64-0.192 1.28-0.576 1.856-0.896l0.448-0.256c0.64-0.32 1.472-0.768 2.176-1.28l0.448-0.32c0.576-0.32 1.152-0.64 1.6-1.152 0.256-0.064 0.32-0.192 0.576-0.32l1.92-1.472c0.64-0.448 1.28-1.024 1.856-1.6l0.448-0.448 1.344-1.408 0.384-0.32 1.6-1.856c0.128-0.064 0.192-0.32 0.32-0.448a8.064 8.064 0 0 0 1.152-1.6c0.128-0.192 0.256-0.32 0.32-0.576l1.408-2.048s0-0.128 0.128-0.128a41.344 41.344 0 0 0 1.088-40.192l-1.088-2.048s0-0.128-0.128-0.128l-1.408-2.048-0.32-0.64c-0.32-0.512-0.832-0.96-1.152-1.536-0.128-0.128-0.192-0.384-0.32-0.448l-1.6-1.856-0.384-0.32-1.344-1.408-0.448-0.448-1.856-1.6a21.952 21.952 0 0 0-1.92-1.472c-0.256-0.128-0.32-0.256-0.576-0.32-0.576-0.384-1.024-0.832-1.6-1.152l-0.448-0.384-2.176-1.28c-0.128-0.064-0.32-0.064-0.448-0.192l-1.856-0.896-0.64-0.32-2.304-0.96c-0.832-0.32-1.6-0.576-2.432-0.768l-0.64-0.256a11.968 11.968 0 0 0-1.92-0.448l-0.64-0.128-2.496-0.448c-0.256 0-0.32 0-0.576-0.128l-2.048-0.192h-0.64l-2.688-0.128c-0.896 0-1.728 0-2.56 0.128H348.16a12.544 12.544 0 0 0-2.048 0.192c-0.192 0-0.32 0-0.576 0.128l-2.496 0.448-0.576 0.128-1.92 0.448-0.704 0.256c-0.832 0.192-1.6 0.448-2.432 0.768-0.768 0.256-1.472 0.64-2.24 0.96l-0.64 0.32a13.632 13.632 0 0 0-1.92 0.896c-0.064 0.128-0.32 0.128-0.448 0.256a21.376 21.376 0 0 0-2.176 1.28l-0.448 0.32c-0.576 0.32-1.152 0.64-1.6 1.152l-0.576 0.32-1.92 1.472a22.848 22.848 0 0 0-1.856 1.6l-0.448 0.448-1.344 1.408-0.384 0.32a22.848 22.848 0 0 0-1.6 1.856l-0.32 0.448c-0.448 0.448-0.768 1.024-1.152 1.6l-0.32 0.576-1.408 2.048v0.128a41.344 41.344 0 0 0-1.152 40.256z m319.872 32.384v-252.608c0-4.992 4.096-9.152 9.152-9.152h54.848a9.152 9.152 0 0 1 9.152 9.152V353.024a120.64 120.64 0 0 0-73.152 0z m73.152 226.24V667.264a9.152 9.152 0 0 1-9.152 9.152h-54.848a9.152 9.152 0 0 1-9.152-9.152v-88a120.64 120.64 0 0 0 73.152 0zM635.456 353.024a120.64 120.64 0 0 1 73.152 0 118.848 118.848 0 1 1-73.152 0z m0.128 132.224l1.088 2.048v0.128l1.408 2.048 0.32 0.576c0.384 0.576 0.832 1.024 1.152 1.6 0.128 0.064 0.256 0.32 0.32 0.448 0.64 0.64 1.088 1.28 1.664 1.792l0.32 0.384 1.344 1.344 0.448 0.448c0.64 0.64 1.152 1.024 1.856 1.6a21.056 21.056 0 0 0 1.92 1.536l0.64 0.32 1.536 1.152c0.128 0.128 0.384 0.192 0.448 0.32l2.176 1.28c0.128 0.128 0.384 0.128 0.448 0.192l1.92 0.96 0.64 0.32 2.304 0.896c0.768 0.384 1.6 0.64 2.368 0.832l0.64 0.192a11.968 11.968 0 0 0 1.984 0.448l0.576 0.128c0.768 0.256 1.728 0.384 2.56 0.448 0.192 0 0.32 0 0.512 0.128l2.048 0.256h0.704l2.624 0.128c0.896 0 1.728 0 2.624-0.128h0.64c0.768 0 1.408-0.128 2.112-0.256 0.256 0 0.32 0 0.576-0.128 0.768-0.064 1.728-0.192 2.56-0.448l0.512-0.128c0.64-0.064 1.408-0.32 1.92-0.448 0.256-0.064 0.512-0.064 0.704-0.192 0.832-0.256 1.6-0.448 2.432-0.832 0.768-0.192 1.472-0.576 2.304-0.896l0.64-0.32a14.08 14.08 0 0 0 1.856-0.96c0.128-0.064 0.32-0.064 0.448-0.192l2.176-1.28 0.448-0.32c0.576-0.384 1.152-0.704 1.6-1.152 0.256-0.128 0.32-0.256 0.576-0.32l1.92-1.536c0.64-0.448 1.28-1.024 1.856-1.6l0.448-0.448 1.344-1.344 0.384-0.384 1.6-1.792c0.128-0.128 0.192-0.384 0.32-0.448 0.448-0.448 0.832-1.024 1.152-1.6l0.32-0.64 1.408-1.984v-0.128a41.344 41.344 0 0 0 1.152-40.256c-0.384-0.64-0.832-1.344-1.152-2.048v-0.128l-1.408-2.048-0.32-0.576c-0.32-0.576-0.768-1.024-1.152-1.6l-0.32-0.448c-0.64-0.64-1.024-1.28-1.6-1.792l-0.384-0.384-1.344-1.344-0.448-0.448c-0.64-0.64-1.152-1.024-1.856-1.6a21.952 21.952 0 0 0-1.92-1.536c-0.256-0.064-0.32-0.192-0.576-0.32-0.576-0.32-1.024-0.768-1.6-1.152l-0.448-0.32-2.176-1.28c-0.128-0.128-0.32-0.128-0.448-0.192l-1.856-0.96-0.64-0.32-2.304-0.896c-0.832-0.384-1.6-0.64-2.432-0.832-0.192-0.128-0.448-0.128-0.64-0.192a11.968 11.968 0 0 0-1.92-0.512l-0.64-0.064c-0.768-0.256-1.728-0.384-2.496-0.448-0.256 0-0.32 0-0.576-0.128l-2.048-0.256h-0.64l-2.688-0.128c-0.896 0-1.728 0-2.56 0.128h-0.768a12.544 12.544 0 0 0-2.048 0.256c-0.192 0-0.32 0-0.576 0.128-0.768 0.064-1.728 0.192-2.496 0.448l-0.576 0.064-1.92 0.512-0.704 0.192c-0.768 0.256-1.6 0.448-2.368 0.832-0.832 0.192-1.536 0.576-2.304 0.896l-0.64 0.32a13.248 13.248 0 0 0-1.92 0.96c-0.064 0.064-0.32 0.064-0.448 0.192a21.12 21.12 0 0 0-2.176 1.28c-0.064 0.128-0.32 0.192-0.448 0.32-0.576 0.384-1.152 0.64-1.6 1.152-0.192 0.128-0.32 0.256-0.576 0.32l-1.92 1.536a22.848 22.848 0 0 0-1.856 1.6l-0.448 0.448-1.344 1.344-0.32 0.384a22.848 22.848 0 0 0-1.664 1.792l-0.32 0.448c-0.448 0.448-0.768 1.024-1.152 1.6l-0.32 0.64-1.408 1.984v0.128a41.344 41.344 0 0 0-1.152 40.256z"  horiz-adv-x="1024" />
      
      <glyph glyph-name="xiaoxi" unicode="&#59054;" d="M480.832 874.88a373.696 373.696 0 0 0 373.952-361.728l0.256-12.48v-204.416l68.8-157.44a62.336 62.336 0 0 0-57.088-87.36l-236.288-0.128a149.696 149.696 0 0 0-299.072-8.832l-0.256 8.96H95.424a62.4 62.4 0 0 0-57.216 87.168l68.48 157.568V500.672A373.568 373.568 0 0 0 480.768 874.816z m74.88-823.424l-149.76-0.128a74.88 74.88 0 0 1 149.376-7.232l0.256 7.36h0.064zM480.768 800a298.752 298.752 0 0 1-299.392-299.328v-220.032l-67.008-154.368h733.248L780.16 280.576V500.032l-0.192 11.2A298.752 298.752 0 0 1 480.832 800z"  horiz-adv-x="1024" />
      
      <glyph glyph-name="fabu" unicode="&#59016;" d="M1055.36 398.72L99.328 878.08a18.368 18.368 0 0 1-23.808-6.912 18.304 18.304 0 0 1-2.112-13.76l98.56-402.56a18.048 18.048 0 0 1 11.84-12.864L352.64 384l-168.704-57.984a17.92 17.92 0 0 1-11.776-12.928l-98.752-403.072a18.368 18.368 0 0 1 25.92-20.672L1055.36 365.952a18.816 18.816 0 0 1 8.192 8.128 18.56 18.56 0 0 1-8.192 24.704zM186.112 24.64l57.472 235.008 337.344 115.776a9.152 9.152 0 0 1 0 17.344L243.584 508.352l-57.28 234.112 717.76-359.936-717.952-357.952z"  horiz-adv-x="1065" />
      
      <glyph glyph-name="guojijilian" unicode="&#59019;" d="M998.788414 578.206897h-295.088552V873.295448A22.775172 22.775172 0 0 1 680.99531 896H22.704552A22.775172 22.775172 0 0 1 0 873.295448v-658.290758c0-12.464552 10.24-22.704552 22.704552-22.704552H317.793103v-295.088552c0-12.464552 10.24-22.704552 22.704552-22.704552h658.290759c12.464552 0 22.704552 10.24 22.704552 22.704552V555.502345A22.775172 22.775172 0 0 1 998.788414 578.206897zM317.793103 555.502345v-266.699035H96.467862V799.532138h510.728828V578.206897H340.497655A22.775172 22.775172 0 0 1 317.793103 555.502345z m289.403587-73.798621v-192.900414h-192.935724v192.935724h192.935724z m317.793103-510.693517H414.260966V192.264828h266.734344c12.464552 0 22.704552 10.24 22.704552 22.704551v266.734345h221.289931v-510.728827z"  horiz-adv-x="1024" />
      
      <glyph glyph-name="quanxianguanli" unicode="&#59020;" d="M618.558061 896C409.227636 896 239.522909 726.326303 239.522909 516.995879c0-87.660606 29.789091-168.308364 79.685818-232.541091l-51.26206-51.2-77.668849 77.637818a10.146909 10.146909 0 0 1-14.211879 0l-49.617454-49.617454a10.146909 10.146909 0 0 1 0-14.211879l77.668848-77.668849-55.978666-55.978666-77.668849 77.668848a10.146909 10.146909 0 0 1-14.211879 0l-49.648484-49.648485a10.146909 10.146909 0 0 1 0-14.180848l77.699878-77.668849-81.423515-81.423515a10.022788 10.022788 0 0 1 0-14.087757l52.751515-52.751516c3.847758-3.847758 10.24-3.847758 14.087758 0l316.198788 316.198788A379.097212 379.097212 0 0 1 592.058182 138.860606a231.330909 231.330909 0 0 0 35.964121 93.990788 282.065455 282.065455 0 0 0-210.447515 83.130182 282.065455 282.065455 0 0 0-83.285333 200.983272 282.065455 282.065455 0 0 0 83.285333 200.983273 282.065455 282.065455 0 0 0 200.983273 83.254303 282.065455 282.065455 0 0 0 200.952242-83.254303 282.065455 282.065455 0 0 0 83.285333-200.983273c0-66.466909-22.621091-129.458424-64.294788-180.099878a231.299879 231.299879 0 0 0 96.535273-28.547879 377.266424 377.266424 0 0 1 62.526061 208.647757C997.562182 726.326303 827.857455 896 618.558061 896zM697.530182 148.386909L682.666667 162.878061a187.42303 187.42303 0 0 0 20.045575 36.150303l16.384-4.933819a83.006061 83.006061 0 0 1 104.572122 60.136728l4.778666 20.045575a176.407273 176.407273 0 0 0 39.967031 0l4.778666-20.045575a83.006061 83.006061 0 0 1 104.572121-60.136728l16.384 4.933819c7.943758-11.170909 14.677333-23.272727 20.045576-36.150303l-14.832485-14.460122a82.571636 82.571636 0 0 1 0-118.411636l14.832485-14.460121a187.733333 187.733333 0 0 0-20.014545-36.150303l-16.446061 4.933818a83.006061 83.006061 0 0 1-104.572121-60.136727l-4.747636-20.045576a176.345212 176.345212 0 0 0-39.967031 0l-4.778666 20.045576a83.006061 83.006061 0 0 1-104.572122 60.136727l-16.384-4.933818A187.42303 187.42303 0 0 0 682.666667 15.577212l14.863515 14.460121a82.571636 82.571636 0 0 1 0 118.411637zM806.94303 89.212121c0-22.838303 18.587152-41.363394 41.487515-41.363394 22.931394 0 41.487515 18.525091 41.487516 41.363394s-18.556121 41.363394-41.487516 41.363394c-22.900364 0-41.487515-18.525091-41.487515-41.363394z"  horiz-adv-x="1024" />
      
      <glyph glyph-name="jiaoseguanli" unicode="&#59021;" d="M798.617465 265.781031a207.403548 207.403548 0 0 1-98.4783-24.687314 9.814713 9.814713 0 0 0-9.814713 0.361277 358.628403 358.628403 0 0 1-191.115942 54.552944A359.08 359.08 0 0 1 243.152889 189.701953a360.916495 360.916495 0 0 1-105.974814-247.144103 9.724393 9.724393 0 0 0-9.634074-9.423328H55.017488a9.603967 9.603967 0 0 0-9.031944 6.141722 9.694287 9.694287 0 0 0-0.662343 3.76331 451.928388 451.928388 0 0 0 35.555754 167.060863 451.687536 451.687536 0 0 0 97.243934 144.541216 450.754235 450.754235 0 0 0 144.330471 97.514892l0.722555 0.301065 0.722556 0.301065a299.860552 299.860552 0 0 0-124.098915 243.260367C199.799556 761.725094 333.74329 896 499.057978 896c165.374901 0 299.378848-134.274906 299.378848-299.980978a300.071297 300.071297 0 0 0-123.978489-243.260367 7.10513 7.10513 0 0 1 0.722555-0.301065l0.722556-0.301065a449.580082 449.580082 0 0 0 125.453707-79.601536 3.883736 3.883736 0 0 0-2.679477-6.773958h-0.120426zM352.318989 448.918756a206.349821 206.349821 0 0 1 146.859415-60.965624c55.395925 0 107.54035 21.676666 146.859415 60.965624a207.102483 207.102483 0 0 1 60.815091 147.100266 207.102483 207.102483 0 0 1-60.815091 147.070161 206.139076 206.139076 0 0 1-146.859415 60.965624 205.928331 205.928331 0 0 1-146.859415-60.965624 207.102483 207.102483 0 0 1-60.815092-147.070161 207.102483 207.102483 0 0 1 60.815092-147.100266zM661.903934 110.431589L647.48293 124.491315a181.843146 181.843146 0 0 0 19.448786 35.074051l15.896222-4.786931a80.534837 80.534837 0 0 1 101.458842 58.346361l4.636398 19.448787a171.155345 171.155345 0 0 0 38.777147 0l4.636399-19.448787a80.534837 80.534837 0 0 1 101.458841-58.346361l15.896222 4.786931c7.707259-10.838333 14.240366-22.579861 19.448787-35.074051l-14.390898-14.02962a80.113346 80.113346 0 0 1 0-114.886332l14.390898-14.02962a182.144211 182.144211 0 0 0-19.448787-35.07405l-15.896222 4.78693a80.534837 80.534837 0 0 1-101.458841-58.34636l-4.636399-19.448787a171.095132 171.095132 0 0 0-38.777147 0l-4.636398 19.448787a80.534837 80.534837 0 0 1-101.458842 58.34636l-15.896222-4.78693A181.843146 181.843146 0 0 0 647.48293-18.42415l14.421004 14.02962a80.113346 80.113346 0 0 1 0 114.886332zM768.059386 53.018529c0-22.15837 18.033782-40.131939 40.252366-40.131939 22.24869 0 40.252365 17.973569 40.252365 40.131939s-18.003676 40.131939-40.252365 40.13194c-22.218583 0-40.252365-17.973569-40.252366-40.13194z"  horiz-adv-x="1024" />
      
      <glyph glyph-name="xuanzetongdao1" unicode="&#59029;" d="M856.625052 67.24H762.078014V173.632839h0.146244V627.136886a138.054763 138.054763 0 1 1-182.29371 130.669419c0-60.691448 39.193513-112.242617 93.59645-130.669419V223.721564h-0.073122l0.073122-25.665901v-24.422824h0.146244l0.438734-106.539083H579.711181a9.944623 9.944623 0 0 1-7.824078-16.08689l138.493497-175.200854a9.725256 9.725256 0 0 1 12.065167-2.778645 9.725256 9.725256 0 0 1 3.436745 2.778645L864.44913 51.15311a9.944623 9.944623 0 0 1-7.824078 16.08689z m-79.703226 690.42006a59.155881 59.155881 0 0 0-118.165518 0 59.155881 59.155881 0 0 0 118.23864 0zM284.297388-127.923222a138.054763 138.054763 0 0 1 44.385191 268.65106V618.435341A138.054763 138.054763 0 1 1 146.388869 749.10476c0-60.618326 39.193513-112.169495 93.596449-130.669419v-477.707503a138.054763 138.054763 0 0 1 44.31207-268.577937z m-41.387181 96.88695a59.155881 59.155881 0 0 0-17.695578 41.094691 59.155881 59.155881 0 0 0 118.23864 0 59.155881 59.155881 0 0 0-100.543062-41.094691zM325.684568 790.053206c11.041456-10.895212 17.476212-25.592779 17.768701-41.094691a59.155881 59.155881 0 0 0-118.23864 0 59.155881 59.155881 0 0 0 100.469939 41.094691z"  horiz-adv-x="1024" />
      
      <glyph glyph-name="a-Frame3323" unicode="&#59030;" d="M512.832 874.88a373.696 373.696 0 0 0 373.952-361.728l0.256-12.48v-204.416l68.8-157.44a62.336 62.336 0 0 0-57.088-87.36l-236.288-0.128a149.632 149.632 0 0 0-299.072-8.832l-0.256 8.96H127.424a62.4 62.4 0 0 0-57.216 87.168l68.48 157.568V500.672A373.568 373.568 0 0 0 512.768 874.816z m74.88-823.424l-149.76-0.128a74.88 74.88 0 0 1 149.376-7.232l0.256 7.36h0.064zM512.768 800a298.752 298.752 0 0 1-299.392-299.328v-220.032l-67.008-154.368h733.248L812.16 280.576V500.032l-0.192 11.2A298.752 298.752 0 0 1 512.832 800z"  horiz-adv-x="1024" />
      
      <glyph glyph-name="yonghuguanli" unicode="&#59038;" d="M300.162989 446.000015c0-10.778082 0.602127-21.435739 1.716064-31.942864 0.602127-4.81702-2.559042-9.332976-7.255636-10.537231a273.094927 273.094927 0 0 1-126.65752-72.195087 273.426097 273.426097 0 0 1-80.685084-185.69612 9.63404 9.63404 0 0 0-9.664147-9.332977H9.756897a9.724359 9.724359 0 0 0-9.694252 9.935104 359.77118 359.77118 0 0 0 106.21529 246.781955 363.685009 363.685009 0 0 0 104.619653 73.068172 241.392914 241.392914 0 0 0-89.747104 188.074524c0 133.913155 111.754864 243.861637 245.90887 241.814403a242.356318 242.356318 0 0 0 212.551007-132.949752c3.010637-6.021275-0.873085-13.307018-7.616913-14.029571a300.100345 300.100345 0 0 1-66.896365-14.992974 9.63404 9.63404 0 0 0-11.259784 3.883722 154.656448 154.656448 0 0 1-128.704753 71.111258 154.024214 154.024214 0 0 1-112.748373-46.815413 154.024214 154.024214 0 0 1-43.895095-103.535824 154.265065 154.265065 0 0 1 46.815413-115.397734c13.066167-12.825316 28.179567-22.971164 44.617647-30.347226 4.004148-1.806382 6.322339-6.322339 5.449254-10.657657-3.371914-18.27457-5.208403-37.030841-5.208403-56.238708zM608.632906 687.904737a241.934829 241.934829 0 0 0-3.73319-483.839551c-73.790725 0-143.005281-28.661269-195.119416-80.80551a273.39599 273.39599 0 0 1-80.685084-185.666014 9.63404 9.63404 0 0 0-9.694253-9.332976h-67.739343a9.724359 9.724359 0 0 0-9.664147 9.935104 359.710967 359.710967 0 0 0 106.185184 246.631423 364.076391 364.076391 0 0 0 104.529334 73.068171 241.75419 241.75419 0 0 0-89.747104 188.104631c0 134.003475 111.634438 243.982062 245.668019 241.904722z m-3.763296-396.741808a153.693044 153.693044 0 0 1 109.496885 45.3402 154.325278 154.325278 0 0 1 45.460626 109.496886c0 41.847861-16.438081 81.166787-46.454136 110.550608a155.710171 155.710171 0 0 1-110.068907 44.256371 154.204852 154.204852 0 0 1-109.346353-46.785306 155.047831 155.047831 0 0 1-32.514885-166.578572 153.964001 153.964001 0 0 1 33.959991-50.939987 153.693044 153.693044 0 0 1 109.466779-45.3402zM737.036595 110.43436L722.615642 124.494037a181.842504 181.842504 0 0 0 19.448718 35.073927l15.896166-4.786913a80.534553 80.534553 0 0 1 101.458483 58.346154l4.636382 19.448718a171.154741 171.154741 0 0 0 38.777011 0l4.636382-19.448718a80.534553 80.534553 0 0 1 101.458483-58.346154l15.926272 4.786913c7.677126-10.838295 14.210209-22.579781 19.418612-35.073927l-14.390847-14.02957a80.113064 80.113064 0 0 1 0-114.885927l14.390847-14.029571a182.143568 182.143568 0 0 0-19.418612-35.073926l-15.956379 4.786913a80.534553 80.534553 0 0 1-101.458483-58.346154l-4.606275-19.448718a171.094528 171.094528 0 0 0-38.777011 0l-4.636382 19.448718a80.534553 80.534553 0 0 1-101.458483 58.346154l-15.896166-4.786913A181.842504 181.842504 0 0 0 722.615642-18.420924l14.420953 14.029571a80.113064 80.113064 0 0 1 0 114.885926zM843.191673 53.021503c0-22.158292 18.033719-40.131798 40.252223-40.131797 22.248611 0 40.252223 17.973506 40.252224 40.131797s-18.003612 40.131798-40.252224 40.131798c-22.218505 0-40.252223-17.973506-40.252223-40.131798z"  horiz-adv-x="1053" />
      
      <glyph glyph-name="bumenguanli" unicode="&#59041;" d="M395.826044 257.354323a18.960516 18.960516 0 0 1-18.993549 18.993548H244.141915v104.315871h521.579355v-104.315871h-132.723613a18.960516 18.960516 0 0 1-18.993549-18.993548V-83.736774c0-10.471226 8.522323-18.960516 18.993549-18.960516h341.091097a18.960516 18.960516 0 0 1 18.960516 18.993548V257.486452a18.960516 18.960516 0 0 1-18.960516 18.960516h-123.30942v180.091871a9.447226 9.447226 0 0 1-9.414193 9.447226h-293.987097V578.031484c10.074839-4.39329 19.489032-10.801548 27.614968-19.15871l15.426064-15.855484a199.845161 199.845161 0 0 1 38.482581 21.338839l-5.252129 17.507097a88.36129 88.36129 0 0 0 64.016516 111.318709l21.338839 5.053936a187.755355 187.755355 0 0 1 0 42.545548l-21.338839 5.086968a88.36129 88.36129 0 0 0-64.016516 111.31871l5.252129 17.441032A199.68 199.68 0 0 1 590.386044 896l-15.393032-15.789419a87.898839 87.898839 0 0 0-126.051097 0L433.614947 896c-13.675355-5.714581-26.557935-12.882581-38.482581-21.338839l5.252129-17.441032a88.36129 88.36129 0 0 0-64.016516-111.31871l-21.338838-5.086967a188.283871 188.283871 0 0 1 0-42.545549l21.338838-5.086968a88.36129 88.36129 0 0 0 64.016516-111.318709l-5.252129-17.474065c11.891613-8.423226 24.774194-15.591226 38.482581-21.305806l15.393032 15.789419c4.129032 4.228129 8.555355 7.927742 13.212904 11.164903v-104.150709h-293.987097a9.447226 9.447226 0 0 1-9.414194-9.447226v-180.091871H35.510173a18.960516 18.960516 0 0 1-18.993548-18.993548v-341.223226c0-10.471226 8.48929-18.960516 18.993548-18.960516h341.355355a18.960516 18.960516 0 0 1 18.960516 18.993548v341.223226z m-289.197419-71.019355h199.184516v-199.052387h-199.184516v199.085419z m793.765161 0v-199.052387h-199.184516v199.085419h199.184516zM512.000495 763.738839c24.311742 0 44.032-19.786323 44.032-44.164129S536.312237 675.377548 512.000495 675.377548a44.098065 44.098065 0 0 0-44.032 44.164129c0 24.377806 19.720258 44.164129 44.032 44.164129z"  horiz-adv-x="1024" />
      
      <glyph glyph-name="caidanguanli" unicode="&#59042;" d="M10.267919 896h1007.599479c5.661749 0 10.299906-4.638156 10.299905-10.267919v-82.271297a10.299906 10.299906 0 0 0-10.299905-10.267918H10.267919A10.299906 10.299906 0 0 0 0 803.460784V885.764069C0 891.361844 4.638156 896 10.267919 896zM10.267919 94.046776h559.777488c5.661749 0 10.299906-4.638156 10.299906-10.299905v-82.23931a10.299906 10.299906 0 0 0-10.299906-10.299906H10.267919A10.299906 10.299906 0 0 0 0 1.507561v82.23931c0 5.661749 4.638156 10.299906 10.267919 10.299905zM10.267919 495.007395h1007.599479c5.661749 0 10.299906-4.606169 10.299905-10.267919v-82.271297a10.299906 10.299906 0 0 0-10.299905-10.267919H10.267919A10.299906 10.299906 0 0 0 0 402.468179v82.271297c0 5.661749 4.638156 10.267919 10.267919 10.267919zM719.042181 125.330341L703.720271 140.268403a193.203202 193.203202 0 0 0 20.663786 37.265187l16.889287-5.085978a85.565988 85.565988 0 0 1 107.79715 61.991359l4.926042 20.663786a181.847716 181.847716 0 0 0 41.199624 0l4.926041-20.663786a85.565988 85.565988 0 0 1 107.797151-61.991359l16.889287 5.085978c8.188745-11.515423 15.129986-23.990464 20.663786-37.265187l-15.289923-14.906075a85.118166 85.118166 0 0 1 0-122.063479l15.289923-14.906075a193.523075 193.523075 0 0 0-20.631799-37.265187l-16.953261 5.085978a85.565988 85.565988 0 0 1-107.797151-61.991358l-4.894054-20.663786a181.783741 181.783741 0 0 0-41.199624 0l-4.926042 20.663786a85.565988 85.565988 0 0 1-107.79715 61.991358l-16.889287-5.085978A193.203202 193.203202 0 0 0 703.720271-11.575239l15.32191 14.906075a85.118166 85.118166 0 0 1 0 122.06348zM831.829348 64.330589c0-23.542642 19.160384-42.639051 42.767-42.639051 23.638604 0 42.767 19.096409 42.767 42.639051s-19.128396 42.639051-42.767 42.639051c-23.606616 0-42.767-19.096409-42.767-42.639051z"  horiz-adv-x="1055" />
      
      <glyph glyph-name="bangzhu" unicode="&#59043;" d="M607.744 388.778667l0.056889 0.056889A145.066667 145.066667 0 1 1 366.933333 497.777778a31.288889 31.288889 0 1 1 62.577778 0 82.488889 82.488889 0 1 0 138.922667-60.131556l-6.599111-5.575111-13.937778-10.467555c-7.509333-5.859556-14.165333-11.832889-20.593778-18.659556-29.696-31.687111-46.592-74.524444-46.592-132.721778a31.288889 31.288889 0 1 1 62.577778 0c0 42.552889 10.979556 69.973333 29.639111 89.884445 2.673778 2.844444 5.518222 5.575111 8.647111 8.192l4.892445 4.039111 12.401777 9.272889h0.056889l8.817778 7.168zM969.955556 384A457.955556 457.955556 0 1 1 54.044444 384a457.955556 457.955556 0 0 1 915.911112 0z m-853.333334 0a395.377778 395.377778 0 1 0 790.755556 0 395.377778 395.377778 0 0 0-790.755556 0z m440.888889-241.777778a45.511111 45.511111 0 1 1-91.022222 0 45.511111 45.511111 0 0 1 91.022222 0z"  horiz-adv-x="1024" />
      
      <glyph glyph-name="xuanzetongdao" unicode="&#59015;" d="M856.625052 67.24H762.078014V173.632839h0.146244V627.136886a138.054763 138.054763 0 1 1-182.29371 130.669419c0-60.691448 39.193513-112.242617 93.59645-130.669419V223.721564h-0.073122l0.073122-25.665901v-24.422824h0.146244l0.438734-106.539083H579.711181a9.944623 9.944623 0 0 1-7.824078-16.08689l138.493497-175.200854a9.725256 9.725256 0 0 1 12.065167-2.778645 9.725256 9.725256 0 0 1 3.436745 2.778645L864.44913 51.15311a9.944623 9.944623 0 0 1-7.824078 16.08689z m-79.703226 690.42006a59.155881 59.155881 0 0 0-118.165518 0 59.155881 59.155881 0 0 0 118.23864 0zM284.297388-127.923222a138.054763 138.054763 0 0 1 44.385191 268.65106V618.435341A138.054763 138.054763 0 1 1 146.388869 749.10476c0-60.618326 39.193513-112.169495 93.596449-130.669419v-477.707503a138.054763 138.054763 0 0 1 44.31207-268.577937z m-41.387181 96.88695a59.155881 59.155881 0 0 0-17.695578 41.094691 59.155881 59.155881 0 0 0 118.23864 0 59.155881 59.155881 0 0 0-100.543062-41.094691zM325.684568 790.053206c11.041456-10.895212 17.476212-25.592779 17.768701-41.094691a59.155881 59.155881 0 0 0-118.23864 0 59.155881 59.155881 0 0 0 100.469939 41.094691z"  horiz-adv-x="1024" />
      
      <glyph glyph-name="Vector" unicode="&#59013;" d="M1024 640H0V853.333333C0 876.817067 19.217067 896 42.666667 896h938.666666C1004.817067 896 1024 876.782933 1024 853.333333V640zM256-128H42.666667C19.182933-128 0-108.782933 0-85.333333V554.666667h256v-682.666667z m725.333333 0H341.333333V554.666667h682.666667v-640c0-23.483733-19.217067-42.666667-42.666667-42.666667z"  horiz-adv-x="1024" />
      
      <glyph glyph-name="Union" unicode="&#59014;" d="M959.616 718.848a11.936 11.936 0 0 0 2.496-3.104 321.024 321.024 0 0 0-49.696-389.792 320.864 320.864 0 0 0-310.048-83.136L235.648-123.936c-3.648-3.776-9.92-3.52-13.792 0.384l-212.48 212.48a9.728 9.728 0 0 0-0.384 13.76l366.88 366.88a321.088 321.088 0 0 0 83.264 309.76 321.024 321.024 0 0 0 389.76 49.728 15.968 15.968 0 0 0 3.168-25.056L636.16 588.16l85.024-84.992 215.744 215.712a16 16 0 0 0 22.656 0z"  horiz-adv-x="1024" />
      
      <glyph glyph-name="shebeigaojing" unicode="&#59008;" d="M414.171429 296.594286a34.523429 34.523429 0 0 1 24.32-10.093715 34.486857 34.486857 0 0 1 24.32 10.093715l172.068571 171.556571 16.091429 16.969143-17.810286 42.422857-137.984 1.572572 117.101714 117.101714a34.413714 34.413714 0 0 1 0 48.822857 34.413714 34.413714 0 0 1-48.822857 0l-173.933714-173.970286-16.274286-16.786285 17.810286-42.642286 137.837714-1.536-114.724571-114.724572a34.377143 34.377143 0 0 1 0-48.786285zM105.618286 489.691429V164.571429h-7.021715A80.420571 80.420571 0 0 1 18.285714 84.187429v-126.866286c0-44.178286 35.949714-80.310857 80.310857-80.310857h826.806858A80.420571 80.420571 0 0 1 1005.714286-42.642286v126.902857a80.420571 80.420571 0 0 1-80.310857 80.274286h-7.168V489.691429C918.235429 713.874286 735.817143 896 511.926857 896 287.963429 896 105.618286 713.654857 105.618286 489.691429z m743.789714 0V164.571429H174.555429v325.12c0 186.148571 151.222857 337.481143 337.334857 337.481142s337.481143-151.369143 337.481143-337.481142zM98.56 95.890286h826.806857a11.702857 11.702857 0 0 0 11.483429-11.483429v-126.902857a11.702857 11.702857 0 0 0-11.483429-11.446857H98.596571a11.702857 11.702857 0 0 0-11.483428 11.483428v126.902858a11.702857 11.702857 0 0 0 11.483428 11.446857z"  horiz-adv-x="1024" />
      
      <glyph glyph-name="chanpinfenlei1" unicode="&#59009;" d="M139.008 896h185.386667a139.008 139.008 0 0 0 139.008-139.008v-185.386667a139.008 139.008 0 0 0-139.008-139.008H139.008A139.008 139.008 0 0 0 0 571.605333V756.992A139.008 139.008 0 0 0 139.008 896z m0-74.154667a64.853333 64.853333 0 0 1-64.853333-64.853333v-185.386667a64.853333 64.853333 0 0 1 64.853333-64.853333h185.386667a64.853333 64.853333 0 0 1 64.853333 64.853333V756.992a64.853333 64.853333 0 0 1-64.853333 64.853333H139.008z m0-481.962666h185.386667a139.008 139.008 0 0 0 139.008-139.008v-185.386667a139.050667 139.050667 0 0 0-139.008-139.008H139.008A139.008 139.008 0 0 0 0 15.488v185.386667a139.008 139.008 0 0 0 139.008 139.008z m0-74.154667a64.853333 64.853333 0 0 1-64.853333-64.853333v-185.386667a64.853333 64.853333 0 0 1 64.853333-64.853333h185.386667a64.853333 64.853333 0 0 1 64.853333 64.853333v185.386667a64.853333 64.853333 0 0 1-64.853333 64.853333H139.008zM695.125333 896h185.386667a139.050667 139.050667 0 0 0 139.008-139.008v-185.386667a139.008 139.008 0 0 0-139.008-139.008h-185.386667a139.008 139.008 0 0 0-139.008 139.008V756.992A139.008 139.008 0 0 0 695.125333 896z m0-74.154667a64.853333 64.853333 0 0 1-64.853333-64.853333v-185.386667a64.853333 64.853333 0 0 1 64.853333-64.853333h185.386667a64.853333 64.853333 0 0 1 64.853333 64.853333V756.992a64.853333 64.853333 0 0 1-64.853333 64.853333h-185.386667z m-69.504-588.544h324.394667a37.034667 37.034667 0 1 1 0 74.154667h-324.394667a37.077333 37.077333 0 1 1 0-74.154667z m0-162.176h231.68a36.949333 36.949333 0 0 1 37.12 37.034667 37.034667 37.034667 0 0 1-37.12 37.12h-231.68a37.077333 37.077333 0 1 1 0-74.154667z m0-162.218666h139.008a37.12 37.12 0 0 1 0 74.154666h-139.008a37.12 37.12 0 0 1-34.261333-51.285333 37.12 37.12 0 0 1 34.261333-22.869333z"  horiz-adv-x="1024" />
      
      <glyph glyph-name="bianyuanwangguan" unicode="&#59010;" d="M585.069714 896c202.752 0 367.177143-161.718857 367.177143-361.179429 0-35.84-5.339429-70.473143-15.250286-103.131428H853.942857a279.296 279.296 0 0 1 19.638857 103.131428c0 156.745143-129.206857 283.794286-288.475428 283.794286-159.305143 0-288.548571-127.049143-288.548572-283.794286 0-36.352 6.985143-71.168 19.675429-103.131428H233.106286a355.730286 355.730286 0 0 0-15.213715 103.131428C217.892571 734.281143 382.281143 896 585.069714 896zM585.069714 741.193143c115.894857 0 209.773714-92.342857 209.773715-206.372572h-78.628572c0 71.241143-58.733714 129.060571-131.145143 129.060572-72.411429 0-131.145143-57.819429-131.145143-129.060572H375.222857c0 114.029714 93.952 206.372571 209.810286 206.372572zM626.102857 464.457143a36.571429 36.571429 0 1 1-73.142857 0v-124.342857a36.571429 36.571429 0 0 1 73.142857 0v124.342857zM918.345143 169.691429a10.971429 10.971429 0 0 0 9.508571 5.485714h86.052572a10.971429 10.971429 0 0 0 9.508571-5.485714l43.044572-74.532572a10.971429 10.971429 0 0 0 0-10.971428l-43.044572-74.532572a10.971429 10.971429 0 0 0-9.508571-5.485714h-86.052572a10.971429 10.971429 0 0 0-9.508571 5.485714l-43.044572 74.532572a10.971429 10.971429 0 0 0 0 10.971428l43.044572 74.532572z m38.253714-80.018286l7.131429-12.361143h14.262857l7.168 12.361143-7.131429 12.361143h-14.262857l-7.168-12.361143zM831.378286 291.876571a36.571429 36.571429 0 0 0 31.670857 18.285715h207.835428a36.571429 36.571429 0 0 0 31.670858-18.285715l103.936-180.004571a36.571429 36.571429 0 0 0 0-36.571429l-103.936-180.004571a36.571429 36.571429 0 0 0-31.670858-18.285714H863.085714a36.571429 36.571429 0 0 0-31.670857 18.285714L727.405714 75.337143a36.571429 36.571429 0 0 0 0 36.571428l103.936 180.004572z m-30.025143-198.290285l82.797714-143.433143h165.632l82.797714 143.433143-82.797714 143.433143h-165.632l-82.797714-143.433143zM199.460571 152.137143a53.979429 53.979429 0 0 1-54.637714-53.248c0-29.476571 24.502857-53.284571 54.637714-53.284572a53.979429 53.979429 0 0 1 54.674286 53.284572c0 29.403429-24.502857 53.248-54.674286 53.248zM374.308571 152.137143a53.942857 53.942857 0 0 1-54.601142-53.248c0-29.476571 24.393143-53.284571 54.601142-53.284572a53.979429 53.979429 0 0 1 54.637715 53.284572c0 29.403429-24.502857 53.248-54.637715 53.248zM25.6 296.96a25.6 25.6 0 0 1-25.6-25.6v-343.771429a25.6 25.6 0 0 1 25.6-25.6h716.507429a25.6 25.6 0 0 1 21.284571 39.826286l-98.377143 147.529143a18.285714 18.285714 0 0 0 0 20.297143l98.377143 147.529143a25.6 25.6 0 0 1-21.284571 39.789714H25.6z m47.542857-73.142857h580.132572l-49.115429-73.618286a91.428571 91.428571 0 0 1 0-101.412571l49.115429-73.654857H73.142857v248.685714z"  horiz-adv-x="1243" />
      
      <glyph glyph-name="wuguanli" unicode="&#59011;" d="M249.227815 198.183385H344.223508a33.240615 33.240615 0 0 1 0 66.441846H249.227815a182.980923 182.980923 0 0 0-182.744615 182.744615 181.76 181.76 0 0 0 154.190769 180.617846l19.771077 3.072 6.459077 18.944a265.924923 265.924923 0 0 0 503.099077 0l6.498462-18.904615 19.771076-3.150769a181.799385 181.799385 0 0 0 154.19077-180.539077 183.020308 183.020308 0 0 0-182.744616-182.744616h-101.060923a33.240615 33.240615 0 0 1 0-66.48123h101.060923a249.501538 249.501538 0 0 1 249.225846 249.225846 247.768615 247.768615 0 0 1-190.89723 242.372923 332.484923 332.484923 0 0 1-615.148308 0A247.768615 247.768615 0 0 1 0.001969 447.409231a249.501538 249.501538 0 0 1 249.225846-249.225846zM847.401354 148.322462a83.022769 83.022769 0 0 1-76.091077-49.860924h-150.921846c1.142154 1.339077 2.323692 2.599385 3.584 3.820308l12.327384 11.815385a152.812308 152.812308 0 0 1-23.512615 43.323077l-16.580923-4.923077a55.138462 55.138462 0 0 0-64.512 27.332923v151.236923h199.404308a99.800615 99.800615 0 0 1 99.643077 99.721846 99.800615 99.800615 0 0 1-99.643077 99.682462H265.848123a99.800615 99.800615 0 0 1-99.682461-99.682462 99.800615 99.800615 0 0 1 99.682461-99.682461h199.404308v-151.276308a55.138462 55.138462 0 0 0-64.512-27.332923l-16.620308 4.923077a152.969846 152.969846 0 0 1-23.512615-43.323077l12.327384-11.815385c1.299692-1.220923 2.481231-2.520615 3.584-3.820308H225.597046a83.022769 83.022769 0 1 1-38.006154-106.889846 83.101538 83.101538 0 0 1 38.006154 40.448h155.057231c-2.166154-3.268923-4.726154-6.380308-7.719385-9.216l-12.327384-11.854769c5.513846-15.832615 13.548308-30.404923 23.512615-43.283692l16.620308 4.923077a55.138462 55.138462 0 0 0 69.198769-39.975385l4.765538-19.731692a142.729846 142.729846 0 0 1 47.497847 0l4.765538 19.731692a55.138462 55.138462 0 0 0 69.238154 39.936l16.580923-4.883692c10.003692 12.878769 17.998769 27.451077 23.512615 43.283692l-12.327384 11.815385a55.492923 55.492923 0 0 0-7.719385 9.255384h155.057231a82.983385 82.983385 0 0 1 159.153231 33.240616 83.101538 83.101538 0 0 1-83.101539 83.062154zM265.848123 397.548308a33.28 33.28 0 0 0 0 66.48123h465.250462a33.240615 33.240615 0 0 0 0-66.48123H265.848123z m192.630154-335.005539c0 22.843077 17.92 41.353846 39.975385 41.353846 22.055385 0 39.975385-18.510769 39.975384-41.353846 0-22.843077-17.880615-41.353846-39.975384-41.353846-22.055385 0-39.975385 18.510769-39.975385 41.353846z"  horiz-adv-x="1024" />
      
      <glyph glyph-name="yunyunjieru" unicode="&#59012;" d="M319.881846 64.945231l0.590769 3.899077-0.590769-3.938462c40.172308-6.301538 93.144615-8.428308 148.873846-8.428308 41.550769 0 84.755692 1.181538 125.44 2.63877a213.070769 213.070769 0 0 1 42.141539-79.163077 228.155077 228.155077 0 0 1 120.241231-74.043077c6.183385-2.953846 13.154462-5.041231 20.755692-6.262154 26.899692-4.253538 62.345846-5.671385 99.524923-5.671385 42.850462 0 88.300308 1.890462 126.188308 3.426462h0.118153c25.206154 1.024 46.867692 1.890462 60.376616 1.890461 74.161231 0 144.029538 27.569231 196.686769 77.587693a267.067077 267.067077 0 0 1 66.875077 101.297231c10.318769 28.238769 15.517538 57.895385 15.517538 88.024615 0 36.233846-7.443692 71.286154-22.134153 104.369231a265.688615 265.688615 0 0 1-60.100923 84.873846 280.064 280.064 0 0 1-98.343385 60.652308 384 384 0 0 1-30.247385 202.043076 396.288 396.288 0 0 1-89.6 126.503385l-2.756923-2.835692 2.756923 2.835692C963.623385 819.396923 859.293538 860.553846 748.504615 860.553846c-129.693538 0-251.155692-57.501538-329.846153-155.096615a354.816 354.816 0 0 1-46.749539 3.072c-89.481846 0-173.725538-33.240615-237.213538-93.617231C70.734769 554.023385 35.446154 472.891077 35.446154 386.481231c0-37.415385 6.656-74.082462 19.771077-109.016616a317.361231 317.361231 0 0 1 54.508307-92.868923 339.968 339.968 0 0 1 179.396924-110.316307c9.176615-4.450462 19.456-7.561846 30.72-9.334154z m130.756923 553.590154l2.56-0.512 1.496616 2.126769 13.548307 19.140923-3.229538 2.284308 3.229538-2.284308c62.739692 88.733538 167.463385 141.784615 280.260923 141.784615 90.387692 0 175.222154-33.398154 238.907077-93.971692 63.212308-60.140308 97.949538-139.894154 97.949539-224.610462 0-10.082462-0.472615-20.086154-1.457231-30.089846a296.290462 296.290462 0 0 1-20.361846 0.708923c-86.685538 0-167.896615-38.321231-220.672-103.424a238.158769 238.158769 0 0 1-83.692308-3.977846V542.011077h-318.109538v-318.070154H616.763077a207.753846 207.753846 0 0 1-29.065846-85.543385c-89.324308-3.111385-193.693538-4.726154-255.409231 5.041231a27.057231 27.057231 0 0 0-9.097846 2.678154l-4.804923 2.756923-0.512 0.315077-0.590769 0.157539-5.395693 1.181538a260.253538 260.253538 0 0 0-141.351384 85.228308 231.581538 231.581538 0 0 0-55.611077 150.724923c0 133.553231 115.042462 242.609231 256.984615 242.609231 18.825846 0 37.572923-1.969231 55.768615-5.750154l23.000616-4.804923z m413.892923-349.499077l2.520616-0.512 1.496615 2.087384 9.058462 12.8c41.590154 58.840615 111.064615 94.050462 185.895384 94.050462 60.022154 0 116.302769-22.173538 158.523077-62.345846 41.944615-39.896615 64.984615-92.750769 64.984616-148.873846 0-23.670154-4.096-46.867692-12.209231-69.001847a211.180308 211.180308 0 0 0-52.893539-80.068923c-42.220308-40.093538-98.461538-62.227692-158.365538-62.227692-14.690462 0-37.021538-0.905846-62.660923-1.969231h-0.118154c-65.102769-2.638769-162.737231-6.616615-214.724923 1.614769a16.817231 16.817231 0 0 0-5.632 1.654154l-3.190154 1.851077-0.551385 0.315077-0.551384 0.118154-3.623385 0.787692a172.307692 172.307692 0 0 0-93.577846 56.477539 153.206154 153.206154 0 0 0-36.824615 99.721846c0 88.300308 76.130462 160.531692 170.141538 160.531692 12.484923 0 24.930462-1.260308 36.982154-3.780923l0.787692 3.859692-0.787692-3.859692 15.320615-3.229538z m-184.832 34.343384h-159.113846v159.153231h159.113846v-159.113846z"  horiz-adv-x="1378" />
      
      <glyph glyph-name="yunweiguanli" unicode="&#59004;" d="M107.789474 896h862.315789a107.789474 107.789474 0 0 0 107.789474-107.789474v-765.682526a107.789474 107.789474 0 0 0-107.789474-107.789474H107.789474a107.789474 107.789474 0 0 0-107.789474 107.789474V788.210526a107.789474 107.789474 0 0 0 107.789474 107.789474z m481.441684-220.968421a288.983579 288.983579 0 0 0 152.522105-60.254316 87.04 87.04 0 1 1 34.816 46.888421A348.16 348.16 0 0 1 395.856842 691.2l1.239579-1.077895c13.581474-13.581474 24.252632-29.749895 31.420632-47.589052a288.983579 288.983579 0 0 0 160.714105 32.444631zM298.091789 502.029474h5.497264a87.04 87.04 0 1 1-58.960842 23.174737 348.16 348.16 0 0 1 182.16421-459.344843c0.323368 20.048842 4.796632 39.828211 13.096421 58.044632a290.061474 290.061474 0 0 0-166.211368 262.090105c0 39.989895 8.299789 79.494737 24.414315 116.035369z m515.772632-263.006316a290.115368 290.115368 0 0 0-171.816421-132.311579 87.093895 87.093895 0 1 1 7.760842-58.044632 348.213895 348.213895 0 0 1 250.772211 425.606737 144.168421 144.168421 0 0 0-54.649264-20.803368 290.115368 290.115368 0 0 0-32.121263-214.501053z"  horiz-adv-x="1077" />
      
      <glyph glyph-name="wulianwang" unicode="&#59005;" d="M1011.705691 810.653397a139.538201 139.538201 0 1 1-248.124757-126.172718l-147.084263-147.212162a185.070373 185.070373 0 0 1-58.386057 26.475167V624.048232a139.538201 139.538201 0 1 1-93.046784 0v-60.304548a184.878524 184.878524 0 0 1-47.96226-19.88835l-151.56074 151.56074a139.474251 139.474251 0 1 1-65.740271-65.74027l151.560741-151.560741a183.791379 183.791379 0 0 1-19.824401-48.090159H271.168401a139.538201 139.538201 0 1 1 0-92.982834h60.240599c5.435723-20.847596 14.388678-40.544097 26.539117-58.322108l-147.212163-147.084263a139.538201 139.538201 0 1 1 59.792951-71.81549L428.100915 217.32827c11.766741-5.94732 24.236929-10.615647 37.090814-13.877081v-60.304548a139.538201 139.538201 0 1 1 92.982835 0v60.304548c16.818766 4.348578 32.934085 11.063295 47.962259 19.888351l151.560741-151.560741a139.474251 139.474251 0 1 1 65.74027 65.740271l-151.56074 151.56074c8.697156 14.836326 15.475822 30.887695 19.824401 47.96226h60.368497a139.538201 139.538201 0 1 1 0 93.046784h-60.304548a183.919279 183.919279 0 0 1-13.94103 37.026864l157.508061 157.572011a139.538201 139.538201 0 0 1 176.373216 185.965668zM93.004594 11.602151a46.491417 46.491417 0 1 0 92.982834 0 46.491417 46.491417 0 0 0-92.982834 0z m790.545939 46.491417a46.491417 46.491417 0 1 0 0-93.046784 46.491417 46.491417 0 0 0 0 93.046784z m-418.550653-46.491417a46.491417 46.491417 0 1 0 93.046784 0 46.491417 46.491417 0 0 0-93.046784 0zM511.619197 476.580271a92.982834 92.982834 0 1 0 0-185.965668 92.982834 92.982834 0 0 0 0 185.965668zM837.123066 383.597437a46.491417 46.491417 0 1 0 93.046784 0 46.491417 46.491417 0 0 0-93.046784 0zM139.559961 430.088854a46.491417 46.491417 0 1 0 0-92.982834 46.491417 46.491417 0 0 0 0 92.982834z m697.563105 325.503869a46.491417 46.491417 0 1 0 92.982834 0 46.491417 46.491417 0 0 0-92.982834 0zM511.619197 802.08414A46.491417 46.491417 0 1 0 511.619197 709.101306a46.491417 46.491417 0 0 0 0 93.046784z m-418.550653-46.491417a46.491417 46.491417 0 1 0 92.982834 0 46.491417 46.491417 0 0 0-92.982834 0z"  horiz-adv-x="1024" />
      
      </font>
</defs>
</svg>
