<svg width="134" height="44" viewBox="0 0 134 44" fill="none" xmlns="http://www.w3.org/2000/svg">
  <path
    d="M13.2459 20.15L13.4897 20.2567L13.581 20.0068L14.0621 18.6897L14.1464 18.459L13.9173 18.3706L3.86652 14.4928L3.64568 14.4076L3.54855 14.6235L3.16997 15.4648L3.06632 15.6952L3.29772 15.7964L13.2459 20.15Z"
    fill="#3055EA" stroke="#3055EA" stroke-width="0.5"/>
  <path
    d="M15.2992 18.4648L15.0847 18.5445L15.1451 18.7652L15.4733 19.963L15.5484 20.2375L15.8109 20.1276L23.734 16.8112L23.9335 16.7277L23.8796 16.5183L23.657 15.6535L23.5879 15.3848L23.3278 15.4815L15.2992 18.4648Z"
    fill="#3055EA" stroke="#3055EA" stroke-width="0.5"/>
  <path
    d="M13.9307 32.7879V33.0379H14.1807H15.5056H15.7556V32.7879V19.4688V19.2188H15.5056H14.1807H13.9307V19.4688V32.7879Z"
    fill="#3055EA" stroke="#3055EA" stroke-width="0.5"/>
  <path
    d="M23.3921 17.1207L23.392 17.1207C22.8598 17.0765 22.4683 16.6056 22.5114 16.074L23.3921 17.1207ZM23.3921 17.1207C23.9248 17.1648 24.3874 16.7642 24.4306 16.2323L24.4306 16.2323M23.3921 17.1207L24.4306 16.2323M24.4306 16.2323C24.4737 15.7007 24.0822 15.2298 23.55 15.1857L24.4306 16.2323ZM23.5499 15.1857C23.0173 15.1415 22.5546 15.542 22.5114 16.074L23.5499 15.1857Z"
    fill="#3055EA" stroke="#3055EA" stroke-width="0.5"/>
  <path
    d="M14.8782 21.8902C16.2049 21.8902 17.2755 20.8034 17.2755 19.4688C17.2755 18.1341 16.2049 17.0474 14.8782 17.0474C13.5516 17.0474 12.481 18.1341 12.481 19.4688C12.481 20.8034 13.5516 21.8902 14.8782 21.8902Z"
    fill="#3055EA" stroke="#3055EA" stroke-width="0.5"/>
  <path
    d="M26.6907 14.3711L26.698 14.1285H26.9406H27.4226H27.6657L27.6725 14.3716L27.9987 26.0946L28.0058 26.3516H27.7488H26.5906H26.333L26.3407 26.0941L26.6907 14.3711Z"
    fill="#E50012" stroke="#E50012" stroke-width="0.5"/>
  <path
    d="M26.2237 27.6339L26.4666 27.517L26.3317 27.2836L25.866 26.4777L25.7429 26.2646L25.5279 26.3844L19.4111 29.7914L19.1842 29.9178L19.3191 30.1397L19.5864 30.5794L19.7042 30.7731L19.9085 30.6747L26.2237 27.6339Z"
    fill="#E50012" stroke="#E50012" stroke-width="0.5"/>
  <path
    d="M27.2433 13.4826L27.4927 13.5507L27.4162 13.7977L27.0026 15.1323L26.9235 15.3874L26.6742 15.2917L17.2548 11.6746L17.0523 11.5969L17.1007 11.3854L17.1879 11.005L17.2461 10.7509L17.4975 10.8196L27.2433 13.4826Z"
    fill="#E50012" stroke="#E50012" stroke-width="0.5"/>
  <path
    d="M28.9994 14.6463C28.9994 13.6254 28.1802 12.793 27.1639 12.793C26.1475 12.793 25.3284 13.6254 25.3284 14.6463C25.3284 15.6672 26.1475 16.4996 27.1639 16.4996C28.1802 16.4996 28.9994 15.6672 28.9994 14.6463Z"
    fill="#E50012" stroke="#E50012" stroke-width="0.5"/>
  <mask id="mask0_26_3211" style="mask-type:alpha" maskUnits="userSpaceOnUse" x="24" y="23" width="6" height="6">
    <path
      d="M25.3342 24.1963H25.0842V24.4463V28.1527V28.4027H25.3342H28.9994H29.2494V28.1527V24.4463V24.1963H28.9994H25.3342Z"
      fill="white" stroke="black" stroke-width="0.5"/>
  </mask>
  <g mask="url(#mask0_26_3211)">
    <path
      d="M29.2496 26.2995C29.2496 25.1405 28.3198 24.1963 27.167 24.1963C26.0141 24.1963 25.0844 25.1405 25.0844 26.2995C25.0844 27.4584 26.0141 28.4027 27.167 28.4027C28.3198 28.4027 29.2496 27.4584 29.2496 26.2995Z"
      fill="#E50012" stroke="#E50012" stroke-width="0.5"/>
  </g>
  <path
    d="M17.2389 12.2567L17.2389 12.2566C16.7066 12.2125 16.3151 11.7416 16.3582 11.21L16.3582 11.21C16.4014 10.6781 16.864 10.2775 17.3967 10.3217L17.2389 12.2567ZM17.2389 12.2567C17.7716 12.3008 18.2343 11.9002 18.2774 11.3683L17.2389 12.2567ZM18.2774 11.3683C18.3205 10.8367 17.9291 10.3658 17.3968 10.3217L18.2774 11.3683Z"
    fill="#E50012" stroke="#E50012" stroke-width="0.5"/>
  <path
    d="M19.2527 31.3997L19.2527 31.3997C18.7204 31.3555 18.3289 30.8847 18.372 30.3531L18.372 30.353C18.4152 29.8211 18.8778 29.4205 19.4105 29.4647L19.2527 31.3997ZM19.2527 31.3997C19.7854 31.4438 20.2481 31.0433 20.2912 30.5113L19.2527 31.3997ZM20.2912 30.5113C20.3343 29.9797 19.9429 29.5089 19.4106 29.4647L20.2912 30.5113Z"
    fill="#E50012" stroke="#E50012" stroke-width="0.5"/>
  <path
    d="M2.1364 26.5752L2.14365 26.8178H2.38629H2.86822H3.11136L3.11812 26.5747L3.44436 14.8517L3.45151 14.5947H3.19446H2.03625H1.77868L1.78637 14.8522L2.1364 26.5752Z"
    fill="#3055EA" stroke="#3055EA" stroke-width="0.5"/>
  <path
    d="M3.21572 13.2087L2.96627 13.2768L3.04282 13.5238L3.4564 14.8584L3.53546 15.1135L3.78481 15.0177L13.2042 11.4007L13.4067 11.323L13.3582 11.1115L13.2711 10.731L13.2129 10.477L12.9615 10.5457L3.21572 13.2087Z"
    fill="#3055EA" stroke="#3055EA" stroke-width="0.5"/>
  <path
    d="M13.0564 32.8211L13.29 32.9568L13.4072 32.7134L13.9448 31.5969L14.0534 31.3713L13.8276 31.263L6.59787 27.7958L6.32423 27.6646L6.24782 27.9583L6.0907 28.5622L6.0429 28.746L6.20704 28.8413L13.0564 32.8211Z"
    fill="#3055EA" stroke="#3055EA" stroke-width="0.5"/>
  <path
    d="M2.58549 16.4767C3.60188 16.4767 4.42104 15.6443 4.42104 14.6233C4.42104 13.6024 3.60187 12.77 2.58549 12.77C1.56916 12.77 0.75 13.6024 0.75 14.6233C0.75 15.6443 1.56916 16.4767 2.58549 16.4767Z"
    fill="#3055EA" stroke="#3055EA" stroke-width="0.5"/>
  <path
    d="M7.28396 28.3819C7.32704 27.8503 6.93559 27.3795 6.40332 27.3353L6.40331 27.3353C5.87069 27.2912 5.40793 27.6917 5.36481 28.2237L5.36481 28.2237C5.32173 28.7552 5.71308 29.2262 6.24546 29.2703C6.77808 29.3144 7.24085 28.914 7.28396 28.3819ZM7.28396 28.3819L7.03478 28.3617M7.28396 28.3819L7.03478 28.3617M7.03478 28.3617C7.06693 27.965 6.77494 27.617 6.38267 27.5845C5.99034 27.552 5.64614 27.8472 5.61399 28.2439C5.58184 28.6406 5.87378 28.9886 6.26611 29.0212C6.65844 29.0537 7.00263 28.7585 7.03478 28.3617Z"
    fill="#3055EA" stroke="#3055EA" stroke-width="0.5"/>
  <path
    d="M3.54495 26.4037C3.58803 25.8721 3.19658 25.4012 2.6643 25.3571L2.6643 25.3571C2.13167 25.3129 1.66891 25.7135 1.6258 26.2454L1.6258 26.2454C1.58272 26.7769 1.97406 27.2479 2.50645 27.292C3.03907 27.3362 3.50184 26.9357 3.54495 26.4037ZM3.54495 26.4037L3.29577 26.3835M3.54495 26.4037L3.29577 26.3835M3.29577 26.3835C3.26361 26.7803 2.91942 27.0754 2.52709 27.0429C2.13476 27.0104 1.84283 26.6623 1.87498 26.2656C1.90713 25.8689 2.25132 25.5737 2.64365 25.6062C3.03592 25.6387 3.32792 25.9867 3.29577 26.3835Z"
    fill="#3055EA" stroke="#3055EA" stroke-width="0.5"/>
  <path
    d="M13.1935 10.0902L13.1935 10.0902C13.7258 10.1343 14.1172 10.6052 14.0741 11.1368L14.0741 11.1368C14.0309 11.6687 13.5683 12.0694 13.0356 12.0252L13.1935 10.0902ZM13.1935 10.0902C12.6609 10.0461 12.1981 10.4466 12.155 10.9786L13.1935 10.0902ZM13.1728 10.3393L13.1728 10.3393L13.1728 10.3393ZM12.155 10.9786C12.1118 11.5102 12.5033 11.9811 13.0356 12.0252L12.155 10.9786Z"
    fill="#3055EA" stroke="#3055EA" stroke-width="0.5"/>
  <path
    d="M14.8433 35.2095C16.17 35.2095 17.2406 34.1228 17.2406 32.7881C17.2406 31.4534 16.17 30.3667 14.8433 30.3667C13.5167 30.3667 12.446 31.4534 12.446 32.7881C12.446 34.1228 13.5167 35.2095 14.8433 35.2095Z"
    fill="#3055EA" stroke="#3055EA" stroke-width="0.5"/>
  <path
    d="M122.587 20.6606L122.587 20.6606L122.586 20.6626C122.319 21.0894 122.186 21.5598 122.186 22.0704C122.186 22.8818 122.514 23.5609 123.16 24.0984C123.8 24.6309 124.747 25.0211 125.986 25.2797C125.986 25.2797 125.986 25.2797 125.986 25.2797L128.452 25.7955C128.452 25.7955 128.452 25.7955 128.452 25.7955C129.24 25.963 129.771 26.1592 130.067 26.374C130.352 26.5803 130.491 26.85 130.491 27.1965C130.491 27.6314 130.257 27.9901 129.734 28.2717C129.216 28.5483 128.497 28.693 127.567 28.693C126.628 28.693 125.9 28.5448 125.373 28.2612C124.862 27.9813 124.559 27.5749 124.451 27.0354L124.427 26.9148H124.304H121.958H121.791L121.809 27.0809C121.866 27.6037 122.046 28.0815 122.348 28.512L122.471 28.4259L122.348 28.512C122.648 28.9404 123.046 29.3053 123.538 29.6074L123.539 29.6081C124.039 29.9096 124.615 30.1416 125.265 30.3056L125.266 30.3058C125.926 30.4701 126.644 30.5517 127.418 30.5517C128.246 30.5517 129.008 30.4702 129.704 30.3062L129.704 30.3062L129.706 30.3058C130.4 30.1348 131.003 29.8994 131.512 29.5977L131.513 29.5977L131.514 29.5969C132.024 29.2876 132.423 28.9183 132.707 28.4873C133.002 28.0532 133.15 27.5741 133.15 27.0538C133.15 26.6207 133.08 26.234 132.936 25.897C132.79 25.5564 132.553 25.259 132.23 25.0042C131.908 24.7499 131.493 24.5346 130.989 24.3553C130.494 24.169 129.889 24.0026 129.174 23.8553L129.173 23.8551L127.003 23.4272C126.21 23.2603 125.645 23.053 125.292 22.8134C124.947 22.5795 124.791 22.3004 124.791 21.9716C124.791 21.7599 124.85 21.5699 124.967 21.3975L124.967 21.3975L124.969 21.3954C125.088 21.2141 125.262 21.0577 125.496 20.9284L125.496 20.9284L125.499 20.9267C125.735 20.7895 126.021 20.6809 126.36 20.603C126.698 20.5254 127.073 20.486 127.486 20.486C128.333 20.486 128.995 20.6371 129.486 20.9263L129.487 20.9268C129.983 21.2145 130.252 21.5979 130.317 22.0794L130.334 22.2094H130.465H132.703H132.859L132.853 22.0537C132.834 21.5498 132.681 21.0838 132.397 20.6587C132.114 20.237 131.734 19.879 131.261 19.5838C130.796 19.2813 130.246 19.049 129.614 18.8848C128.98 18.7128 128.297 18.6273 127.567 18.6273C126.784 18.6273 126.065 18.7089 125.413 18.8734C124.763 19.0375 124.195 19.2698 123.712 19.5723L123.712 19.5723L123.711 19.573C123.237 19.8757 122.861 20.2379 122.587 20.6606Z"
    fill="black" stroke="black" stroke-width="0.3"/>
  <path
    d="M117.226 18.7263H117.17L117.128 18.7624L111.463 23.6212V14.4526V14.3026H111.313H109.076H108.926V14.4526V30.292V30.442H109.076H111.313H111.463V30.292V26.0607L112.545 25.1838L117.412 30.3944L117.456 30.442H117.521H120.118H120.46L120.228 30.1904L114.357 23.818L120.035 18.9905L120.346 18.7263H119.938H117.226Z"
    fill="black" stroke="black" stroke-width="0.3"/>
  <path
    d="M54.4445 26.2311C54.579 28.2158 56.3215 29.322 57.9995 29.3003C58.5983 29.334 59.1942 29.1948 59.7172 28.8989C60.2402 28.6031 60.6686 28.1629 60.9522 27.6301H63.9747C63.4662 28.8918 62.6024 29.9757 61.49 30.7482C60.4581 31.4659 59.2315 31.8447 57.978 31.8327C56.2428 31.8385 54.5764 31.149 53.3454 29.9159C52.1143 28.6829 51.4196 27.0073 51.4139 25.2577C51.4081 23.5082 52.092 21.828 53.3149 20.5868C54.5379 19.3456 56.1998 18.6451 57.935 18.6394C58.787 18.6246 59.6331 18.7847 60.4218 19.1101C61.2104 19.4354 61.9252 19.9192 62.5226 20.5319C63.2415 21.2755 63.7789 22.1776 64.0925 23.1667C64.4062 24.1558 64.4874 25.2049 64.3297 26.2311H54.4445ZM61.4362 23.9753C61.2898 23.1615 60.8551 22.429 60.213 21.9143C59.5708 21.3995 58.7651 21.1376 57.9457 21.1772C57.1267 21.1287 56.319 21.3879 55.6783 21.9046C55.0377 22.4213 54.6097 23.159 54.4768 23.9753H61.4362Z"
    fill="black"/>
  <path
    d="M68.2716 18.9545H65.5227V21.2374H68.2716L68.2663 27.5C68.2663 31.1766 71.0415 31.4043 73.1444 31.426V29.1431C72.4075 29.1431 71.1974 29.1431 71.1974 27.4078L71.2027 21.2374H74.3711V18.9545H71.1974L71.1921 14.4043H68.2609L68.2716 18.9545Z"
    fill="black"/>
  <path
    d="M77.1887 19.1624L77.1892 21.4454L77.2074 27.4348C77.2074 30.9893 79.8013 31.3202 81.8738 31.3579C81.945 31.3592 85.6962 31.3601 85.766 31.3608V29.0779C85.6989 29.0779 81.9474 29.0779 81.8738 29.0766C81.1384 29.0635 80.1385 28.92 80.1385 27.3426L80.1198 21.4454V19.1624H80.1144L80.1091 14.6123H77.178L77.1887 19.1624Z"
    fill="black"/>
  <path
    d="M48.9362 14.6123L48.9356 16.8952L48.927 27.708C48.927 31.3214 46.2464 31.6035 44.158 31.6327C44.1214 31.6332 40.4045 31.6337 40.3684 31.634V29.3511C40.4037 29.3511 44.1206 29.3511 44.158 29.3509C44.899 29.3471 45.9959 29.2679 45.9959 27.6158L46.005 16.8952H42.8366V14.6123H46.0104H46.0012H48.9324H48.9362Z"
    fill="black"/>
  <path
    d="M94.354 18.7358H97.1077C97.1077 19.2781 97.1077 19.8204 97.1077 20.3626C97.6455 19.392 98.7211 18.3129 100.932 18.3346C104.938 18.3346 105.702 21.4472 105.702 23.6379V31.132H102.749V24.4025C102.749 22.5534 102.142 21.1489 100.087 21.1489C98.0327 21.1489 97.2852 22.5696 97.2852 24.3049V31.132H94.354V18.7358Z"
    fill="black"/>
  <path d="M88.2196 14.6123H91.1238V17.2315H88.2196V14.6123ZM88.2196 18.8854H91.1238V31.1623H88.2196V18.8854Z"
        fill="black"/>
</svg>
