<?xml version="1.0" encoding="UTF-8"?>
<svg width="502px" height="502px" viewBox="0 0 502 502" version="1.1" xmlns="http://www.w3.org/2000/svg" xmlns:xlink="http://www.w3.org/1999/xlink">
    <!-- Generator: Sketch 64 (93537) - https://sketch.com -->
    <title>Jetlinks</title>
    <desc>Jetlinks LOGO</desc>
    <defs>
        <polygon id="path-1" points="0.9469 0.7157 62.39 0.7157 62.39 62.1587 0.9469 62.1587"></polygon>
    </defs>
    <g id="logo" stroke="none" stroke-width="1" fill="none" fill-rule="evenodd">
        <g id="logo" transform="translate(16.000000, 47.000000)">
            <g id="left" transform="translate(261.603532, 3.835888)" fill="#f53645">
                <polygon id="Fill-4" transform="translate(177.104468, 160.334612) scale(1, -1) translate(-177.104468, -160.334612) " points="173.264468 257.505112 167.396468 63.1641117 186.812468 63.1641117 181.343468 257.505112"></polygon>
                <polygon id="Fill-8" points="159.431568 279.176012 53.5635675 329.585012 49.0825675 322.297012 151.624568 265.816012"></polygon>
                <polygon id="Fill-6" transform="translate(94.815688, 41.298515) scale(-1, 1) translate(-94.815688, -41.298515) " points="12.3964675 52.3094593 175.773939 8.1641117 177.234909 14.4713398 19.3296188 74.4329181"></polygon>
                <path d="M177.008668,41.0261117 C191.687668,41.0261117 203.587668,52.9261117 203.587668,67.6061117 C203.587668,82.2851117 191.687668,94.1851117 177.008668,94.1851117 C162.328668,94.1851117 150.428668,82.2851117 150.428668,67.6061117 C150.428668,52.9261117 162.328668,41.0261117 177.008668,41.0261117" id="Fill-12" fill="#f53645"></path>
                <g id="left-1" transform="translate(145.396468, 229.347112)" >
                    <mask id="mask-2" fill="white">
                        <use xlink:href="#path-1"></use>
                    </mask>
                    <g id="Clip-15"></g>
                    <path d="M31.6689,0.7157 C48.6359,0.7157 62.3909,14.4697 62.3909,31.4377 C62.3909,48.4037 48.6359,62.1587 31.6689,62.1587 C14.7009,62.1587 0.9469,48.4037 0.9469,31.4377 C0.9469,14.4697 14.7009,0.7157 31.6689,0.7157" id="Fill-14" fill="#f53645" mask="url(#mask-2)"></path>
                </g>
                <path d="M10.9735675,23.8577117 C4.39656755,23.3177117 -0.498432454,17.5487117 0.0405675457,10.9717117 C0.580567546,4.3957117 6.34956755,-0.499288299 12.9265675,0.0407117008 C19.5035675,0.579711701 24.3985675,6.3487117 23.8585675,12.9257117 C23.3195675,19.5027117 17.5505675,24.3967117 10.9735675,23.8577117" id="Fill-22" fill="#f53645"></path>
                <path d="M44.7323675,341.207312 C38.1553675,340.667312 33.2603675,334.898312 33.7993675,328.321312 C34.3393675,321.744312 40.1083675,316.850312 46.6853675,317.390312 C53.2623675,317.929312 58.1573675,323.698312 57.6173675,330.275312 C57.0783675,336.852312 51.3093675,341.746312 44.7323675,341.207312" id="Fill-26" fill="#f53645"></path>
            </g>
            <g id="right" transform="translate(0.000000, 0.000125)" fill="#0f61ff">
                <polygon id="Fill-1" points="206.971985 158.882932 40.2008972 86.7110718 46.5474 72.7635749 215.037868 137.048688"></polygon>
                <polygon id="Fill-2" points="241.1728 138.626075 375.7648 89.1690749 379.4958 103.505075 246.6738 158.483075"></polygon>
                <polygon id="Fill-3" points="220.963 372.184875 243.175 372.184875 243.175 151.384875 220.963 151.384875"></polygon>
                <polygon id="Fill-4" points="23.2392 269.068475 17.3712 74.7274749 36.7872 74.7274749 31.3182 269.068475"></polygon>
                <polygon id="Fill-6" points="38.2497864 51.6040162 201.627258 7.45866857 203.088228 13.7658967 45.1829376 73.7274749"></polygon>
                <polygon id="Fill-7" points="204.2197 369.149475 89.3977 303.175475 92.0317 293.163475 213.2307 350.641475"></polygon>
                <path d="M53.159,71.0619749 C53.159,85.7419749 41.259,97.6419749 26.579,97.6419749 C11.9,97.6419749 -7.10542736e-15,85.7419749 -7.10542736e-15,71.0619749 C-7.10542736e-15,56.3829749 11.9,44.4829749 26.579,44.4829749 C41.259,44.4829749 53.159,56.3829749 53.159,71.0619749 Z" id="Fill-10"></path>
                <path d="M88.2793,309.741275 C81.7023,309.202275 76.8083,303.432275 77.3473,296.855275 C77.8863,290.279275 83.6563,285.385275 90.2333,285.924275 C96.8093,286.463275 101.7043,292.232275 101.1653,298.809275 C100.6263,305.387275 94.8563,310.280275 88.2793,309.741275" id="Fill-16"></path>
                <path d="M25.6025,276.946375 C19.0255,276.407375 14.1315,270.637375 14.6705,264.060375 C15.2095,257.484375 20.9795,252.590375 27.5565,253.129375 C34.1325,253.668375 39.0275,259.437375 38.4885,266.014375 C37.9495,272.592375 32.1795,277.485375 25.6025,276.946375" id="Fill-18"></path>
                <path d="M202.1113,23.8575749 C195.5343,23.3185749 190.6393,17.5495749 191.1793,10.9725749 C191.7183,4.39557493 197.4883,-0.498425067 204.0653,0.040574933 C210.6413,0.579574933 215.5363,6.34857493 214.9973,12.9255749 C214.4573,19.5025749 208.6883,24.3975749 202.1113,23.8575749" id="Fill-20"></path>
                <path d="M375.7275,108.325775 C369.1505,107.785775 364.2555,102.016775 364.7955,95.4397749 C365.3345,88.8627749 371.1045,83.9687749 377.6815,84.5087749 C384.2575,85.0477749 389.1525,90.8167749 388.6135,97.3937749 C388.0735,103.970775 382.3045,108.864775 375.7275,108.325775" id="Fill-24"></path>
                <path d="M268.6533,151.385375 C268.6533,171.265375 252.5373,187.382375 232.6563,187.382375 C212.7753,187.382375 196.6593,171.265375 196.6593,151.385375 C196.6593,131.504375 212.7753,115.388375 232.6563,115.388375 C252.5373,115.388375 268.6533,131.504375 268.6533,151.385375" id="Fill-28"></path>
                <path d="M268.0654,372.185675 C268.0654,392.066675 251.9494,408.182675 232.0684,408.182675 C212.1874,408.182675 196.0714,392.066675 196.0714,372.185675 C196.0714,352.304675 212.1874,336.188675 232.0684,336.188675 C251.9494,336.188675 268.0654,352.304675 268.0654,372.185675" id="Fill-30"></path>
            </g>
        </g>
    </g>
</svg>
