<svg xmlns="http://www.w3.org/2000/svg" xmlns:xlink="http://www.w3.org/1999/xlink" width="2133" height="1821" viewBox="0 0 2133 1821">
  <defs>
    <style>
      .cls-1 {
        fill-rule: evenodd;
        fill: url(#linear-gradient);
      }
    </style>
    <linearGradient id="linear-gradient" x1="1065.5" y1="1999" x2="1065.5" y2="178" gradientUnits="userSpaceOnUse">
      <stop offset="0"/>
      <stop offset="0.497"/>
      <stop offset="1"/>
    </linearGradient>
  </defs>
  <path id="logo1.svg" class="cls-1" d="M2022.42,648.214l10.61,582.816c54.91,23.49,93.35,77.66,93.35,140.76,0,84.62-69.12,153.22-154.39,153.22a154.417,154.417,0,0,1-94.79-32.33l-357.39,168.57c0.01,0.51.04,1.03,0.04,1.55a71.705,71.705,0,1,1-27.28-56.23l332.42-187.9a152.039,152.039,0,0,1-7.39-46.88c0-65.02,40.83-120.54,98.41-142.79l19.82-580.509c-64.45-17.487-111.61-73.435-111.61-139.8a138.78,138.78,0,0,1,1.58-20.707L1302.56,304.069a76.032,76.032,0,1,1,16.58-68.219c124.31,29.1,535.71,142.08,572.95,152.316a160.362,160.362,0,0,1,86.52-24.98c85.27,0,154.39,65.144,154.39,145.5C2133,574.7,2086.34,630.412,2022.42,648.214ZM1064.4,636.557A234.879,234.879,0,0,1,1275.28,767.9l318.53-107.044a74.985,74.985,0,0,1,124.67-41.894l3.18-1.069-0.06,4.141a74.958,74.958,0,0,1-106.82,105.173L1298.74,886.8c-6.68,102.616-79.26,187.268-175.9,212v477.78c91.48,24.72,158.81,108.22,158.81,207.47,0,118.71-96.28,214.95-215.05,214.95-115.827,0-210.222-91.55-214.82-206.2L459.941,1555.81a76.057,76.057,0,1,1,36.52-64.97,76.6,76.6,0,0,1-.812,11.07l378.318,186.51a215.506,215.506,0,0,1,138.6-112.47V1100.33C913.705,1078.06,838.464,993.538,830.277,890.1L241.084,618.289a146.8,146.8,0,0,1-43.814,26.227L175.308,1299.88a76.1,76.1,0,1,1-81.818,7.53L63.27,629.728A145.051,145.051,0,0,1-2,508.69c0-80.36,65.667-145.5,146.671-145.5a146.759,146.759,0,0,1,83.9,26.184c64.743-17.847,464.765-127.9,574.337-152.926a76.094,76.094,0,1,1,16.626,67.523L290.187,490.712a143.094,143.094,0,0,1-3.1,52.785L856.413,762.243A234.831,234.831,0,0,1,1064.4,636.557Z" transform="translate(0 -178)"/>
</svg>
