<svg xmlns="http://www.w3.org/2000/svg" width="833" height="723" viewBox="0 0 833 723">
  <defs>
    <style>
      .cls-1 {
        fill: #231f21;
        fill-rule: evenodd;
      }
    </style>
  </defs>
  <path id="logo.svg" class="cls-1" d="M785.514,236.675l0.976,238.906a55.5,55.5,0,1,1-49.725,91.483L566.489,648.442a20.994,20.994,0,1,1-4.385-8.91l163.927-90.946a55.5,55.5,0,0,1,38-71.667l2.445-241.865A48.012,48.012,0,0,1,732,189c0-1.3.067-2.586,0.168-3.861L505.175,100.488A20.975,20.975,0,1,1,508,90c0,0.46-.04.911-0.069,1.364L740.54,161.682A48,48,0,1,1,785.514,236.675ZM647.05,231c-0.015-.333-0.05-0.662-0.05-1a21.053,21.053,0,1,1,7.118,15.728L477.283,319.882A64.537,64.537,0,0,1,432,391.293V660.746a63.472,63.472,0,1,1-80.167,45.564L174.986,604.7a21.094,21.094,0,1,1,5.508-10.157L364.362,681.3A63.608,63.608,0,0,1,394,661.064V390.988a64.519,64.519,0,0,1-44.979-60.653L85.088,216.853a47.09,47.09,0,0,1-23.122,16.023l-7.9,278.764a21,21,0,1,1-10.13,0l-8.55-278.368a47,47,0,1,1,50.781-72.69l253.9-76.278C340.039,83.871,340,83.441,340,83a21,21,0,1,1,2.566,10.061L94.884,184.854C94.952,185.9,95,186.942,95,188a47.259,47.259,0,0,1-.666,7.854L357.855,296.893a64.492,64.492,0,0,1,111.137-.264Z" transform="translate(-1 -62)"/>
</svg>
