<?xml version="1.0" standalone="no"?><!DOCTYPE svg PUBLIC "-//W3C//DTD SVG 1.1//EN" "http://www.w3.org/Graphics/SVG/1.1/DTD/svg11.dtd"><svg class="icon" width="200px" height="200.00px" viewBox="0 0 1024 1024" version="1.1" xmlns="http://www.w3.org/2000/svg"><path fill="#cdcdcd" d="M512 624.014222c93.895111 0 170.012444-75.207111 170.012444-168.021333V231.992889C682.012444 139.207111 605.866667 64 512 64s-170.012444 75.207111-170.012444 167.992889v224c0 92.814222 76.117333 168.021333 170.012444 168.021333z m330.012444-170.012444a8.021333 8.021333 0 0 0-8.021333-7.992889h-60.017778a8.021333 8.021333 0 0 0-7.964444 7.964444A253.980444 253.980444 0 0 1 512 707.982222a253.980444 253.980444 0 0 1-254.008889-254.008889 8.021333 8.021333 0 0 0-7.964444-7.964444H190.008889a8.021333 8.021333 0 0 0-8.021333 7.964444c0 168.732444 126.606222 307.911111 290.019555 327.623111v102.4h-145.322667c-13.681778 0-24.689778 14.307556-24.689777 32v36.010667c0 4.380444 2.816 7.992889 6.200889 7.992889h407.608888c3.413333 0 6.200889-3.612444 6.200889-7.992889v-36.010667c0-17.692444-11.008-32-24.689777-32h-149.333334v-101.888c165.319111-18.005333 294.030222-158.008889 294.030222-328.106666z" /></svg>