<svg width="18" height="15" viewBox="0 0 18 15" fill="none" xmlns="http://www.w3.org/2000/svg">
<path d="M0 1.12527V13.5414C0 14.2185 0.476821 14.6667 1.20199 14.6667H16.798C17.5132 14.6667 18 14.2185 18 13.5414V1.12527C18 0.448201 17.5232 0 16.798 0H1.20199C0.486755 0 0 0.448201 0 1.12527ZM1.20199 1.12527H16.798V4.51062H1.20199V1.12527ZM16.798 13.5414H1.20199V10.156H16.798V13.5414ZM1.20199 9.03077V5.63589H16.798V9.02124L1.20199 9.03077ZM13.798 2.25054H15C15.3576 2.25054 15.596 2.47941 15.596 2.81318C15.596 3.15648 15.3576 3.37581 15 3.37581H13.798C13.4404 3.37581 13.202 3.14694 13.202 2.81318C13.202 2.47941 13.4404 2.25054 13.798 2.25054ZM15.596 7.33333C15.596 7.67664 15.3576 7.89597 15 7.89597H13.798C13.4404 7.89597 13.202 7.6671 13.202 7.33333C13.202 6.99957 13.4404 6.7707 13.798 6.7707H15C15.3576 6.7707 15.596 6.99003 15.596 7.33333ZM13.202 11.844C13.202 11.5006 13.4404 11.2813 13.798 11.2813H15C15.3576 11.2813 15.596 11.5102 15.596 11.844C15.596 12.1873 15.3576 12.4066 15 12.4066H13.798C13.4404 12.4161 13.202 12.1873 13.202 11.844Z" fill="#597EF7"/>
</svg>
