<svg width="12" height="16" viewBox="0 0 12 16" fill="none" xmlns="http://www.w3.org/2000/svg">
<path fill-rule="evenodd" clip-rule="evenodd" d="M2.49722 15.875C3.66823 15.875 4.61944 14.9238 4.61944 13.7528C4.61944 12.8205 4.01688 12.0285 3.17936 11.7424V4.39228C4.01688 4.10616 4.61944 3.31412 4.61944 2.38186C4.61944 1.21085 3.66823 0.259636 2.49722 0.259636C1.32621 0.259636 0.375 1.21085 0.375 2.38186C0.375 3.31412 0.977559 4.10805 1.81508 4.39228V11.7424C0.977559 12.0285 0.375 12.8205 0.375 13.7528C0.375 14.9238 1.32621 15.875 2.49722 15.875ZM1.86055 14.384C1.69051 14.2174 1.59256 13.9908 1.5877 13.7528C1.59256 13.5148 1.69051 13.2882 1.86055 13.1216C2.03059 12.9549 2.25916 12.8616 2.49722 12.8616C2.73527 12.8616 2.96385 12.9549 3.13388 13.1216C3.30392 13.2882 3.40188 13.5148 3.40674 13.7528C3.40188 13.9908 3.30392 14.2174 3.13388 14.384C2.96385 14.5506 2.73527 14.6439 2.49722 14.6439C2.25916 14.6439 2.03059 14.5506 1.86055 14.384ZM3.13388 1.75252C3.30392 1.91913 3.40188 2.14574 3.40674 2.38375C3.40188 2.62176 3.30392 2.84838 3.13388 3.01498C2.96385 3.18158 2.73527 3.2749 2.49722 3.2749C2.25916 3.2749 2.03059 3.18158 1.86055 3.01498C1.69051 2.84838 1.59256 2.62176 1.5877 2.38375C1.59256 2.14574 1.69051 1.91913 1.86055 1.75252C2.03059 1.58592 2.25916 1.49261 2.49722 1.49261C2.73527 1.49261 2.96385 1.58592 3.13388 1.75252ZM11.3016 12.8713H9.84711V11.2344H9.84952V4.25811C10.687 3.97199 11.2896 3.17994 11.2896 2.24768C11.2896 1.07667 10.3384 0.125463 9.16738 0.125463C7.99637 0.125463 7.04516 1.07667 7.04516 2.24768C7.04516 3.17994 7.64772 3.97388 8.48524 4.25811V10.4632L8.48351 10.4633L8.48524 10.8587V11.2344H8.48688L8.49405 12.8734H7.04163C6.91267 12.8734 6.8429 13.0214 6.92113 13.1208L9.05219 15.8163C9.0663 15.8346 9.0844 15.8494 9.1051 15.8595C9.12581 15.8697 9.14857 15.875 9.17164 15.875C9.19471 15.875 9.21747 15.8697 9.23818 15.8595C9.25889 15.8494 9.27699 15.8346 9.29109 15.8163L11.4222 13.1187C11.5004 13.0193 11.4285 12.8713 11.3016 12.8713ZM10.0769 2.2485C10.072 2.0105 9.97405 1.78388 9.80401 1.61727C9.63397 1.45067 9.4054 1.35736 9.16735 1.35736C8.92929 1.35736 8.70072 1.45067 8.53068 1.61727C8.36064 1.78388 8.26268 2.0105 8.25782 2.2485C8.26268 2.48651 8.36064 2.71313 8.53068 2.87973C8.70072 3.04634 8.92929 3.13965 9.16735 3.13965C9.4054 3.13965 9.63397 3.04634 9.80401 2.87973C9.97405 2.71313 10.072 2.48651 10.0769 2.2485Z" fill="#597EF7"/>
</svg>
