<svg id="图层_1" data-name="图层 1" xmlns="http://www.w3.org/2000/svg" xmlns:xlink="http://www.w3.org/1999/xlink" viewBox="0 0 834 712"><defs><style>.cls-1{fill-rule:evenodd;fill:url(#未命名的渐变);}</style><linearGradient id="未命名的渐变" x1="417" y1="-75.13" x2="417" y2="636.91" gradientTransform="matrix(1, 0, 0, -1, 0, 636.89)" gradientUnits="userSpaceOnUse"><stop offset="0" stop-color="#fff"/><stop offset="1" stop-color="#fff"/></linearGradient></defs><title>画板 1</title><path id="logo3.svg" class="cls-1" d="M790.8,183.85l4.14,227.88A60,60,0,1,1,734.07,514l-139.6,65.91c0,.2,0,.4,0,.61a28,28,0,1,1-10.65-22l129.85-73.47a59.74,59.74,0,0,1,35.56-74.16L757,184c-25.18-6.84-43.6-28.71-43.6-54.66a53.59,53.59,0,0,1,.62-8.1L509.6,49.29a29.75,29.75,0,1,1,6.47-26.68C564.64,34,725.35,78.17,739.89,82.17a62.57,62.57,0,0,1,33.8-9.76C807,72.41,834,97.88,834,129.3,834,155.11,815.77,176.89,790.8,183.85Zm-374.23-4.56a91.73,91.73,0,0,1,82.37,51.36l124.43-41.86a29.29,29.29,0,0,1,48.7-16.38l1.25-.42,0,1.62a29.3,29.3,0,0,1-41.73,41.13l-123.45,62.4A91.84,91.84,0,0,1,439.4,360V546.84a84,84,0,1,1-105.89,84.54L180.45,538.72a29.73,29.73,0,1,1,14.27-25.4,31.28,31.28,0,0,1-.32,4.32l147.78,72.93a84.22,84.22,0,0,1,54.14-44v-186a91.85,91.85,0,0,1-71.21-82.2L95,172.15A57.46,57.46,0,0,1,77.84,182.4L69.26,438.65a29.72,29.72,0,1,1-32,2.94l-11.8-265A56.81,56.81,0,0,1,57.3,72.41,57.29,57.29,0,0,1,90.07,82.64c25.29-7,181.55-50,224.36-59.79a29.74,29.74,0,1,1,6.49,26.4l-206.78,73a56.06,56.06,0,0,1-1.21,20.64l222.4,85.52a91.72,91.72,0,0,1,81.24-49.14Z"/></svg>