<svg xmlns="http://www.w3.org/2000/svg" xmlns:xlink="http://www.w3.org/1999/xlink" width="200" height="200" viewBox="0 0 968 826">
  <defs>
    <style>
      .cls-1 {
        fill-rule: evenodd;
        fill: url(#linear-gradient);
      }
    </style>
    <linearGradient id="linear-gradient" x1="485" y1="827" x2="485" y2="1" gradientUnits="userSpaceOnUse">
      <stop offset="0" stop-color="#2390f4"/>
      <stop offset="1" stop-color="#1890ff"/>
    </linearGradient>
  </defs>
  <path id="logo1.svg" class="cls-1" d="M918.864,214.288l4.81,264.365A69.5,69.5,0,0,1,966,542.5c0,38.384-31.34,69.5-70,69.5a70,70,0,0,1-42.979-14.663L690.982,673.8c0,0.235.018,0.468,0.018,0.7A32.521,32.521,0,1,1,678.631,649L829.35,563.763a69.288,69.288,0,0,1,41.27-86.032l8.985-263.318C850.384,206.481,829,181.1,829,151a62.761,62.761,0,0,1,.718-9.392L592.481,58.185A34.491,34.491,0,1,1,600,27.24c56.363,13.2,242.893,64.447,259.777,69.09A72.678,72.678,0,0,1,899,85c38.66,0,70,29.549,70,66C969,180.943,947.845,206.213,918.864,214.288ZM484.5,209a106.488,106.488,0,0,1,95.613,59.577l144.422-48.555a33.989,33.989,0,0,1,56.521-19l1.443-.485-0.024,1.879a33.994,33.994,0,0,1-48.436,47.706L590.748,322.511A106.547,106.547,0,0,1,511,418.674V635.391a97.5,97.5,0,1,1-122.9,98.078l-177.658-107.5A34.5,34.5,0,1,1,227,596.5a34.761,34.761,0,0,1-.368,5.02l171.528,84.6A97.721,97.721,0,0,1,461,635.107V419.366a106.539,106.539,0,0,1-82.649-95.358L111.213,200.714a66.534,66.534,0,0,1-19.865,11.9L81.391,509.88a34.506,34.506,0,1,1-37.1,3.416L30.593,205.9A65.8,65.8,0,0,1,1,151c0-36.451,29.773-66,66.5-66a66.518,66.518,0,0,1,38.038,11.877c29.354-8.1,210.723-58.016,260.4-69.367a34.512,34.512,0,1,1,7.538,30.628l-240,84.707a64.977,64.977,0,0,1-1.406,23.943L390.2,266.011A106.464,106.464,0,0,1,484.5,209Z" transform="translate(-1 -1)"/>
</svg>
