<?xml version="1.0" standalone="no"?><!DOCTYPE svg PUBLIC "-//W3C//DTD SVG 1.1//EN" "http://www.w3.org/Graphics/SVG/1.1/DTD/svg11.dtd"><svg class="icon" width="200px" height="200.00px" viewBox="0 0 1024 1024" version="1.1" xmlns="http://www.w3.org/2000/svg"><path d="M512 1024C229.232 1024 0 794.768 0 512 0 229.232 229.232 0 512 0c282.768 0 512 229.232 512 512 0 282.768-229.232 512-512 512z m0-40c260.68 0 472-211.32 472-472S772.68 40 512 40 40 251.32 40 512s211.32 472 472 472z" fill="#334966" /><path d="M669.12 660H351.508c0.328-2.62 0.496-5.292 0.496-8 0-25.344-14.732-47.248-36.1-57.612l158.86-290.332A63.708 63.708 0 0 0 512 316c13.892 0 26.748-4.424 37.24-11.944l156.3 285.652C683.396 599.776 668 622.092 668 648c0 4.1 0.384 8.112 1.12 12z" fill="#00A4FF" /><path d="M780.136 605.824A63.756 63.756 0 0 1 796 648c0 35.348-28.652 64-64 64-5.636 0-11.1-0.728-16.308-2.096C664.088 763.008 591.896 796 512 796c-80.352 0-152.908-33.368-204.568-87-6.128 1.948-12.656 3-19.432 3-35.348 0-64-28.652-64-64a63.8 63.8 0 0 1 18.792-45.3A283.68 283.68 0 0 1 228 512c0-135.68 95.148-249.144 222.36-277.292C457.912 207.76 482.652 188 512 188c29.352 0 54.092 19.76 61.64 46.708C700.848 262.856 796 376.316 796 512c0 32.88-5.588 64.452-15.864 93.824z m-35.332-20.544A243.896 243.896 0 0 0 756 512c0-114.192-78.444-210.064-184.388-236.664C562.288 299.14 539.112 316 512 316c-27.112 0-50.288-16.86-59.612-40.664C346.44 301.936 268 397.808 268 512a243.92 243.92 0 0 0 10.992 72.628A64.552 64.552 0 0 1 288 584c35.348 0 64 28.652 64 64 0 13.86-4.408 26.692-11.896 37.172C384.208 728.952 444.944 756 512 756c65.892 0 125.684-26.12 169.588-68.568A63.724 63.724 0 0 1 668 648c0-35.348 28.652-64 64-64 4.384 0 8.668 0.44 12.804 1.28zM512 288a36 36 0 1 0 0-72 36 36 0 0 0 0 72z m-224 396a36 36 0 1 0 0-72 36 36 0 0 0 0 72z m444 0a36 36 0 1 0 0-72 36 36 0 0 0 0 72z" fill="#334966" /></svg>